<svg version="1.1" xmlns="http://www.w3.org/2000/svg" fill-rule="evenodd" clip-rule="evenodd" height="1024" width="1024" viewBox="0 0 1024 1024"><path d="M832.512 63.488q26.624 0 50.176 10.24t40.96 27.648 27.648 40.448 10.24 49.664l0 641.024q0 26.624-10.24 49.664t-27.648 40.448-40.96 27.648-50.176 10.24l-191.488 0 0-384 63.488 0q26.624 0 45.568-18.944t18.944-45.568-18.944-45.568-45.568-18.944l-63.488 0q2.048-38.912 16.384-52.224t38.912-13.312l66.56 0q27.648 0 41.984-19.968t14.336-44.032-13.824-44.032-42.496-19.968l-110.592 0q-34.816 0-60.928 11.776t-44.032 32.256-26.624 47.104-8.704 57.344l0 45.056-63.488 0q-26.624 0-45.568 18.944t-18.944 45.568 18.944 45.568 45.568 18.944l63.488 0 0 384-320.512 0q-26.624 0-49.664-10.24t-40.448-27.648-27.648-40.448-10.24-49.664l0-641.024q0-26.624 10.24-49.664t27.648-40.448 40.448-27.648 49.664-10.24l641.024 0z"></path></svg>
