<svg version="1.1" xmlns="http://www.w3.org/2000/svg" height="1024" width="1024" viewBox="0 0 1024 1024"><path d="M972.288 79.36c-7.68-10.24-16.896-19.968-27.648-27.648C922.624 35.328 896 25.6 866.816 25.6H157.184c-29.184 0-56.32 9.728-78.336 26.112-10.24 7.68-19.968 16.896-27.648 27.648-15.872 21.504-25.6 48.64-25.6 77.824v709.632c0 29.184 9.728 56.32 26.112 77.824 7.68 10.24 16.896 19.968 27.648 27.648 22.016 16.384 48.64 26.112 77.824 26.112h709.632c29.184 0 56.32-9.728 77.824-26.112 10.24-7.68 19.968-16.896 27.648-27.648 16.384-22.016 26.112-48.64 26.112-77.824V157.184c0-29.184-10.24-56.32-26.112-77.824zM373.76 469.504c15.36-34.304 33.28-68.096 49.664-101.888h56.832c-13.824 27.648-29.696 55.296-39.424 81.408 23.04-1.536 44.032-2.56 69.12-4.096-13.312 26.624-25.088 50.176-36.352 73.728-1.536 3.072-3.072 6.656-4.608 9.728-12.288 24.576-12.288 24.576 14.848 25.088 3.072 0 5.632 0.512 10.752 1.024-7.68 14.848-14.336 28.672-21.504 41.984-1.024 2.048-4.608 4.608-6.656 4.608-19.968 0-40.448 0.512-60.416-1.536-14.336-1.536-19.968-12.8-14.336-26.112 6.656-16.896 14.848-33.28 22.528-50.176 2.56-5.632 5.12-11.264 8.704-19.968h-27.648c-23.04-1.536-31.232-12.288-21.504-33.792z m-275.968 181.248c-12.288-20.992-23.04-40.448-34.304-59.904 0-2.56 22.016-68.608 16.896-144.384h59.904c0.512 0.512 2.56 141.312-42.496 204.288z m139.776-7.168c0.512 35.328-23.552 35.328-23.552 35.328h-34.304l-36.352-47.616h37.888V367.104h56.832c0.512 86.528 0 189.952-0.512 276.48z m82.944 4.096c-27.136-24.064-41.984-95.232-41.472-201.216h56.32c-4.096 55.808 13.824 130.56 13.824 130.56s-16.896 36.352-28.672 70.656z m123.392 25.088c-1.536 3.072-6.656 5.632-9.728 5.632-26.624 0.512-53.248 0-83.456 0 11.264-23.04 20.992-41.472 29.184-57.856H471.04c-10.24 19.968-18.432 36.352-27.136 52.224z m232.448 6.144H472.064c9.728-19.456 27.648-54.784 27.648-54.784H558.08V445.44h-36.352V389.632h131.584v55.296h-35.84V624.64h59.392l-0.512 54.272z m270.336-41.472c0 41.472-40.448 39.936-40.448 39.936h-52.736l-22.016-47.104h56.832s0.512-43.008 0-57.344c-0.512-12.288-7.168-20.48-19.968-20.48-25.088-0.512-50.688 0-78.848 0v125.44h-56.32V552.96h-56.832V494.592h55.296V445.44h-36.864V390.656h37.376v-23.552h56.832l0.512 23.552h45.568s41.984-1.024 41.984 39.936c0 12.288 0.512 51.712 0.512 65.024 48.128 0 68.608 9.728 68.608 43.008l0.512 98.816z m-24.064-190.464h-30.208v-29.184c0-10.752 5.12-20.48 14.336-26.112 10.24-6.656 24.064-10.752 37.376 2.048l1.536 1.536c17.92 19.968 3.584 51.712-23.04 51.712z"></path><path d="M791.04 494.592h37.888V445.44h-37.888v49.152z"></path></svg>
