<svg width="40" height="40" viewBox="0 0 40 40" fill="none" xmlns="http://www.w3.org/2000/svg">
    <circle cx="20" cy="20" r="20" fill="white" fill-opacity="0.2" />
    <path d="M25.2046 11.7768C25.2046 11.6387 25.1497 11.5063 25.0521 11.4087C24.9544 11.311 24.822 11.2562 24.6839 11.2562H22.0806C20.7697 11.1909 19.4862 11.6471 18.5106 12.5251C17.5351 13.4031 16.9466 14.6316 16.874 15.9421V18.7537H14.2707C14.1326 18.7537 14.0001 18.8085 13.9025 18.9062C13.8049 19.0038 13.75 19.1363 13.75 19.2744V21.9818C13.75 22.1199 13.8049 22.2523 13.9025 22.35C14.0001 22.4476 14.1326 22.5025 14.2707 22.5025H16.874V29.4793C16.874 29.6174 16.9288 29.7499 17.0265 29.8475C17.1241 29.9451 17.2565 30 17.3946 30H20.5186C20.6567 30 20.7891 29.9451 20.8868 29.8475C20.9844 29.7499 21.0393 29.6174 21.0393 29.4793V22.5025H23.7675C23.8833 22.5041 23.9964 22.4671 24.0888 22.3974C24.1812 22.3276 24.2477 22.229 24.2778 22.1172L25.0275 19.4097C25.0483 19.3328 25.051 19.2521 25.0357 19.174C25.0203 19.0958 24.9872 19.0222 24.9389 18.9588C24.8907 18.8954 24.8285 18.844 24.7572 18.8084C24.6859 18.7729 24.6074 18.7541 24.5277 18.7537H21.0393V15.9421C21.0652 15.6844 21.1862 15.4455 21.3788 15.2722C21.5713 15.0989 21.8215 15.0036 22.0806 15.0049H24.6839C24.822 15.0049 24.9544 14.9501 25.0521 14.8524C25.1497 14.7548 25.2046 14.6224 25.2046 14.4843V11.7768Z" fill="white" />
</svg>
