<svg width="40" height="40" viewBox="0 0 40 40" fill="none" xmlns="http://www.w3.org/2000/svg">
<circle cx="20" cy="20" r="20" fill="white" fill-opacity="0.2"/>
<path fill-rule="evenodd" clip-rule="evenodd" d="M15.4844 8.81875C16.7062 8.7625 17.0958 8.75 20.2083 8.75C23.3208 8.75 23.7104 8.76354 24.9312 8.81875C26.1521 8.87396 26.9854 9.06875 27.7146 9.35104C28.4781 9.63958 29.1708 10.0906 29.7437 10.674C30.3271 11.2458 30.7771 11.9375 31.0646 12.7021C31.3479 13.4312 31.5417 14.2646 31.5979 15.4833C31.6542 16.7073 31.6667 17.0969 31.6667 20.2083C31.6667 23.3208 31.6531 23.7104 31.5979 24.9323C31.5427 26.151 31.3479 26.9844 31.0646 27.7135C30.7771 28.4782 30.3263 29.171 29.7437 29.7437C29.1708 30.3271 28.4781 30.7771 27.7146 31.0646C26.9854 31.3479 26.1521 31.5417 24.9333 31.5979C23.7104 31.6542 23.3208 31.6667 20.2083 31.6667C17.0958 31.6667 16.7062 31.6531 15.4844 31.5979C14.2656 31.5427 13.4323 31.3479 12.7031 31.0646C11.9385 30.777 11.2456 30.3263 10.6729 29.7437C10.09 29.1715 9.63887 28.479 9.35104 27.7146C9.06875 26.9854 8.875 26.1521 8.81875 24.9333C8.7625 23.7094 8.75 23.3198 8.75 20.2083C8.75 17.0958 8.76354 16.7062 8.81875 15.4854C8.87396 14.2646 9.06875 13.4312 9.35104 12.7021C9.63929 11.9376 10.0907 11.2451 10.674 10.6729C11.2459 10.0901 11.938 9.639 12.7021 9.35104C13.4312 9.06875 14.2646 8.875 15.4833 8.81875H15.4844ZM24.8385 10.8812C23.6302 10.826 23.2677 10.8146 20.2083 10.8146C17.149 10.8146 16.7865 10.826 15.5781 10.8812C14.4604 10.9323 13.8542 11.1187 13.45 11.276C12.9156 11.4844 12.5333 11.7312 12.1323 12.1323C11.7521 12.5021 11.4596 12.9524 11.276 13.45C11.1187 13.8542 10.9323 14.4604 10.8812 15.5781C10.826 16.7865 10.8146 17.149 10.8146 20.2083C10.8146 23.2677 10.826 23.6302 10.8812 24.8385C10.9323 25.9562 11.1187 26.5625 11.276 26.9667C11.4594 27.4635 11.7521 27.9146 12.1323 28.2844C12.5021 28.6646 12.9531 28.9573 13.45 29.1406C13.8542 29.2979 14.4604 29.4844 15.5781 29.5354C16.7865 29.5906 17.1479 29.6021 20.2083 29.6021C23.2687 29.6021 23.6302 29.5906 24.8385 29.5354C25.9562 29.4844 26.5625 29.2979 26.9667 29.1406C27.501 28.9323 27.8833 28.6854 28.2844 28.2844C28.6646 27.9146 28.9573 27.4635 29.1406 26.9667C29.2979 26.5625 29.4844 25.9562 29.5354 24.8385C29.5906 23.6302 29.6021 23.2677 29.6021 20.2083C29.6021 17.149 29.5906 16.7865 29.5354 15.5781C29.4844 14.4604 29.2979 13.8542 29.1406 13.45C28.9323 12.9156 28.6854 12.5333 28.2844 12.1323C27.9145 11.7522 27.4643 11.4596 26.9667 11.276C26.5625 11.1187 25.9562 10.9323 24.8385 10.8812V10.8812ZM18.7448 23.7406C19.5621 24.0809 20.4723 24.1268 21.3197 23.8705C22.1672 23.6143 22.8994 23.0718 23.3913 22.3357C23.8832 21.5995 24.1042 20.7155 24.0167 19.8345C23.9292 18.9535 23.5385 18.1302 22.9115 17.5052C22.5117 17.1057 22.0283 16.7998 21.4962 16.6095C20.964 16.4193 20.3963 16.3493 19.8338 16.4048C19.2714 16.4603 18.7283 16.6398 18.2435 16.9303C17.7588 17.2209 17.3445 17.6154 17.0305 18.0853C16.7165 18.5552 16.5106 19.0888 16.4276 19.6479C16.3446 20.2069 16.3866 20.7774 16.5506 21.3182C16.7145 21.8591 16.9963 22.3569 17.3757 22.7757C17.7552 23.1946 18.2227 23.5241 18.7448 23.7406ZM16.0437 16.0437C16.5906 15.4968 17.2399 15.063 17.9545 14.767C18.669 14.4711 19.4349 14.3187 20.2083 14.3187C20.9818 14.3187 21.7476 14.4711 22.4622 14.767C23.1767 15.063 23.826 15.4968 24.3729 16.0437C24.9198 16.5906 25.3536 17.2399 25.6496 17.9545C25.9456 18.669 26.0979 19.4349 26.0979 20.2083C26.0979 20.9818 25.9456 21.7476 25.6496 22.4622C25.3536 23.1767 24.9198 23.826 24.3729 24.3729C23.2684 25.4774 21.7704 26.0979 20.2083 26.0979C18.6463 26.0979 17.1483 25.4774 16.0437 24.3729C14.9392 23.2684 14.3187 21.7704 14.3187 20.2083C14.3187 18.6463 14.9392 17.1483 16.0437 16.0437V16.0437ZM27.4042 15.1958C27.5397 15.068 27.6482 14.9143 27.7232 14.7437C27.7983 14.5732 27.8383 14.3893 27.8411 14.2031C27.8438 14.0168 27.8091 13.8318 27.739 13.6592C27.669 13.4865 27.565 13.3297 27.4333 13.198C27.3015 13.0662 27.1447 12.9622 26.9721 12.8922C26.7994 12.8222 26.6145 12.7875 26.4282 12.7902C26.2419 12.7929 26.0581 12.833 25.8875 12.908C25.717 12.9831 25.5633 13.0916 25.4354 13.2271C25.1868 13.4907 25.0507 13.8408 25.0559 14.2031C25.0612 14.5654 25.2075 14.9113 25.4637 15.1675C25.7199 15.4238 26.0659 15.57 26.4282 15.5753C26.7905 15.5806 27.1406 15.4445 27.4042 15.1958V15.1958Z" fill="white"/>
</svg>
