<svg width="40" height="40" viewBox="0 0 40 40" fill="none" xmlns="http://www.w3.org/2000/svg">
<circle cx="20" cy="20" r="20" fill="white" fill-opacity="0.2"/>
<path d="M27.4705 22.1388C27.74 22.1349 27.9975 22.0154 28.1881 21.8057C28.3787 21.596 28.4874 21.3127 28.4909 21.0162C28.4909 20.3937 28.0375 19.8938 27.4705 19.8938C26.9034 19.8938 26.45 20.3937 26.45 21.0162C26.45 21.6412 26.9045 22.1388 27.4705 22.1388ZM22.442 22.1388C22.7116 22.1349 22.9691 22.0154 23.1597 21.8057C23.3503 21.596 23.459 21.3127 23.4625 21.0162C23.4625 20.3937 23.008 19.8938 22.442 19.8938C21.8739 19.8938 21.4216 20.3937 21.4216 21.0162C21.4216 21.6412 21.875 22.1388 22.442 22.1388ZM29.9045 28.4387C29.8317 28.4833 29.7736 28.552 29.7385 28.6351C29.7034 28.7181 29.6931 28.8113 29.7091 28.9013C29.7091 28.9613 29.7091 29.0225 29.7375 29.085C29.8489 29.6062 30.0716 30.4363 30.0716 30.4675C30.0716 30.5588 30.1 30.62 30.1 30.6825C30.1 30.7187 30.0935 30.7546 30.0809 30.788C30.0682 30.8215 30.0497 30.8518 30.0264 30.8774C30.003 30.903 29.9753 30.9232 29.9449 30.9369C29.9144 30.9507 29.8818 30.9577 29.8489 30.9575C29.792 30.9575 29.7648 30.9275 29.7091 30.8975L28.0625 29.8525C27.9423 29.7797 27.8086 29.7378 27.6716 29.73C27.5886 29.73 27.5045 29.73 27.4489 29.76C26.667 30.0063 25.858 30.1287 24.9932 30.1287C20.8341 30.1287 17.4852 27.0575 17.4852 23.2475C17.4852 19.4387 20.8341 16.3663 24.9932 16.3663C29.1511 16.3663 32.5 19.4387 32.5 23.2475C32.5 25.3062 31.4955 27.18 29.9045 28.44V28.4387ZM25.3102 15.1237C25.2042 15.1199 25.0981 15.1178 24.992 15.1175C20.2489 15.1175 16.3489 18.6925 16.3489 23.2487C16.3489 23.9412 16.4398 24.6112 16.608 25.2487H16.5068C15.5139 25.2377 14.5267 25.0831 13.5705 24.7887C13.4864 24.7575 13.4023 24.7575 13.3182 24.7575C13.1502 24.7614 12.9863 24.8145 12.8432 24.9112L10.8568 26.1675C10.8 26.1987 10.7443 26.23 10.6886 26.23C10.6075 26.229 10.53 26.1932 10.4727 26.1301C10.4153 26.067 10.3827 25.9817 10.3818 25.8925C10.3818 25.8 10.4091 25.7388 10.4375 25.6462C10.4648 25.6163 10.717 24.6038 10.8568 23.9913C10.8568 23.9288 10.8841 23.8375 10.8841 23.7762C10.8838 23.6691 10.861 23.5635 10.8174 23.4676C10.7738 23.3718 10.7107 23.2883 10.633 23.2238C8.70227 21.72 7.5 19.4825 7.5 16.9975C7.5 12.4312 11.5568 8.75 16.5341 8.75C20.8125 8.75 24.4091 11.4612 25.3102 15.1225V15.1237ZM19.4534 15.6463C20.1045 15.6463 20.6193 15.05 20.6193 14.3638C20.6193 13.6475 20.1045 13.0813 19.4534 13.0813C18.8023 13.0813 18.2875 13.6475 18.2875 14.3638C18.2875 15.08 18.8023 15.6463 19.4534 15.6463ZM13.4761 15.6463C14.1273 15.6463 14.6432 15.05 14.6432 14.3638C14.6432 13.6475 14.1273 13.0813 13.4761 13.0813C12.8261 13.0813 12.3102 13.6475 12.3102 14.3638C12.3102 15.08 12.8261 15.6463 13.4761 15.6463Z" fill="white"/>
</svg>
