<svg width="40" height="40" viewBox="0 0 40 40" fill="none" xmlns="http://www.w3.org/2000/svg">
<circle cx="20" cy="20" r="20" fill="white" fill-opacity="0.2"/>
<path d="M27.3733 17.1079C27.7444 15.936 26.719 14.8227 25.5471 15.0717C24.4729 15.3061 24.1408 13.6996 25.2004 13.4701C27.6467 12.9379 29.7073 15.2817 28.9358 17.6108C28.6038 18.646 27.0413 18.1382 27.3733 17.1079ZM17.9884 30.2477C12.7979 30.2477 7.5 27.7379 7.5 23.5923C7.5 21.4292 8.8672 18.9341 11.2256 16.5756C16.0939 11.7074 21.1476 11.6488 19.7023 16.2973C19.507 16.937 20.3029 16.5756 20.3029 16.5903C24.1848 14.9496 27.1633 15.77 25.8694 19.1001C25.6887 19.5591 25.9231 19.6323 26.2746 19.7397C32.9007 21.8052 27.9739 30.2477 17.9884 30.2477ZM25.0051 23.104C24.7414 20.3843 21.172 18.5141 17.0265 18.9194C12.8858 19.3393 9.76077 21.8638 10.0244 24.5836C10.2881 27.3033 13.8575 29.1734 18.0031 28.7682C22.1437 28.3482 25.2688 25.8238 25.0051 23.104ZM24.4875 10.1498C23.2228 10.4232 23.6672 12.2836 24.8928 12.0199C28.4231 11.2777 31.4749 14.5981 30.347 18.0747C29.9856 19.2563 31.7679 19.8813 32.1731 18.6606C33.7308 13.7875 29.4827 9.09508 24.4875 10.1498ZM20.6545 25.3355C19.8195 27.2301 17.3927 28.2652 15.3272 27.5963C13.335 26.9566 12.4952 24.9888 13.3594 23.2163C14.2237 21.4878 16.4405 20.5112 18.4083 21.0142C20.4591 21.5415 21.4894 23.4654 20.6545 25.3355ZM16.4405 23.8707C15.8106 23.607 14.9757 23.8853 14.585 24.5005C14.1798 25.1304 14.3751 25.8677 15.005 26.1607C15.6446 26.4537 16.5089 26.1754 16.9142 25.5308C17.3048 24.8912 17.0948 24.149 16.4405 23.8707ZM18.0324 23.2163C17.7833 23.1333 17.4757 23.2456 17.3341 23.48C17.1925 23.729 17.2657 23.9976 17.5148 24.1099C17.7638 24.2076 18.0861 24.0953 18.2277 23.8462C18.3644 23.5923 18.2814 23.314 18.0324 23.2163Z" fill="white"/>
</svg>
