<svg width="40" height="40" viewBox="0 0 40 40" fill="none" xmlns="http://www.w3.org/2000/svg">
<circle cx="20" cy="20" r="20" fill="white" fill-opacity="0.2"/>
<path d="M31.9765 13.8663C31.835 13.3614 31.5593 12.9043 31.1787 12.5435C30.7874 12.1717 30.3078 11.9057 29.7851 11.7707C27.8292 11.2552 19.9927 11.2552 19.9927 11.2552C16.7258 11.218 13.4597 11.3815 10.2128 11.7447C9.69013 11.8897 9.21142 12.1616 8.81922 12.5362C8.43385 12.907 8.15472 13.3643 8.00891 13.8652C7.65864 15.7522 7.48845 17.6682 7.50064 19.5874C7.48814 21.5048 7.65791 23.4202 8.00891 25.3095C8.1516 25.8084 8.42968 26.2636 8.81609 26.6312C9.2025 26.9989 9.68368 27.2645 10.2128 27.4051C12.1948 27.9196 19.9927 27.9196 19.9927 27.9196C23.2638 27.9568 26.5341 27.7933 29.7851 27.4301C30.3078 27.2951 30.7874 27.0291 31.1787 26.6573C31.5591 26.2966 31.8345 25.8394 31.9755 25.3345C32.3349 23.4483 32.5097 21.5315 32.4973 19.6113C32.5243 17.6831 32.3498 15.7572 31.9765 13.8652V13.8663ZM17.5014 23.1536V16.0222L24.0213 19.5884L17.5014 23.1536Z" fill="white"/>
</svg>
