<?xml version="1.0" standalone="no"?>
<!DOCTYPE svg PUBLIC "-//W3C//DTD SVG 20010904//EN"
 "http://www.w3.org/TR/2001/REC-SVG-20010904/DTD/svg10.dtd">
<svg version="1.0" xmlns="http://www.w3.org/2000/svg"
 width="476.000000pt" height="512.000000pt" viewBox="0 0 476.000000 512.000000"
 preserveAspectRatio="xMidYMid meet">

<g transform="translate(0.000000,512.000000) scale(0.100000,-0.100000)"
fill="#984247" stroke="none">
<path d="M720 4575 c0 -13 -22 -15 -140 -15 l-140 0 0 -80 0 -80 140 0 c133 0
140 -1 140 -20 0 -19 -7 -20 -140 -20 l-141 0 3 -77 3 -78 103 -3 102 -3 0
-250 0 -250 -26 -35 -26 -34 151 0 151 0 0 285 c0 278 0 285 20 285 20 0 20
-7 20 -285 l0 -285 125 0 125 0 0 285 0 285 105 0 105 0 0 80 0 80 -133 0
c-74 0 -136 3 -140 6 -3 3 -3 12 0 20 4 11 33 14 139 14 l134 0 0 80 0 80
-135 0 c-111 0 -137 3 -141 15 -5 13 -37 15 -205 15 -170 0 -199 -2 -199 -15z"/>
<path d="M2323 4449 c3 -31 19 -100 36 -152 19 -61 29 -107 25 -124 -4 -20 0
-36 14 -53 22 -27 33 -24 100 25 18 13 68 36 110 50 42 15 82 29 89 31 6 3 14
-9 18 -28 13 -58 33 -88 60 -88 31 0 31 -10 0 -57 -36 -52 -31 -96 10 -103 23
-4 31 -11 33 -30 7 -48 19 -41 26 15 3 31 15 74 26 95 28 55 25 98 -14 198
-19 48 -40 123 -46 167 -7 44 -16 84 -20 88 -10 11 -55 -97 -71 -168 -7 -33
-13 -61 -14 -63 -1 -1 -15 2 -31 9 -16 6 -65 12 -108 12 l-79 2 -45 65 c-25
36 -63 88 -85 115 l-40 50 6 -56z"/>
<path d="M3690 4264 c-154 -114 -341 -183 -557 -206 -62 -6 -113 -14 -113 -18
0 -21 218 -90 287 -90 51 0 149 29 243 72 114 53 190 80 243 87 31 4 57 4 57
0 0 -15 -289 -158 -370 -183 -47 -14 -127 -31 -177 -37 -51 -7 -93 -16 -93
-19 0 -16 150 -150 205 -182 91 -55 110 -87 129 -212 l12 -79 28 63 c19 42 31
87 34 130 4 60 2 68 -22 98 -17 19 -50 40 -87 53 -33 12 -58 24 -55 26 2 2 55
17 117 32 120 30 211 63 320 116 66 33 110 60 268 170 101 70 197 109 309 125
108 16 178 10 242 -22 66 -33 66 -8 -1 33 -70 43 -158 63 -279 62 -127 0 -237
-22 -348 -70 -81 -35 -83 -35 -122 -19 -50 20 -148 20 -220 1 -73 -20 -75 -19
-51 13 35 44 82 112 79 112 -2 -1 -37 -26 -78 -56z"/>
<path d="M447 4163 c-4 -3 -7 -125 -7 -270 l0 -263 59 0 c56 0 60 2 87 38 29
36 29 39 28 162 -1 69 -2 173 -3 233 l-1 107 -78 0 c-43 0 -82 -3 -85 -7z"/>
<path d="M1230 3900 l0 -270 85 0 85 0 0 270 0 270 -85 0 -85 0 0 -270z"/>
<path d="M2840 3787 c0 -19 19 -73 45 -127 80 -164 106 -291 81 -402 -19 -87
-56 -155 -125 -230 -36 -40 -51 -64 -51 -84 0 -16 -23 -69 -51 -119 -63 -112
-93 -184 -125 -301 -61 -226 -70 -390 -29 -539 48 -177 73 -250 79 -235 3 8
14 41 25 72 10 31 49 109 86 173 176 306 321 675 377 958 29 147 32 379 5 477
-48 175 -210 390 -294 390 -19 0 -23 -5 -23 -33z"/>
<path d="M3657 3713 l35 -58 -5 -125 c-6 -131 -34 -255 -78 -342 -11 -22 -18
-42 -16 -45 10 -9 107 133 129 190 13 31 26 57 31 57 16 0 20 -36 9 -89 -20
-96 -100 -242 -280 -507 -108 -161 -123 -184 -117 -184 2 0 36 28 74 63 53 48
104 80 215 135 80 39 148 72 151 72 19 0 157 103 213 160 115 114 164 220 127
276 -15 24 -22 26 -65 22 -49 -5 -130 -41 -187 -84 -17 -13 -34 -24 -37 -24
-4 0 -4 30 0 68 4 57 2 72 -16 100 -11 18 -34 38 -51 44 -29 10 -31 14 -26 45
8 46 -8 125 -35 181 -20 39 -81 102 -100 102 -3 0 9 -26 29 -57z"/>
<path d="M2128 3719 c-22 -12 -23 -28 -3 -65 28 -55 19 -121 -29 -217 -24 -48
-43 -87 -42 -87 7 0 119 174 136 212 27 59 27 144 1 158 -24 12 -41 12 -63 -1z"/>
<path d="M2489 3701 c-28 -19 -56 -49 -72 -79 -28 -52 -27 -62 7 -62 17 0 18
-2 6 -10 -8 -5 -25 -10 -37 -10 -15 0 -25 -9 -33 -34 -11 -34 -46 -74 -56 -64
-3 3 2 34 11 68 9 34 14 64 12 67 -3 2 -38 -53 -78 -124 -40 -70 -108 -181
-150 -246 -74 -115 -76 -118 -66 -156 8 -31 7 -48 -7 -84 -22 -58 -87 -123
-136 -138 -47 -14 -75 -6 -65 19 17 40 15 54 -3 22 -11 -19 -23 -49 -26 -66
-8 -37 8 -84 28 -84 10 0 21 -20 32 -57 20 -67 47 -95 123 -124 45 -17 68 -19
115 -14 92 10 127 46 156 161 8 34 21 50 69 85 54 40 135 124 174 179 13 19
18 19 64 10 35 -8 63 -8 98 0 54 12 136 53 160 80 15 17 12 18 -57 18 -40 0
-85 5 -100 11 -44 17 -114 92 -133 145 l-19 48 34 102 c18 55 35 106 37 113 3
6 -9 26 -26 44 -38 39 -39 49 -3 49 65 0 106 21 165 83 31 34 57 65 57 69 0 4
-14 2 -31 -4 -28 -10 -79 -7 -169 8 -28 4 -44 -1 -81 -25z"/>
<path d="M533 3558 c-9 -12 -83 -193 -83 -203 0 -3 83 -5 185 -5 117 0 185 4
185 10 0 6 42 10 105 10 l105 0 -16 -25 -16 -25 -277 -2 -276 -3 -3 -207 -2
-208 45 0 c25 0 45 -2 45 -5 0 -3 -20 -46 -45 -95 -36 -71 -45 -100 -45 -140
l0 -50 162 2 161 3 41 91 c23 50 52 114 64 142 13 29 28 50 33 46 5 -3 9 -68
9 -145 l0 -139 245 0 245 0 0 65 0 65 -90 0 -90 0 0 80 0 80 90 0 90 0 0 209
c0 200 -1 210 -20 213 -19 3 -19 3 0 47 14 29 20 65 20 112 l0 69 -239 0
c-149 0 -242 4 -246 10 -10 16 -370 13 -382 -2z m257 -438 c0 -28 -2 -30 -40
-30 -38 0 -40 2 -40 30 0 28 2 30 40 30 38 0 40 -2 40 -30z m340 0 c0 -28 -2
-30 -40 -30 -38 0 -40 2 -40 30 0 28 2 30 40 30 38 0 40 -2 40 -30z"/>
<path d="M4185 2999 c-327 -199 -531 -374 -739 -637 -362 -458 -610 -1034
-681 -1585 -24 -188 -19 -191 40 -27 39 109 127 326 150 370 8 14 31 61 52
105 131 275 313 584 498 845 25 36 53 76 62 90 69 102 359 470 478 605 143
162 253 295 243 295 -2 0 -48 -27 -103 -61z"/>
<path d="M1261 2826 c-6 -25 -11 -47 -11 -50 0 -3 34 -6 75 -6 l75 0 0 50 0
50 -64 0 -64 0 -11 -44z"/>
<path d="M530 2541 c0 -6 -19 -11 -42 -13 l-43 -3 -3 -67 -3 -68 41 0 c27 0
43 -5 46 -15 5 -12 33 -15 165 -15 135 0 159 2 159 15 0 12 14 15 70 15 54 0
72 -4 76 -15 9 -22 319 -22 328 0 3 8 9 15 13 14 4 -1 20 -1 36 0 27 1 27 2
27 71 l0 70 -40 0 c-22 0 -40 5 -40 10 0 6 -60 10 -160 10 -100 0 -160 -4
-160 -10 0 -6 -31 -10 -74 -10 -41 0 -78 5 -81 10 -8 13 -315 14 -315 1z"/>
<path d="M447 2333 c-4 -3 -7 -33 -7 -66 0 -50 3 -60 20 -64 15 -4 20 -14 20
-39 0 -27 -4 -34 -20 -34 -18 0 -20 -7 -20 -64 0 -55 3 -64 20 -69 29 -8 29
-67 0 -67 -19 0 -21 -5 -18 -67 l3 -68 163 -3 c124 -2 163 -5 159 -15 -3 -9
-49 -13 -165 -15 l-162 -2 0 -70 0 -70 160 0 c134 0 162 -3 166 -15 5 -12 32
-15 160 -15 130 0 154 2 154 15 0 13 24 15 160 15 l160 0 0 70 0 70 -160 0
c-136 0 -160 2 -160 15 0 13 24 15 160 15 l160 0 0 70 c0 62 -2 71 -17 68 -14
-2 -19 5 -21 30 -3 27 1 35 17 39 18 5 21 13 21 68 0 54 -3 63 -20 68 -14 3
-20 14 -20 32 0 18 6 29 20 32 18 5 20 14 20 74 l0 69 -473 0 c-261 0 -477 -3
-480 -7z m323 -169 c0 -34 -1 -35 -32 -32 -29 3 -33 7 -36 36 -3 31 -2 32 32
32 35 0 36 -1 36 -36z m368 4 c-2 -28 -8 -34 -30 -36 -26 -3 -28 -1 -28 32 0
33 2 36 31 36 28 0 30 -2 27 -32z m-370 -205 c3 -32 2 -33 -32 -33 -33 0 -36
3 -36 28 0 36 8 44 40 40 20 -2 26 -9 28 -35z m370 0 c3 -31 1 -33 -26 -33
-22 0 -31 6 -35 21 -9 33 3 50 32 47 21 -2 27 -9 29 -35z"/>
<path d="M467 1523 c-4 -3 -7 -118 -7 -254 l0 -249 23 -5 c12 -3 105 -5 207
-3 l185 3 3 258 2 257 -203 0 c-112 0 -207 -3 -210 -7z m253 -194 c0 -18 -5
-20 -47 -17 -36 2 -49 7 -51 21 -3 14 4 17 47 17 45 0 51 -3 51 -21z m-29
-109 c19 0 29 -5 29 -15 0 -11 -12 -15 -44 -15 -25 0 -48 5 -51 10 -9 15 5 32
22 26 8 -3 28 -6 44 -6z"/>
<path d="M910 1275 c0 -197 3 -255 13 -255 39 -2 145 -2 159 -1 10 1 18 11 20
29 3 24 7 27 41 27 45 1 55 -10 33 -34 -9 -10 -16 -19 -16 -22 0 -2 48 -4 108
-3 l107 0 0 255 0 254 -232 3 -233 2 0 -255z m280 100 c0 -11 -12 -15 -45 -15
-42 0 -54 7 -38 23 3 4 24 7 45 7 27 0 38 -4 38 -15z m0 -160 c0 -11 -11 -15
-39 -15 -38 0 -57 10 -44 24 3 3 24 6 45 6 27 0 38 -4 38 -15z"/>
<path d="M470 860 c0 -100 -3 -122 -15 -127 -12 -4 -15 -19 -14 -67 1 -33 4
-69 7 -78 4 -17 35 -18 478 -18 l474 0 0 85 c0 50 -4 85 -10 85 -6 0 -10 47
-10 120 l0 120 -455 0 -455 0 0 -120z m270 -80 c0 -36 -2 -40 -25 -40 -22 0
-25 4 -25 40 0 36 3 40 25 40 23 0 25 -4 25 -40z m210 0 c0 -36 -2 -40 -25
-40 -22 0 -25 4 -25 40 0 36 3 40 25 40 23 0 25 -4 25 -40z m210 -1 c0 -38 -1
-40 -27 -37 -47 5 -45 78 2 78 23 0 25 -4 25 -41z"/>
</g>
</svg>
