<?xml version="1.0" standalone="no"?>
<!DOCTYPE svg PUBLIC "-//W3C//DTD SVG 20010904//EN"
 "http://www.w3.org/TR/2001/REC-SVG-20010904/DTD/svg10.dtd">
<svg version="1.0" xmlns="http://www.w3.org/2000/svg"
 width="100%" height="100%" viewBox="0 0 1053 1053"
 preserveAspectRatio="xMidYMid meet">
<metadata>
Created by potrace 1.16, written by Peter Selinger 2001-2019
</metadata>
<g transform="translate(0.000000,1053.000000) scale(0.100000,-0.100000)"
fill="#000000" stroke="none">
<path d="M5164 9310 c-105 -22 -226 -117 -274 -215 -22 -44 -25 -63 -24 -155
0 -93 5 -118 38 -220 22 -67 40 -145 43 -187 l6 -71 -75 -144 c-98 -186 -243
-439 -436 -763 -176 -295 -237 -368 -354 -424 -119 -56 -116 -56 -848 -56
l-675 0 -50 29 c-27 16 -77 58 -110 94 -148 159 -176 184 -243 215 -60 29 -77
32 -157 32 -82 0 -97 -3 -156 -32 -245 -121 -299 -443 -104 -622 74 -67 141
-91 282 -101 127 -8 178 -28 240 -89 23 -23 96 -142 182 -297 79 -143 212
-371 294 -509 83 -137 163 -277 178 -310 43 -91 63 -179 63 -280 0 -165 -41
-266 -236 -585 -120 -197 -253 -426 -364 -630 -116 -214 -169 -253 -365 -269
-162 -13 -257 -56 -318 -144 -143 -209 -77 -469 149 -580 60 -30 72 -32 165
-32 147 0 186 24 376 233 67 74 153 118 256 133 38 5 320 9 643 8 622 -1 670
-5 777 -56 81 -38 168 -109 219 -177 26 -35 114 -179 196 -322 82 -142 221
-381 308 -530 185 -314 201 -355 176 -454 -9 -33 -26 -77 -39 -97 -53 -86 -71
-144 -71 -228 0 -69 5 -90 32 -148 38 -83 112 -159 190 -195 50 -24 69 -27
162 -27 95 0 110 3 163 28 125 62 206 179 215 311 5 88 -11 149 -73 278 -36
73 -45 102 -45 144 0 64 9 83 241 479 96 165 233 401 305 525 145 252 217 339
329 397 130 68 116 67 875 67 671 0 686 -1 730 -21 60 -27 110 -78 153 -155
44 -77 104 -139 165 -170 41 -20 62 -23 157 -23 98 0 116 3 167 27 80 37 152
107 191 187 30 61 32 73 32 166 0 93 -2 105 -32 166 -39 79 -102 141 -181 176
-44 21 -79 28 -168 33 -127 8 -193 32 -251 92 -17 18 -81 121 -141 228 -124
222 -156 276 -367 630 -179 300 -205 363 -212 505 -8 166 23 257 182 521 94
156 293 502 439 763 94 167 154 213 303 231 219 27 334 90 398 216 27 54 30
68 30 159 0 87 -3 107 -26 156 -87 184 -296 272 -489 204 -76 -26 -135 -78
-199 -174 -33 -48 -79 -105 -103 -125 -77 -66 -66 -65 -813 -57 l-670 8 -72
25 c-89 33 -165 80 -231 147 -65 65 -107 127 -212 316 -124 223 -254 448 -379
655 -123 204 -145 260 -139 355 3 50 13 82 53 161 l50 99 0 105 c0 95 -3 110
-27 156 -15 28 -39 65 -54 83 -79 94 -252 156 -370 131z m957 -2749 c172 -28
279 -152 279 -322 0 -55 -6 -82 -26 -124 -32 -68 -107 -137 -182 -167 -57 -23
-61 -23 -627 -28 l-570 -5 -48 -24 c-54 -26 -86 -63 -117 -135 -11 -27 -43
-87 -70 -132 -28 -45 -50 -84 -50 -88 0 -3 323 -7 718 -8 825 -4 773 2 873
-97 146 -147 135 -371 -24 -479 -101 -69 -66 -66 -859 -72 l-717 -5 87 -145
c117 -195 126 -206 178 -219 28 -7 222 -11 567 -11 336 0 545 -4 583 -11 129
-24 235 -106 269 -210 55 -164 -42 -373 -190 -414 -65 -17 -787 -27 -1215 -16
-245 6 -312 11 -341 24 -50 22 -136 88 -165 128 -103 138 -640 1046 -661 1118
-20 69 -13 143 20 214 13 28 125 223 249 432 124 209 264 446 311 526 103 174
155 228 251 258 58 19 95 20 741 20 374 1 705 -3 736 -8z"/>
</g>
</svg>
