<?xml version="1.0" standalone="no"?>
<!DOCTYPE svg PUBLIC "-//W3C//DTD SVG 20010904//EN"
 "http://www.w3.org/TR/2001/REC-SVG-20010904/DTD/svg10.dtd">
<svg width="20" height="16" viewBox="0 0 20 16" fill="none" xmlns="http://www.w3.org/2000/svg">
    <rect width="20" height="16" fill="#F5F5F5" />
    <g clip-path="url(#clip0_1_2)">
        <rect width="1440" height="7264" transform="translate(-162 -6895)" fill="white" />
        <rect width="1440" height="550" transform="translate(-162 -181)" fill="#1F1415" />
        <g clip-path="url(#clip1_1_2)">
            <path d="M18 0H2C0.9 0 0.00999999 0.9 0.00999999 2L0 14C0 15.1 0.9 16 2 16H18C19.1 16 20 15.1 20 14V2C20 0.9 19.1 0 18 0ZM18 4L10 9L2 4V2L10 7L18 2V4Z" fill="white" />
        </g>
    </g>
    <defs>
        <clipPath id="clip0_1_2">
            <rect width="1440" height="7264" fill="white" transform="translate(-162 -6895)" />
        </clipPath>
        <clipPath id="clip1_1_2">
            <rect width="24" height="24" fill="white" transform="translate(-2 -4)" />
        </clipPath>
    </defs>
</svg>
