<?xml version="1.0" standalone="no"?>
<!DOCTYPE svg PUBLIC "-//W3C//DTD SVG 20010904//EN"
 "http://www.w3.org/TR/2001/REC-SVG-20010904/DTD/svg10.dtd">
<svg version="1.0" xmlns="http://www.w3.org/2000/svg"
 width="2000.000000pt" height="2000.000000pt" viewBox="0 0 2000.000000 2000.000000"
 preserveAspectRatio="xMidYMid meet">

<g transform="translate(0.000000,2000.000000) scale(0.100000,-0.100000)"
fill="#000000" stroke="none">
<path d="M15630 18173 c-284 -43 -572 -201 -759 -416 -156 -179 -248 -362
-303 -609 -20 -89 -22 -125 -25 -816 l-4 -723 728 4 c707 3 731 4 825 25 304
69 557 224 742 453 120 151 198 307 249 498 29 109 30 127 31 306 0 166 -3
202 -23 285 -30 124 -91 279 -143 366 -278 465 -789 708 -1318 627z"/>
<path d="M10060 17400 c-302 -27 -577 -164 -844 -421 -129 -124 -136 -133
-751 -934 -142 -185 -266 -347 -346 -450 -47 -60 -186 -240 -309 -400 -123
-159 -284 -369 -359 -465 -74 -96 -208 -269 -297 -385 -89 -115 -312 -404
-495 -642 -184 -237 -527 -682 -764 -989 -236 -307 -488 -633 -560 -725 -71
-92 -185 -239 -252 -326 -67 -87 -187 -241 -265 -343 -79 -102 -180 -232 -224
-290 -87 -113 -420 -545 -623 -807 -70 -89 -181 -233 -248 -320 -67 -87 -187
-241 -265 -343 -79 -102 -180 -232 -224 -290 -77 -100 -315 -409 -601 -777
-73 -95 -133 -174 -133 -177 0 -4 470 -6 1044 -6 1105 0 1094 0 1266 46 201
55 482 183 655 299 302 203 467 370 871 876 163 206 320 403 349 439 52 65
476 602 785 994 484 613 1809 2294 2035 2582 349 444 509 647 632 801 l121
154 35 -43 c19 -24 168 -214 333 -423 266 -340 487 -621 856 -1090 65 -82 136
-172 158 -200 22 -27 135 -171 252 -320 116 -148 343 -436 503 -640 160 -203
377 -478 481 -611 104 -132 286 -363 404 -513 118 -150 242 -308 275 -351 33
-43 131 -167 217 -276 86 -110 334 -424 550 -699 346 -439 404 -508 478 -569
245 -199 554 -358 832 -430 215 -56 234 -56 1340 -54 l1017 3 -192 247 c-106
135 -361 463 -567 729 l-375 482 -5 2021 -6 2021 -22 125 c-96 530 -390 892
-872 1076 l-75 29 -652 3 -653 3 -2 -1165 -3 -1164 -370 476 c-591 761 -1095
1410 -1278 1647 -94 121 -194 249 -222 285 -29 36 -209 268 -400 515 -192 248
-387 500 -435 560 -181 230 -567 732 -594 773 -77 113 -274 263 -440 335 -215
93 -519 139 -766 117z"/>
<path d="M9950 11839 c-547 -88 -960 -484 -1077 -1030 -27 -129 -25 -372 5
-508 44 -194 117 -356 231 -508 32 -43 177 -195 322 -338 145 -143 368 -363
494 -488 l230 -227 165 168 c790 800 830 843 908 968 261 417 265 936 9 1364
-40 68 -145 196 -211 257 -252 236 -555 355 -895 352 -69 -1 -151 -5 -181 -10z"/>
<path d="M7850 7069 c-148 -40 -251 -98 -330 -187 -174 -195 -194 -483 -55
-781 19 -40 35 -78 35 -85 0 -6 -31 -31 -68 -56 -171 -115 -284 -270 -323
-445 -16 -76 -14 -230 5 -304 63 -243 268 -423 544 -477 139 -28 371 -20 522
17 120 30 283 101 366 161 l40 29 101 -51 c119 -59 248 -110 368 -145 135 -39
126 -43 164 88 18 61 46 155 62 208 16 53 29 100 29 105 0 5 -39 19 -86 31
-76 20 -227 79 -277 109 -17 10 -15 17 35 90 78 115 162 267 217 396 46 107
101 260 101 279 0 5 -110 9 -247 9 l-248 -1 -33 -103 c-44 -137 -153 -349
-218 -425 -11 -12 -188 133 -326 268 l-117 114 92 65 c137 97 263 229 314 327
48 94 63 157 63 263 0 149 -42 254 -140 352 -116 117 -238 161 -439 159 -64 0
-132 -5 -151 -10z m258 -370 c55 -35 73 -155 35 -240 -12 -26 -37 -64 -57 -87
-35 -38 -175 -142 -193 -142 -10 0 -40 72 -59 142 -54 203 54 377 216 348 19
-4 45 -13 58 -21z m-271 -1144 c85 -95 185 -193 293 -287 47 -41 62 -60 54
-68 -6 -6 -44 -23 -85 -38 -61 -21 -91 -26 -170 -26 -91 -1 -101 2 -165 34
-173 89 -201 278 -64 433 23 26 46 47 49 45 4 -2 43 -43 88 -93z"/>
<path d="M1660 5900 l0 -1140 275 0 275 0 0 1140 0 1140 -275 0 -275 0 0
-1140z"/>
<path d="M2449 7013 c12 -42 77 -258 131 -438 27 -88 80 -266 119 -395 39
-129 120 -401 182 -605 115 -383 157 -524 210 -707 l32 -108 331 0 332 0 17
63 c10 34 30 105 46 157 144 479 275 913 286 950 8 25 39 126 69 225 178 588
236 784 236 794 0 32 22 -4 85 -142 75 -164 78 -172 333 -717 93 -201 186
-400 206 -443 l36 -78 0 -405 0 -404 275 0 275 0 0 403 0 404 86 184 c47 101
117 249 154 329 37 80 105 224 150 320 45 96 110 236 145 310 102 221 137 294
146 313 9 16 -7 17 -278 17 l-288 0 -189 -502 c-104 -277 -190 -505 -192 -507
-8 -9 -18 14 -100 240 -65 178 -236 638 -281 757 -4 9 -123 12 -548 12 -509 0
-544 -1 -549 -17 -9 -32 -352 -1428 -402 -1635 -15 -65 -32 -118 -36 -118 -4
0 -12 17 -17 38 -29 108 -64 254 -96 392 -19 85 -102 421 -183 745 l-148 590
-292 3 -291 2 8 -27z"/>
<path d="M10765 7028 c-3 -7 -52 -166 -110 -353 -58 -187 -135 -432 -170 -545
-35 -113 -127 -410 -205 -660 -183 -590 -212 -682 -217 -697 -4 -10 55 -13
276 -13 l280 0 10 38 c5 20 31 120 56 222 25 102 50 202 56 223 l10 37 337 0
338 0 64 -257 65 -258 288 -3 c158 -1 287 0 287 3 0 7 -55 188 -126 410 -26
83 -55 177 -64 210 -10 33 -99 321 -198 640 -261 838 -312 1003 -312 1009 0 3
-149 6 -330 6 -256 0 -332 -3 -335 -12z m369 -568 c20 -85 69 -283 108 -440
39 -157 71 -291 72 -298 1 -10 -45 -13 -224 -12 -123 0 -226 2 -228 5 -2 2 26
122 62 267 53 214 104 427 152 638 8 37 17 15 58 -160z"/>
<path d="M12370 5900 l0 -1140 266 0 266 0 -5 488 c-5 481 -10 563 -52 929 -9
78 -15 152 -13 165 5 26 5 27 142 -282 48 -107 160 -337 249 -510 89 -173 216
-421 282 -550 l120 -235 283 -3 282 -2 0 1140 0 1140 -261 0 -261 0 5 -547 c4
-512 6 -562 30 -763 15 -118 29 -232 33 -252 3 -21 2 -38 -3 -38 -4 0 -55 107
-112 238 -57 130 -138 302 -179 382 -89 173 -198 382 -322 620 -50 96 -112
217 -138 268 l-47 92 -282 0 -283 0 0 -1140z"/>
<path d="M14720 5900 l0 -1140 261 0 261 0 -5 523 c-4 501 -5 533 -35 797 -28
247 -31 293 -18 279 2 -2 52 -112 111 -244 94 -210 234 -493 450 -910 34 -66
99 -193 145 -282 l83 -163 279 0 278 0 0 1140 0 1140 -261 0 -261 0 5 -512 c5
-515 10 -601 52 -931 9 -70 15 -134 13 -143 -4 -21 -8 -13 -74 136 -25 58 -52
119 -59 135 -8 17 -35 77 -60 135 -42 94 -163 333 -235 465 -15 28 -81 154
-146 280 -65 127 -141 275 -170 330 l-53 100 -280 3 -281 2 0 -1140z"/>
<path d="M17450 6933 c-18 -60 -79 -256 -135 -438 -188 -603 -276 -886 -301
-968 -57 -188 -39 -130 -168 -544 -36 -117 -66 -214 -66 -217 0 -3 125 -6 278
-6 l277 0 65 260 65 260 340 -2 339 -3 64 -257 65 -258 289 0 c228 0 289 3
285 13 -2 6 -82 262 -177 567 -201 647 -247 797 -365 1175 -48 154 -103 335
-124 402 l-36 123 -331 0 -331 0 -33 -107z m470 -758 c62 -251 111 -458 108
-460 -2 -2 -105 -5 -228 -5 -212 -1 -225 0 -222 17 2 10 34 142 72 293 37 151
85 350 106 443 21 92 41 167 45 167 4 0 57 -205 119 -455z"/>
<path d="M5100 3897 c0 -541 2 -555 67 -627 20 -23 50 -44 71 -50 47 -13 163
-13 197 0 22 8 26 15 21 38 -3 15 -11 57 -17 95 -6 39 -16 67 -23 66 -32 -4
-45 4 -55 32 -7 22 -11 181 -11 480 l0 449 -125 0 -125 0 0 -483z"/>
<path d="M13751 4304 c-170 -46 -303 -179 -357 -359 -26 -86 -26 -298 0 -375
84 -249 265 -370 536 -357 120 6 203 30 278 82 l47 32 3 256 2 257 -200 0
-200 0 0 -105 0 -105 85 0 85 0 0 -89 0 -89 -31 -11 c-71 -24 -177 -8 -244 38
-80 55 -116 142 -116 287 0 155 51 257 153 308 87 43 205 31 284 -29 l32 -25
68 81 67 80 -27 28 c-36 37 -115 80 -180 97 -66 18 -216 17 -285 -2z"/>
<path d="M1520 3766 l0 -536 130 0 130 0 0 190 0 190 59 0 60 0 54 -102 c30
-57 75 -141 99 -188 l45 -85 141 -3 c91 -2 142 1 142 8 0 5 -13 31 -28 57 -67
111 -192 340 -192 350 0 6 12 19 28 28 111 71 165 206 141 355 -20 123 -77
194 -198 242 -52 21 -73 23 -333 26 l-278 3 0 -535z m466 323 c64 -16 94 -56
94 -122 0 -108 -53 -149 -202 -155 l-98 -4 0 146 0 146 81 0 c44 0 100 -5 125
-11z"/>
<path d="M6510 3765 l0 -535 350 0 350 0 0 105 0 105 -220 0 -220 0 0 118 0
117 180 -3 180 -3 0 111 0 110 -180 0 -180 0 0 100 0 100 210 0 210 0 0 105 0
105 -340 0 -340 0 0 -535z"/>
<path d="M8749 4163 l-14 -108 -62 -9 -63 -9 0 -93 0 -94 54 0 54 0 4 -219 3
-218 35 -69 c32 -63 40 -71 100 -102 64 -34 66 -34 175 -30 61 3 122 10 137
16 24 10 26 14 18 44 -5 18 -14 58 -20 90 l-11 56 -59 -5 c-57 -6 -61 -4 -90
27 l-30 32 0 189 0 189 95 0 95 0 0 100 0 100 -95 0 -95 0 0 110 0 110 -109 0
-109 0 -13 -107z"/>
<path d="M10796 4243 c-3 -16 -8 -53 -11 -83 -12 -113 -8 -107 -81 -115 l-64
-7 0 -94 0 -94 59 0 60 0 3 -222 c3 -220 3 -224 31 -280 47 -96 125 -138 258
-138 88 0 179 16 179 32 0 6 -8 48 -17 93 l-17 83 -56 -5 c-46 -4 -59 -2 -82
16 -40 32 -48 77 -48 259 l0 162 100 0 100 0 0 100 0 99 -97 3 -98 3 -3 108
-3 107 -104 0 -103 0 -6 -27z"/>
<path d="M3028 4051 c-75 -24 -119 -53 -167 -108 -121 -137 -146 -359 -59
-531 32 -63 126 -146 195 -173 80 -31 219 -37 299 -14 70 20 164 65 164 79 0
9 -78 146 -83 146 -1 0 -27 -10 -57 -22 -143 -55 -279 -8 -314 109 l-7 23 243
2 243 3 3 99 c5 181 -56 306 -182 370 -75 39 -191 46 -278 17z m208 -215 c19
-19 34 -43 34 -54 0 -11 3 -27 6 -36 5 -14 -10 -16 -135 -16 -121 0 -141 2
-141 15 0 26 28 71 60 99 26 21 42 26 87 26 49 0 59 -4 89 -34z"/>
<path d="M4161 4060 c-56 -12 -166 -54 -208 -79 l-31 -20 40 -78 c23 -43 43
-80 44 -82 2 -2 32 8 66 22 149 63 253 50 273 -35 7 -25 5 -27 -42 -33 -26 -4
-82 -15 -124 -26 -200 -49 -282 -128 -282 -272 0 -141 85 -237 219 -245 83 -6
141 11 209 59 l55 38 6 -27 c3 -15 7 -33 10 -39 2 -9 33 -13 110 -13 l106 0
-4 298 c-4 273 -6 301 -25 349 -51 129 -135 184 -286 189 -51 2 -112 -1 -136
-6z m189 -529 c0 -68 0 -68 -38 -95 -49 -33 -122 -36 -152 -6 -38 38 -18 100
40 131 35 18 101 38 128 38 21 1 22 -3 22 -68z"/>
<path d="M7869 4056 c-110 -30 -180 -98 -201 -198 -14 -69 0 -129 44 -183 39
-47 81 -73 195 -119 103 -43 133 -66 133 -101 0 -41 -39 -58 -118 -53 -57 4
-78 11 -127 43 l-59 37 -20 -28 c-12 -15 -38 -52 -59 -81 l-38 -53 48 -30 c96
-61 146 -75 278 -75 116 0 123 1 187 33 71 35 110 76 133 143 34 95 3 207 -71
264 -21 17 -86 49 -144 72 -147 58 -175 88 -129 134 29 29 109 22 179 -14 29
-15 56 -27 60 -27 4 0 32 32 60 70 59 80 59 85 -19 125 -106 53 -230 69 -332
41z"/>
<path d="M9783 4050 c-58 -15 -185 -69 -201 -85 -4 -3 72 -150 84 -164 2 -2
38 11 80 29 126 52 228 40 253 -31 6 -18 10 -33 9 -35 -2 -1 -44 -9 -95 -18
-185 -32 -290 -89 -339 -184 -24 -47 -26 -60 -21 -123 12 -147 100 -229 246
-229 71 0 140 25 206 76 l34 26 7 -41 7 -41 109 0 110 0 -4 288 c-4 237 -8
297 -22 342 -20 63 -67 128 -112 158 -81 53 -222 66 -351 32z m227 -513 c0
-67 -12 -88 -67 -116 -33 -17 -103 -14 -125 6 -27 24 -24 84 6 112 24 23 123
59 164 60 21 1 22 -3 22 -62z"/>
<path d="M11863 4055 c-174 -54 -283 -216 -283 -420 0 -181 81 -318 230 -389
55 -26 80 -31 161 -34 71 -3 112 0 155 13 66 19 164 64 164 76 0 4 -19 39 -41
79 -32 54 -45 70 -58 65 -91 -38 -129 -46 -180 -40 -30 3 -70 13 -88 22 -35
16 -75 67 -88 111 l-6 22 233 0 c128 0 239 4 247 9 11 7 13 33 9 122 -6 143
-30 209 -104 285 -41 43 -63 56 -118 73 -77 24 -170 26 -233 6z m197 -212 c23
-20 33 -40 37 -70 l6 -43 -138 0 -137 0 6 30 c13 69 67 109 143 110 44 0 58
-5 83 -27z"/>
<path d="M15125 4046 c-46 -21 -135 -106 -135 -128 0 -5 -4 -6 -10 -3 -5 3
-10 21 -10 39 0 19 -3 48 -6 65 l-6 31 -104 0 -104 0 0 -410 0 -410 130 0 130
0 0 243 1 242 27 40 c15 22 43 50 62 63 30 21 45 23 107 20 l71 -3 12 75 c6
41 15 90 20 108 8 30 6 34 -16 43 -44 16 -116 10 -169 -15z"/>
<path d="M15928 4051 c-73 -24 -116 -51 -166 -105 -74 -80 -112 -184 -112
-306 0 -181 80 -317 232 -397 49 -25 62 -28 168 -28 111 0 117 1 179 33 81 43
146 110 185 192 30 62 31 70 31 195 0 113 -3 138 -24 190 -34 84 -133 183
-216 215 -83 32 -201 36 -277 11z m200 -215 c82 -70 83 -321 1 -390 -23 -20
-42 -26 -78 -26 -93 0 -134 63 -135 210 -1 110 14 162 57 202 40 38 112 39
155 4z"/>
<path d="M18521 4059 c-19 -6 -60 -28 -92 -49 l-57 -38 -9 36 -9 37 -107 3
-107 3 0 -561 0 -560 131 0 131 0 -4 175 c-2 96 -2 175 -1 175 1 0 25 -15 54
-32 43 -28 64 -33 125 -36 61 -4 81 0 128 21 170 78 257 294 215 536 -33 185
-137 290 -294 297 -38 2 -85 -1 -104 -7z m69 -214 c51 -26 70 -80 69 -192 0
-120 -19 -177 -68 -210 -42 -28 -91 -29 -148 -3 l-43 19 0 170 0 169 47 31
c52 35 97 40 143 16z"/>
<path d="M16902 3728 c3 -316 4 -324 27 -376 27 -61 96 -127 142 -136 112 -22
216 6 298 79 23 21 44 36 47 33 2 -3 8 -25 12 -49 l8 -44 107 -3 107 -3 0 411
0 410 -130 0 -130 0 0 -269 c0 -257 -1 -269 -21 -295 -45 -57 -147 -77 -185
-35 -18 20 -19 42 -22 310 l-3 289 -130 0 -130 0 3 -322z"/>
</g>
</svg>
