<svg xmlns="http://www.w3.org/2000/svg" viewBox="0 0 1063 891" width="270" height="226"><style>tspan { white-space:pre }.shp0 { fill: #020266 } .shp1 { fill: #37a57b } .shp2 { fill: #7b375e } .shp3 { fill: #fbce5b } .shp4 { fill: #48d6a4 } </style><g ><path class="shp0" d="M1029.91 576.84L1017.98 549.22L1021.6 548.88L1021.6 515.74L1021.6 484.37L1021.6 444.57L1009.79 445.62L1009.47 421.25L1008.94 381.82L969.68 385.46L956.68 386.67L974.87 350.44L981 338.24L994.6 339.42L1063.08 345.39L1029.57 285.37L1022.42 272.57L1017.97 264.6L1017.97 264.6L1015.06 259.39L1014.34 258.1L1002.22 236.39L1001.47 235.06L1000.75 233.76L994.22 222.06L986.31 207.9L986.31 207.9L974.42 186.61L949.83 142.58L932.08 110.78L932.08 110.78L915.86 81.76L888.42 32.61L870.66 0.81L838.85 18.57L783.41 49.53L751.61 67.29L769.37 99.09L783.03 123.55L783.02 123.56L800.79 155.36L801.84 157.25L790.22 163.74L787.85 165.06L775.34 142.65L743.53 160.41L733.14 166.21L743.92 146.56L760.74 115.9L730.8 97.84L613.52 27.12L580.69 7.32L562.59 41.11L559.07 47.68L555.9 41.66L537.34 6.43L503.89 28.04L405.81 91.42L405.81 75.09L368.88 75.59L350.32 75.85L350.32 71.46L350.32 34.79L313.65 35.03L246.39 35.47L210.2 35.71L210.2 71.9L210.2 77.75L191.07 78.02L155.14 78.5L155.14 96.06L56.03 97.7L20.2 98.3L20.2 134.13L20.2 171.32L20.2 208.58L32.33 208.31L7.99 321.47L0.55 356.05L34.9 364.5L38.9 365.49C44.68 378.27 52.9 389.31 63.48 398.47C79.77 412.62 99.45 420.14 120.35 420.14C122.07 420.14 123.84 420.09 125.58 419.99C132.56 419.58 139.35 418.39 145.89 416.45L145.89 429.25L145.89 451.86L62.17 458.31L28.54 460.9L28.54 494.63L28.54 848.81L28.54 890.5L69.84 884.91L92.94 881.79L92.94 881.79L111.01 879.35L123.79 877.62L155.34 873.36L204.09 866.77L217.58 864.94L269.53 866.05L302.77 866.75L303.59 859.48L304.07 859.41L383.95 848.53L415.46 844.24L415.46 812.43L415.46 803.35L419.33 802.85L587.87 781.08L666.36 819.52L718.83 845.22L718.81 786.8L718.81 785.9L727.28 787.35L787.09 797.56L819.73 803.13L825.11 783.25L859.99 778.53L981.69 762.07L1013.24 757.8L1013.24 725.97L1013.24 632.56L1013.24 591.61L998.49 593.34L1000.02 592.54L1029.91 576.84Z" /><g ><g ><path class="shp1" d="M815.31 92.35L829.25 117.32L848.93 106.33L841.33 92.72L846.97 89.58L861.27 115.19L839.03 127.61L823.61 120.47L802.97 83.49L858.41 52.53L885.85 101.67L880.21 104.82L859.48 67.68L815.31 92.35Z" /></g><g ><path class="shp1" d="M846.72 148.62L860.67 173.59L880.35 162.6L872.75 148.99L878.39 145.85L892.69 171.46L870.45 183.88L855.03 176.74L834.38 139.76L889.83 108.8L917.27 157.94L911.64 161.09L890.9 123.95L846.72 148.62Z" /></g><g ><path class="shp1" d="M944.4 206.52L938.77 209.67L930.05 194.06L880.24 221.88L873.09 209.07L922.9 181.26L914.18 165.65L919.82 162.5L944.4 206.52Z" /></g><g ><path class="shp1" d="M972.2 256.31L938.74 248.64L916.45 286.71L909.03 273.42L925.93 245.81L916.89 243.73L898.25 254.13L891.1 241.33L946.55 210.37L953.7 223.17L932.81 234.83L964.2 241.98L972.2 256.31Z" /></g><g ><path class="shp1" d="M999.55 305.29L961.33 301.96L944.11 336.25L936.96 323.44L948.36 300.8L923.1 298.63L915.95 285.83L954.18 289.16L971.39 254.87L978.55 267.67L967.22 290.27L992.4 292.48L999.55 305.29Z" /></g><g ><path class="shp1" d="M763.08 194.38L769.38 205.66L758.79 211.58L752.49 200.29L763.08 194.38Z" /></g><g ><path fill-rule="evenodd" class="shp1" d="M839.01 229.57L837 246.44L798.98 267.67L783.56 260.54L769.75 235.8L771.76 218.93L809.78 197.7L825.2 204.84L839.01 229.57ZM789.2 257.39L833.37 232.72L819.56 207.99L775.39 232.65L789.2 257.39Z" /></g><g ><path fill-rule="evenodd" class="shp1" d="M843.96 314.16L839.49 306.16L820.21 326.16L813.2 313.6L832.52 293.67L824.66 279.58L801.44 292.55L794.74 280.54L850.18 249.58L869.49 284.15L867.48 301.03L843.96 314.16ZM851.25 264.73L830.29 276.44L842.89 299.01L863.85 287.3L851.25 264.73Z" /></g><g ><path class="shp1" d="M837.15 343.27L851.1 368.24L870.78 357.25L863.18 343.64L868.82 340.5L883.12 366.11L860.88 378.52L845.47 371.38L824.82 334.41L880.26 303.44L907.7 352.59L902.07 355.74L881.33 318.6L837.15 343.27Z" /></g></g><g ><g ><path fill-rule="evenodd" class="shp2" d="M123.47 256.67C139.16 256.11 152.75 262.13 164.24 274.69C175.45 287.22 181.06 302.53 181.06 320.66C181.06 339.12 175.45 355.12 164.24 368.7C152.75 382.34 139.16 389.64 123.47 390.55C110.02 391.33 97.96 387.1 87.32 377.85C76.95 368.87 70.22 356.87 67.14 341.85L43.6 336.06L77.65 177.77L56.63 178.25L56.63 141.06L171.81 139.15L171.81 175.64L138.18 176.4L120.95 256.76L123.47 256.67ZM139.02 322.63C139.02 310.89 133.83 305.25 123.47 305.71C113.1 306.17 107.91 312.29 107.91 324.09C107.91 336.22 113.1 342.03 123.47 341.51C133.83 340.99 139.02 334.7 139.02 322.63ZM313.89 209.47L378.2 207.6L378.2 242.83L182.32 249.7L182.32 213.28L246.63 211.42L246.63 156.65L191.57 157.74L191.57 121.37L246.63 120.62L246.63 78.83L313.89 78.39L313.89 119.71L369.38 118.95L369.38 154.23L313.89 155.32L313.89 209.47ZM313.89 341.02L313.89 391.84L378.2 387.96L378.2 423.19L182.32 436.18L182.32 399.76L246.63 395.89L246.63 344.48L191.57 347.32L191.57 310.95L246.63 308.45L246.63 258.49L313.89 256.01L313.89 305.4L369.38 302.88L369.38 338.16L313.89 341.02Z" /></g><g ><path fill-rule="evenodd" class="shp2" d="M559.82 153.2L721.23 237.42L700.22 281.2L559.82 209.16L419 293.63L397.98 249.16L559.82 153.2ZM547.63 111.05L430.35 187.01L406.39 141.35L523.67 65.56L547.63 111.05ZM435.81 416.58L435.81 290.56L682.98 279.74L682.98 400.31L435.81 416.58ZM498.86 322.29L498.86 377.94L619.93 370.71L619.93 316.26L498.86 322.29ZM711.98 135.97L687.6 180.41L570.33 110.76L594.71 65.24L711.98 135.97Z" /></g><g ><path fill-rule="evenodd" class="shp2" d="M64.96 501.56L199.21 491.22L199.21 837.6L129.37 847.04L129.37 810.48L145.26 808.43L145.26 531.83L118.91 534.02L118.91 602.38L136.89 600.68L136.89 637.19L118.91 638.99L118.91 706.86L136.89 704.85L136.89 741.36L118.91 743.48L118.91 848.45L64.96 855.75L64.96 501.56ZM215.52 835.39L230.15 700.66L285.36 702.98L270.3 836.56L215.52 835.39ZM376.1 524.33L376.1 671.11L215.93 688.81L215.93 537.97L228.48 536.9L218.44 501.74L277.83 475.65L293.72 531.35L297.48 531.03L313.37 472.97L372.34 489.57L362.3 525.51L376.1 524.33ZM316.3 642.3L316.3 564.85L275.74 568.55L275.74 646.54L316.3 642.3ZM358.96 786.94L379.03 784.32L379.03 819.36L299.16 830.25L299.16 693.83L358.96 687.07L358.96 786.94Z" /></g><g ><path fill-rule="evenodd" class="shp2" d="M682.38 793.74L594.06 750.48L414.66 773.65L414.66 510.84L682.31 488.53L682.38 793.74ZM477.39 731.1L619.58 713.61L619.58 527.34L477.39 540.05L477.39 731.1Z" /></g><g ><path class="shp2" d="M985.17 491.31L985.17 522.67L964.68 524.61L983.08 567.22L929.97 595.11L902.37 530.52L883.13 532.35L883.13 593.76L820.4 600.43L820.4 538.3L802.42 540L774.82 611.82L721.71 594.24L740.11 545.91L717.94 548.01L717.94 515.03L820.4 505.93L820.4 475.29L730.07 484.11L729.65 451.23L973.04 428.67L973.46 460.07L883.13 468.81L883.13 500.36L985.17 491.31ZM955.48 596.99L938.33 644L976.81 639.49L976.81 732.9L855.11 749.36L855.11 717.21L914.49 709.54L914.49 678.59L861.8 685.09L878.95 637.31L727.56 654.66L727.56 621.74L955.48 596.99ZM733.41 758.37L760.6 657.42L820.4 668.18L793.22 768.58L733.41 758.37Z" /></g></g><g ><g ><path fill-rule="evenodd" class="shp3" d="M123.47 248.94C139.16 248.38 152.75 254.4 164.24 266.96C175.45 279.49 181.06 294.8 181.06 312.93C181.06 331.39 175.45 347.39 164.24 360.97C152.75 374.61 139.16 381.91 123.47 382.82C110.02 383.6 97.96 379.37 87.32 370.12C76.95 361.14 70.22 349.14 67.14 334.12L43.6 328.33L77.65 170.04L56.63 170.52L56.63 133.33L171.81 131.42L171.81 167.91L138.18 168.67L120.95 249.03L123.47 248.94ZM139.02 314.9C139.02 303.16 133.83 297.52 123.47 297.98C113.1 298.44 107.91 304.56 107.91 316.36C107.91 328.49 113.1 334.3 123.47 333.78C133.83 333.26 139.02 326.97 139.02 314.9ZM313.89 201.73L378.2 199.87L378.2 235.1L182.32 241.97L182.32 205.55L246.63 203.68L246.63 148.92L191.57 150.01L191.57 113.64L246.63 112.89L246.63 71.1L313.89 70.66L313.89 111.97L369.38 111.22L369.38 146.5L313.89 147.59L313.89 201.73ZM313.89 333.29L313.89 384.1L378.2 380.23L378.2 415.46L182.32 428.45L182.32 392.03L246.63 388.15L246.63 336.75L191.57 339.59L191.57 303.22L246.63 300.72L246.63 250.76L313.89 248.28L313.89 297.67L369.38 295.15L369.38 330.43L313.89 333.29Z" /></g><g ><path fill-rule="evenodd" class="shp3" d="M559.82 145.47L721.23 229.69L700.22 273.47L559.82 201.43L419 285.9L397.98 241.42L559.82 145.47ZM547.63 103.32L430.35 179.27L406.39 133.62L523.67 57.83L547.63 103.32ZM435.81 408.85L435.81 282.83L682.98 272.01L682.98 392.58L435.81 408.85ZM498.86 314.56L498.86 370.21L619.93 362.98L619.93 308.52L498.86 314.56ZM711.98 128.23L687.6 172.67L570.33 103.03L594.71 57.51L711.98 128.23Z" /></g><g ><path fill-rule="evenodd" class="shp3" d="M64.96 493.83L199.21 483.48L199.21 829.87L129.37 839.31L129.37 802.75L145.26 800.7L145.26 524.1L118.91 526.29L118.91 594.64L136.89 592.95L136.89 629.46L118.91 631.26L118.91 699.13L136.89 697.12L136.89 733.63L118.91 735.75L118.91 840.72L64.96 848.01L64.96 493.83ZM215.52 827.66L230.15 692.93L285.36 695.25L270.3 828.83L215.52 827.66ZM376.1 516.6L376.1 663.38L215.93 681.08L215.93 530.24L228.48 529.17L218.44 494.01L277.83 467.92L293.72 523.62L297.48 523.3L313.37 465.24L372.34 481.84L362.3 517.78L376.1 516.6ZM316.3 634.57L316.3 557.11L275.74 560.81L275.74 638.81L316.3 634.57ZM358.96 779.21L379.03 776.59L379.03 811.63L299.16 822.52L299.16 686.1L358.96 679.34L358.96 779.21Z" /></g><g ><path fill-rule="evenodd" class="shp3" d="M682.38 786.01L594.06 742.75L414.66 765.92L414.66 503.1L682.31 480.8L682.38 786.01ZM477.39 723.37L619.58 705.88L619.58 519.61L477.39 532.32L477.39 723.37Z" /></g><g ><path class="shp3" d="M985.17 483.57L985.17 514.94L964.68 516.88L983.08 559.49L929.97 587.38L902.37 522.79L883.13 524.62L883.13 586.02L820.4 592.7L820.4 530.56L802.42 532.27L774.82 604.09L721.71 586.51L740.11 538.18L717.94 540.28L717.94 507.29L820.4 498.2L820.4 467.56L730.07 476.38L729.65 443.5L973.04 420.94L973.46 452.34L883.13 461.08L883.13 492.63L985.17 483.57ZM955.48 589.26L938.33 636.27L976.81 631.76L976.81 725.17L855.11 741.63L855.11 709.48L914.49 701.8L914.49 670.86L861.8 677.36L878.95 629.58L727.56 646.93L727.56 614L955.48 589.26ZM733.41 750.64L760.6 649.69L820.4 660.45L793.22 760.85L733.41 750.64Z" /></g></g><g ><g ><path class="shp4" d="M813.51 89.39L827.46 114.37L847.14 103.37L839.54 89.77L845.17 86.62L859.48 112.23L837.24 124.65L821.82 117.51L801.17 80.53L856.61 49.57L884.06 98.72L878.42 101.86L857.69 64.73L813.51 89.39Z" /></g><g ><path class="shp4" d="M844.93 145.66L858.88 170.63L878.56 159.64L870.96 146.03L876.6 142.89L890.9 168.5L868.66 180.92L853.24 173.78L832.59 136.8L888.04 105.84L915.48 154.98L909.85 158.13L889.11 120.99L844.93 145.66Z" /></g><g ><path class="shp4" d="M942.61 203.57L936.97 206.71L928.26 191.1L878.45 218.92L871.3 206.11L921.11 178.3L912.39 162.69L918.03 159.55L942.61 203.57Z" /></g><g ><path class="shp4" d="M970.41 253.35L936.95 245.68L914.65 283.75L907.23 270.46L924.14 242.86L915.09 240.77L896.46 251.17L889.31 238.37L944.75 207.41L951.91 220.21L931.02 231.88L962.41 239.02L970.41 253.35Z" /></g><g ><path class="shp4" d="M997.76 302.33L959.53 299L942.32 333.29L935.16 320.49L946.57 297.84L921.31 295.68L914.16 282.87L952.38 286.2L969.6 251.91L976.75 264.72L965.42 287.31L990.61 289.53L997.76 302.33Z" /></g><g ><path class="shp4" d="M761.29 191.42L767.59 202.71L757 208.62L750.7 197.33L761.29 191.42Z" /></g><g ><path fill-rule="evenodd" class="shp4" d="M837.22 226.62L835.2 243.49L797.19 264.71L781.77 257.58L767.96 232.85L769.97 215.97L807.98 194.74L823.4 201.88L837.22 226.62ZM787.41 254.43L831.58 229.76L817.77 205.03L773.59 229.7L787.41 254.43Z" /></g><g ><path fill-rule="evenodd" class="shp4" d="M842.17 311.2L837.7 303.2L818.42 323.21L811.4 310.64L830.73 290.71L822.86 276.63L799.65 289.59L792.95 277.58L848.39 246.62L867.69 281.2L865.69 298.07L842.17 311.2ZM849.46 261.78L828.5 273.48L841.1 296.05L862.06 284.35L849.46 261.78Z" /></g><g ><path class="shp4" d="M835.36 340.31L849.31 365.28L868.99 354.29L861.39 340.68L867.03 337.54L881.33 363.15L859.09 375.57L843.67 368.43L823.02 331.45L878.47 300.49L905.91 349.63L900.28 352.78L879.54 315.64L835.36 340.31Z" /></g></g></g></svg>
