<svg xmlns="http://www.w3.org/2000/svg" xml:space="preserve" viewBox="0 0 4353 4353"><path fill="#FFF" d="M2444 4360H4.14V4.389h4355.222V4360zm1239.65-2794.382c3.735-4.689 7.606-9.278 11.187-14.082 54.466-73.07 74.543-154.875 62.446-244.968-3.736-27.825-11.016-54.78-18.707-81.664-4.392-15.353-9.07-30.624-13.402-45.993-3.965-14.068-7.655-28.213-11.434-42.333-1.89-7.06-3.697-14.141-5.56-21.208-3.556-13.496-7.058-27.007-10.712-40.476-2.606-9.606-5.494-19.135-8.13-28.733-3.52-12.825-6.854-25.701-10.398-38.52-1.77-6.401-4.003-12.676-5.724-19.09-9.637-35.924-19.192-71.87-28.75-107.816-2.045-7.688-4.199-15.355-5.949-23.111-13.162-58.343-34.225-113.268-69.19-162.35-29.106-40.858-64.097-74.69-110.7-95.183-4.801-2.111-9.112-5.46-13.416-8.56-66.013-47.546-139.508-67.283-220.472-59.77-9.24.858-18.61.821-27.9.548-27.414-.807-54.809-.294-81.247 7.548-24.22 7.183-48.743 12.957-73.273 18.832-30.674 7.346-58.647 21.394-86.564 35.52-69.008 34.916-131.002 79.123-182.257 137.571-1.637 1.867-3.766 3.302-6.319 5.502-21.804-16.57-42.907-32.718-64.132-48.705-18.091-13.628-35.836-27.79-54.592-40.446-39.72-26.802-84.089-39.516-131.858-39.873-46.417-.346-89.374 12.263-128.975 36.4-5.644 3.44-11.218 6.996-16.573 10.342-3.78-1.615-6.898-2.719-9.809-4.223-48.447-25.038-99.6-32.418-153.149-23.019-47.834 8.396-89.388 29.364-124.657 62.947-19.924 18.972-35.35 41.589-52.568 62.762-3.265 4.015-6.802 7.808-10.4 11.916-8.054-3.658-15.116-7.274-22.48-10.102-8.384-3.22-14.222-8.785-19.785-15.814-61.257-77.4-141.132-107.683-238.379-93.046-38.194 5.749-76.36 11.69-114.511 17.722-89.763 14.191-153.933 62.3-191.864 145.083-1.59 3.472-3.384 6.85-5.206 10.52-3.491-.453-6.112-.634-8.666-1.148-29.605-5.964-59.434-7.784-89.398-3.764-29.034 3.895-57.98 8.438-86.953 12.774-56.635 8.476-113.275 16.917-169.887 25.542-48.713 7.422-97.302 15.722-146.102 22.508-118.463 16.472-208.488 116.37-208.578 238.129-.029 39.33-.462 78.67.21 117.99.285 16.566 2.002 33.256 4.821 49.588 2.571 14.9 7.512 29.39 11.527 44.51-31.835 33.241-64.123 65.947-95.275 99.7-57.222 62-78.15 134.931-61.688 217.76 10.76 54.137 38.504 98.803 80.078 134.947 23.13 20.11 46.39 40.07 69.465 60.242 21.527 18.818 42.69 38.08 67.226 51.182 4.591 17.442 7.895 33.833 13.308 49.496 5.632 16.3 13.385 31.862 19.975 47.843.87 2.109.345 4.792.48 7.502-24.736 3.699-48.44 7.184-72.126 10.795-58.59 8.932-117.197 17.752-175.74 26.975-21.68 3.415-43.582 6.395-64.73 12.022-140.607 37.413-225.23 162.611-225.428 288.592-.372 236.652-.104 473.306-.116 709.959-.001 21.458 3.165 42.412 9.054 63.053 32.615 114.333 146.995 192.172 273.787 171.403 41.39-6.78 82.672-14.227 124.055-21.049 32.592-5.372 62.961-16.455 91.073-33.79 5.013-3.09 10.18-5.93 14.463-8.414 18.65 4.81 18.64 4.819 31.666 17.312 1.92 1.84 4.03 3.482 5.955 5.317 23.514 22.402 51.702 37.34 80.994 50.403 43.587 19.438 85.562 42.397 131.158 58.83-2.041 31.413-.36 61.929 7.146 91.795 2.695 10.723 2.344 20.492-1.273 30.9-12.277 35.328-14.46 71.988-9.41 108.57 7.624 55.217 31.746 102.855 72.578 141.191 46.057 43.242 100.589 66.235 164.241 67.043 24.837.315 49.025-4.185 73.464-7.238 33.672-4.207 66.748-11.8 100.476-15.902 46.224-5.623 92.133-13.816 138.192-20.812 48.042-7.296 96.134-14.273 144.14-21.797 23.005-3.606 45.966-7.671 68.732-12.535 7.868-1.68 15.413-3.06 23.515-3.01 18.643.114 37.42.571 55.91-1.353 34.585-3.597 68.093-12.277 99.963-26.483 6.933-3.09 13.64-4.314 21.233-3.246 48.47 6.822 95.688-.147 141.806-14.868 17.833-5.693 35.193-11.598 54.275-10.217 5.213.378 10.557-1.167 15.85-1.745 44.281-4.838 87.365-17.424 131.933-20.404.661-.045 1.31-.24 1.97-.342 28.278-4.402 56.536-8.935 84.84-13.166 31.607-4.724 63.282-8.997 94.879-13.784 48.043-7.278 95.997-15.161 144.082-22.148 31.757-4.613 62.96-11.077 92.484-23.908 8.37-3.638 16.346-4.344 25.19-2.822 18.517 3.187 37.128 2.776 55.71-.006 22.388-3.351 44.808-6.5 67.195-9.864 122.357-18.387 202.41-118.948 206.536-225.445.85-21.965.81-43.973.736-65.96-.03-8.8 1.245-17.106 4.247-25.382 8.394-23.145 16.48-46.403 24.611-69.644s16.897-46.304 19.768-71.032c.284-2.447 2.02-4.726 3.238-7.43 33.08-3.707 64.01-13.469 92.26-28.637 5.011 1.082 8.95 1.765 12.798 2.789 34.664 9.217 69.62 10.199 104.877 3.994 68.835-12.115 137.67-24.232 206.524-36.246 101.648-17.738 203.334-35.266 304.957-53.145 31.8-5.594 61.272-17.417 88.572-34.826 80.817-51.535 127.493-151.608 105.872-254.84-22.443-107.157-114.792-183.065-214.576-190.72-15.23-1.167-30.443-2.575-45.99-3.9-1.489-4.746-3.035-9.108-4.226-13.565a58561 58561 0 0 1-31.847-119.584c-58.31-219.995-116.497-440.022-175.074-659.945-5.391-20.241-8.552-40.177-4.158-61.649 21.679-16.807 42.243-35.732 62.554-59.02"/><path fill="#17100A" d="M3682.714 1566.68c-19.376 22.225-39.94 41.15-61.619 57.957-4.394 21.472-1.233 41.408 4.158 61.65 58.577 219.922 116.764 439.95 175.074 659.944a58561 58561 0 0 0 31.847 119.584c1.191 4.457 2.737 8.82 4.226 13.565 15.547 1.325 30.76 2.733 45.99 3.9 99.784 7.655 192.133 83.563 214.576 190.72 21.621 103.232-25.055 203.305-105.872 254.84-27.3 17.409-56.772 29.232-88.572 34.826-101.623 17.879-203.309 35.407-304.957 53.145-68.853 12.014-137.689 24.131-206.524 36.246-35.256 6.205-70.213 5.223-104.877-3.994-3.849-1.024-7.787-1.707-12.797-2.79-28.251 15.17-59.18 24.931-92.26 28.637-1.22 2.705-2.955 4.984-3.24 7.431-2.87 24.728-11.635 47.79-19.767 71.032-8.131 23.24-16.217 46.499-24.611 69.644-3.002 8.276-4.277 16.582-4.247 25.382.073 21.987.114 43.995-.736 65.96-4.126 106.497-84.179 207.058-206.536 225.445-22.387 3.364-44.807 6.513-67.196 9.864-18.58 2.782-37.192 3.193-55.708.006-8.845-1.522-16.82-.816-25.191 2.822-29.524 12.83-60.727 19.295-92.484 23.908-48.085 6.987-96.039 14.87-144.082 22.148-31.597 4.787-63.272 9.06-94.879 13.784-28.304 4.231-56.562 8.764-84.84 13.166-.66.102-1.309.297-1.97.342-44.568 2.98-87.652 15.566-131.933 20.404-5.293.578-10.637 2.123-15.85 1.745-19.082-1.381-36.442 4.524-54.275 10.217-46.118 14.72-93.337 21.69-141.806 14.868-7.593-1.068-14.3.155-21.233 3.246-31.87 14.206-65.378 22.886-99.963 26.483-18.49 1.924-37.267 1.467-55.91 1.353-8.102-.05-15.647 1.33-23.515 3.01-22.766 4.864-45.727 8.93-68.732 12.535-48.006 7.524-96.098 14.5-144.14 21.797-46.059 6.996-91.968 15.19-138.192 20.812-33.728 4.103-66.804 11.695-100.476 15.902-24.44 3.053-48.627 7.553-73.464 7.238-63.652-.808-118.184-23.801-164.241-67.043-40.832-38.336-64.954-85.974-72.578-141.19-5.05-36.583-2.867-73.243 9.41-108.57 3.617-10.41 3.968-20.178 1.273-30.901-7.506-29.866-9.187-60.382-7.146-91.796-45.596-16.432-87.571-39.391-131.158-58.829-29.292-13.062-57.48-28.001-80.994-50.403-1.926-1.835-4.035-3.476-5.955-5.317-13.026-12.493-13.017-12.503-31.666-17.312-4.283 2.484-9.45 5.324-14.463 8.415-28.112 17.334-58.48 28.417-91.073 33.79-41.383 6.82-82.664 14.268-124.055 21.048-126.792 20.769-241.172-57.07-273.787-171.403-5.889-20.64-9.055-41.595-9.054-63.053.012-236.653-.256-473.307.116-709.959.199-125.98 84.821-251.179 225.427-288.592 21.15-5.627 43.052-8.607 64.73-12.022 58.544-9.223 117.151-18.043 175.74-26.975 23.687-3.61 47.391-7.096 72.128-10.795-.136-2.71.388-5.393-.481-7.502-6.59-15.981-14.343-31.543-19.975-47.843-5.413-15.663-8.717-32.054-13.308-49.496-24.536-13.102-45.699-32.364-67.226-51.182-23.075-20.172-46.335-40.132-69.465-60.242-41.574-36.144-69.318-80.81-80.078-134.948-16.463-82.828 4.466-155.759 61.688-217.759 31.152-33.753 63.44-66.459 95.275-99.7-4.015-15.12-8.956-29.61-11.527-44.51-2.819-16.332-4.536-33.022-4.82-49.589-.673-39.32-.24-78.658-.21-117.99.09-121.757 90.114-221.656 208.577-238.128 48.8-6.786 97.389-15.086 146.102-22.508 56.612-8.625 113.252-17.066 169.887-25.542 28.973-4.336 57.92-8.88 86.953-12.774 29.964-4.02 59.793-2.2 89.398 3.764 2.554.514 5.175.695 8.666 1.148 1.822-3.67 3.615-7.048 5.206-10.52 37.93-82.783 102.1-130.892 191.864-145.083 38.15-6.031 76.317-11.973 114.511-17.722 97.247-14.637 177.122 15.647 238.38 93.046 5.562 7.029 11.4 12.594 19.783 15.814 7.365 2.828 14.427 6.444 22.481 10.102 3.598-4.108 7.135-7.901 10.4-11.916 17.217-21.173 32.644-43.79 52.568-62.762 35.269-33.583 76.823-54.551 124.657-62.947 53.55-9.399 104.702-2.02 153.15 23.02 2.91 1.503 6.028 2.607 9.808 4.222 5.355-3.346 10.929-6.903 16.573-10.343 39.6-24.136 82.558-36.745 128.975-36.399 47.769.357 92.137 13.07 131.858 39.873 18.756 12.655 36.5 26.818 54.592 40.446 21.225 15.987 42.328 32.135 64.132 48.705 2.553-2.2 4.682-3.635 6.319-5.502 51.255-58.448 113.25-102.655 182.257-137.572 27.917-14.125 55.89-28.173 86.564-35.52 24.53-5.874 49.052-11.648 73.273-18.831 26.438-7.842 53.833-8.355 81.247-7.548 9.29.273 18.66.31 27.9-.548 80.964-7.513 154.46 12.224 220.472 59.77 4.304 3.1 8.615 6.449 13.416 8.56 46.603 20.494 81.594 54.325 110.7 95.183 34.965 49.082 56.028 104.007 69.19 162.35 1.75 7.756 3.904 15.423 5.948 23.11 9.56 35.946 19.114 71.893 28.751 107.818 1.72 6.413 3.955 12.688 5.724 19.09 3.544 12.818 6.877 25.694 10.399 38.52 2.635 9.597 5.523 19.126 8.129 28.732 3.654 13.47 7.156 26.98 10.712 40.476 1.863 7.067 3.67 14.148 5.56 21.208 3.779 14.12 7.469 28.265 11.434 42.333 4.332 15.369 9.01 30.64 13.402 45.993 7.69 26.885 14.971 53.839 18.707 81.664 12.097 90.093-7.98 171.898-62.446 244.968-3.581 4.804-7.452 9.393-12.123 15.143m-61.83-685.801c-2.993-12.97-5.648-26.028-9.034-38.894-15.82-60.108-41.858-114.972-83.195-162.047-20.044-22.825-43.154-41.669-70.47-54.926-10.859-5.27-20.96-11.418-30.787-18.343-55.27-38.948-116.796-58.05-184.318-53.799-25.296 1.592-50.495 2.039-75.761 2.323-22.875.258-44.913 4.725-66.528 12.14-10.021 3.437-20.408 6.099-30.83 8.017-21.74 4.002-42.861 10.016-62.825 19.359-22.905 10.72-45.812 21.595-67.902 33.872-62.336 34.646-117.59 78.076-162.25 134.214-1.557 1.956-3.833 3.34-6.055 5.228-5.942-4.331-11.35-8.128-16.605-12.126-35.533-27.039-70.756-54.495-106.604-81.11-78.375-58.191-181.84-58.884-261.312-2.262l-13.643 9.723c-5.89-3.208-11.662-6.365-17.445-9.5-44.414-24.064-91.92-31.626-141.321-23.39-55.396 9.237-100.994 36.5-136.177 80.547-14.558 18.225-28.747 36.743-43.22 55.036-2.774 3.507-6.09 6.585-8.817 9.5-15.302-7.614-29.342-15.273-43.963-21.586-7.114-3.071-12.04-7.381-16.722-13.334-9.45-12.014-18.807-24.417-30.018-34.676-51.038-46.7-111.037-67.305-180.084-57.805-44.857 6.173-89.647 13.047-134.238 20.905-76.29 13.445-131.09 55.845-164.65 125.622-3.166 6.582-5.38 13.616-8.254 20.347-3.561 8.34-8.15 10.92-17.302 9.717-3.282-.431-6.466-1.56-9.72-2.253-30.93-6.58-62.276-8.203-93.463-3.987-52.793 7.137-105.39 15.724-158.062 23.754-68.47 10.438-136.943 20.863-205.392 31.438-18.423 2.847-37.031 5.131-55.101 9.532-99.851 24.318-167.743 110.64-168.547 213.828-.296 37.991.22 75.989.012 113.982-.166 30.4 5.633 59.555 16.707 87.772 1.65 4.205 2.899 8.569 4.405 13.073-5.547 5.97-10.427 11.373-15.467 16.623-30.005 31.253-60.377 62.16-89.999 93.772-48.058 51.287-67.775 112.547-59.041 181.914 6.824 54.203 31.887 99.868 72.96 136.182 31.956 28.254 64.125 56.283 96.738 83.773 11.656 9.824 24.853 17.828 37.432 26.54 3.776 2.616 7.84 4.818 11.398 6.983.754 2.667 1.498 4.538 1.8 6.478 6.774 43.422 22.019 83.56 46.297 120.254 1.327 2.006 1.548 4.743 2.352 7.361-2.697.708-4.584 1.388-6.53 1.687-37.52 5.762-75.051 11.469-112.576 17.209-49.373 7.552-98.76 15.01-148.105 22.737-23.018 3.604-46.231 6.551-68.877 11.844-126.496 29.567-216.93 141.298-217.358 272.245-.768 234.63-.222 469.264-.22 703.897 0 34.628 8.208 67.301 23.818 98.108 50.158 98.989 154.306 131.088 227.383 118.7 44.65-7.568 89.338-14.916 133.955-22.67 34.001-5.91 65.056-19.052 93.08-39.284 3.147-2.273 6.594-4.13 9.304-5.81 8.105 2.596 14.977 5.147 22.036 6.972 9.257 2.392 16.775 6.685 23.424 13.984 19.073 20.937 42.151 36.632 67.764 48.65 25.925 12.163 51.79 24.456 77.739 36.566 26.532 12.381 52.662 25.792 81.44 32.594 1.135.268 2.063 1.413 3.088 2.152.334 1.268.961 2.539.946 3.801-.05 3.994-.226 7.993-.556 11.974-2.774 33.5-.946 66.67 8.843 98.95 2.587 8.533.594 15.42-2.155 23.027-15.614 43.22-17.855 87.122-6.157 131.66 27.48 104.621 127.78 174.845 237.307 163.453 19.854-2.065 39.563-5.656 59.275-8.927 22.324-3.703 44.5-8.36 66.876-11.678 47.426-7.03 94.975-13.23 142.411-20.197 49.425-7.259 98.815-14.78 148.146-22.652 28.242-4.507 56.856-7.103 84.349-15.852 4.866-1.548 10.489-1.432 15.696-1.087 52.864 3.503 103.554-5.461 152.018-26.64 9.454-4.13 18.439-5.768 28.885-4.584 47.683 5.403 94.515.776 139.859-15.28 15.184-5.375 30.101-10.486 46.533-8.775 3.26.34 6.663-.24 9.952-.723 19.112-2.81 38.225-5.626 57.31-8.615 32.152-5.035 63.871-12.106 96.488-15.107 38.395-3.533 76.4-11.285 114.586-17.126 56.627-8.663 113.252-17.336 169.902-25.85 44.134-6.632 88.525-12.115 129.545-31.514 5.021-2.375 10.167-1.813 15.588-1.476 17.256 1.074 34.586 2.236 51.837 1.707 13.914-.427 27.793-2.992 41.616-5.082 17.778-2.688 35.705-4.897 53.185-8.962 99.354-23.102 168.87-110.32 170.104-212.766.232-19.328.58-38.666.228-57.987-.186-10.215 1.802-19.721 5.198-29.23 10.971-30.723 21.683-61.54 32.503-92.318 5.766-16.4 9.88-33.153 11.336-50.537.433-5.175 1.626-10.287 2.609-16.272 7.185-.948 13.665-2.033 20.19-2.625 27.579-2.505 53.716-10.118 77.832-23.57 9.504-5.3 17.7-6.093 28.226-2.962 30.977 9.216 62.6 12.18 94.834 6.481 66.235-11.71 132.553-22.948 198.814-34.512 72.821-12.709 145.623-25.53 218.42-38.373 36.069-6.362 72.208-12.379 108.143-19.432 81.168-15.933 161.363-84.482 173.04-191.343 12.4-113.474-59.649-204-149.45-233.5-21.032-6.908-42.562-10.664-64.66-11.653-15.213-.681-30.557-.398-45.904-4.142-1.155-3.482-2.348-6.534-3.184-9.68a223641 223641 0 0 1-55.848-210.423c-52.483-198.228-104.64-396.544-157.796-594.59-6.427-23.946-5.462-47.066-3.831-70.707 6.317-4.957 12.092-9.437 17.814-13.984 40.825-32.446 73.465-71.533 95.256-119.11 29.678-64.791 35.054-132.228 18.68-201.136-9.99-42.05-22.282-83.555-33.598-125.29-1.043-3.847-2.673-7.534-3.732-11.377-1.936-7.034-3.556-14.154-5.475-21.192-4.199-15.404-8.492-30.782-12.767-46.165-1.958-7.044-4.056-14.05-5.93-21.116-8.862-33.409-17.663-66.834-26.512-100.246-.339-1.28-1.048-2.46-1.413-3.734-2.372-8.303-4.753-16.604-7.025-24.935-3.852-14.116-7.625-28.254-12.732-45.371"/><path fill="#FCD300" d="M3621.534 882.372c4.456 15.623 8.23 29.76 12.08 43.877 2.273 8.33 4.654 16.632 7.026 24.935.365 1.275 1.074 2.455 1.413 3.734 8.849 33.412 17.65 66.837 26.512 100.246 1.874 7.065 3.972 14.072 5.93 21.116 4.275 15.383 8.568 30.761 12.767 46.165 1.919 7.038 3.539 14.158 5.475 21.192 1.059 3.843 2.689 7.53 3.732 11.377 11.316 41.735 23.607 83.24 33.599 125.29 16.373 68.908 10.997 136.345-18.68 201.137-21.792 47.576-54.432 86.663-95.257 119.109-5.722 4.547-11.497 9.027-17.814 13.984-1.63 23.64-2.596 46.76 3.831 70.706 53.157 198.047 105.313 396.363 157.796 594.59a223641 223641 0 0 0 55.848 210.424c.836 3.146 2.029 6.198 3.184 9.68 15.347 3.744 30.691 3.461 45.905 4.142 22.097.99 43.627 4.745 64.659 11.654 89.801 29.5 161.85 120.025 149.45 233.499-11.677 106.86-91.872 175.41-173.04 191.343-35.935 7.053-72.074 13.07-108.143 19.432-72.797 12.843-145.599 25.664-218.42 38.373-66.26 11.564-132.579 22.803-198.814 34.512-32.234 5.699-63.857 2.735-94.834-6.48-10.525-3.132-18.722-2.34-28.226 2.962-24.116 13.451-50.253 21.064-77.833 23.569-6.524.592-13.004 1.677-20.189 2.625-.983 5.985-2.176 11.097-2.61 16.272-1.455 17.384-5.57 34.136-11.335 50.537-10.82 30.778-21.532 61.595-32.503 92.319-3.396 9.508-5.384 19.014-5.198 29.23.352 19.32.004 38.658-.228 57.986-1.233 102.446-70.75 189.664-170.104 212.766-17.48 4.065-35.407 6.274-53.185 8.962-13.823 2.09-27.702 4.655-41.616 5.082-17.25.529-34.58-.633-51.837-1.707-5.42-.337-10.567-.9-15.588 1.476-41.02 19.399-85.411 24.882-129.545 31.514-56.65 8.514-113.275 17.187-169.902 25.85-38.186 5.841-76.19 13.593-114.586 17.126-32.617 3.001-64.336 10.072-96.488 15.107-19.085 2.99-38.198 5.805-57.31 8.615-3.29.483-6.693 1.062-9.952.723-16.432-1.711-31.35 3.4-46.533 8.776-45.344 16.055-92.176 20.682-139.859 15.28-10.446-1.185-19.431.452-28.885 4.584-48.464 21.178-99.154 30.142-152.018 26.64-5.207-.346-10.83-.462-15.696 1.086-27.493 8.749-56.107 11.345-84.349 15.852-49.33 7.873-98.72 15.393-148.146 22.652-47.436 6.967-94.985 13.167-142.41 20.197-22.378 3.317-44.553 7.975-66.877 11.678-19.712 3.271-39.42 6.862-59.275 8.927-109.527 11.392-209.828-58.832-237.307-163.453-11.698-44.538-9.457-88.44 6.157-131.66 2.75-7.608 4.742-14.494 2.155-23.027-9.789-32.28-11.617-65.45-8.843-98.95.33-3.98.506-7.98.556-11.974.015-1.262-.612-2.533-.946-3.802-1.025-.738-1.953-1.883-3.089-2.151-28.777-6.802-54.907-20.213-81.44-32.594-25.949-12.11-51.813-24.403-77.738-36.567-25.613-12.017-48.691-27.712-67.764-48.65-6.65-7.298-14.167-11.591-23.424-13.983-7.059-1.825-13.93-4.376-22.036-6.972-2.71 1.68-6.157 3.537-9.305 5.81-28.023 20.232-59.078 33.374-93.079 39.283-44.617 7.755-89.305 15.103-133.955 22.672-73.077 12.387-177.225-19.712-227.383-118.701-15.61-30.807-23.819-63.48-23.819-98.108 0-234.633-.547-469.267.221-703.897.429-130.947 90.862-242.678 217.358-272.245 22.646-5.293 45.859-8.24 68.877-11.844 49.345-7.728 98.732-15.185 148.105-22.737 37.525-5.74 75.055-11.447 112.577-17.21 1.945-.298 3.832-.978 6.529-1.686-.804-2.618-1.025-5.355-2.352-7.361-24.278-36.694-39.523-76.832-46.297-120.254-.302-1.94-1.046-3.811-1.8-6.478-3.559-2.165-7.622-4.367-11.398-6.983-12.579-8.712-25.776-16.716-37.432-26.54-32.613-27.49-64.782-55.519-96.739-83.773-41.072-36.314-66.135-81.979-72.96-136.182-8.733-69.367 10.984-130.627 59.042-181.914 29.622-31.612 59.994-62.519 89.999-93.772 5.04-5.25 9.92-10.653 15.467-16.623-1.506-4.504-2.755-8.868-4.405-13.073-11.074-28.217-16.873-57.373-16.707-87.772.208-37.993-.308-75.99-.012-113.982.804-103.187 68.696-189.51 168.547-213.828 18.07-4.4 36.678-6.685 55.101-9.532 68.45-10.575 136.922-21 205.392-31.438 52.672-8.03 105.27-16.617 158.062-23.754 31.187-4.216 62.534-2.593 93.463 3.987 3.254.693 6.438 1.822 9.72 2.253 9.153 1.203 13.74-1.377 17.302-9.717 2.873-6.731 5.088-13.765 8.253-20.347 33.56-69.777 88.36-112.177 164.651-125.622 44.591-7.858 89.38-14.732 134.238-20.905 69.047-9.5 129.046 11.106 180.084 57.805 11.211 10.259 20.568 22.662 30.018 34.676 4.683 5.953 9.608 10.263 16.722 13.334 14.621 6.313 28.661 13.972 43.963 21.586 2.728-2.915 6.043-5.993 8.817-9.5 14.473-18.293 28.662-36.811 43.22-55.036 35.183-44.048 80.78-71.31 136.177-80.546 49.4-8.237 96.907-.675 141.32 23.39 5.784 3.134 11.555 6.29 17.446 9.5 5.048-3.598 9.345-6.662 13.643-9.724 79.472-56.622 182.937-55.929 261.312 2.262 35.848 26.615 71.07 54.071 106.604 81.11 5.255 3.998 10.663 7.795 16.605 12.126 2.222-1.889 4.498-3.272 6.055-5.228 44.66-56.138 99.914-99.568 162.25-134.214 22.09-12.277 44.997-23.152 67.902-33.872 19.964-9.343 41.086-15.357 62.824-19.359 10.423-1.918 20.81-4.58 30.83-8.017 21.616-7.415 43.654-11.882 66.529-12.14 25.266-.284 50.465-.73 75.76-2.323 67.523-4.25 129.049 14.85 184.319 53.799 9.827 6.925 19.928 13.074 30.787 18.343 27.316 13.257 50.426 32.1 70.47 54.926 41.337 47.075 67.376 101.94 83.195 162.047 3.386 12.866 6.041 25.924 9.684 40.388m-2433.902 527.01c3.624-3.902 7.18-7.871 10.883-11.698 72.733-75.172 145.486-150.326 218.226-225.491 5.096-5.266 10.49-10.296 15.12-15.949 12.917-15.769 18.396-33.634 14.25-54.025-6.22-30.586-33.9-53.407-64.746-50.902-16.562 1.345-33.052 3.839-49.496 6.333-56.603 8.584-113.158 17.477-169.755 26.101-55.938 8.524-111.913 16.81-167.843 25.389-4.313.661-8.395 2.823-13.104 4.469 0 13.576-.016 26.202.004 38.828.02 12.66-.221 25.328.198 37.974.409 12.318-1.884 24.891 2.23 38.394l219.145-24.087c-4.288 5.317-6.866 9.026-9.947 12.253-23.923 25.059-47.926 50.04-71.934 75.015-90.033 93.66-180.1 187.285-270.05 281.025-4.902 5.108-11.337 9.272-13.393 17.418 29.78 25.869 59.435 51.634 89.107 77.38 1 .868 2.133 1.6 3.275 2.277.529.314 1.22.428 1.849.479.642.051 1.299-.087 4.007-.316 3.4-3.762 7.726-8.829 12.343-13.613 31.926-33.076 63.865-66.14 95.927-99.084 5.053-5.192 10.747-9.761 15.978-10.71-.102 42.607-.19 85.215-.322 127.824-.016 5.32.736 10.91-.607 15.908-3.352 12.482-2.453 25.098-2.616 37.697-.155 11.982-.085 23.967-.107 35.95-.047 25.964-1.095 51.978.165 77.878 1.131 23.263 11.4 42.852 33.593 52.658 24.13 10.662 47.843 8.886 69.398-7.941 48.155-37.594 96.325-75.168 144.566-112.651 39.851-30.963 79.977-61.576 119.637-92.78 14.074-11.074 27.29-23.264 40.612-35.261 11.196-10.085 15.352-24.478 14.658-38.004-1.11-21.63-8.377-41.776-29.392-53.423-8.138-4.51-16.008-9.51-24.194-13.926-39.791-21.468-79.71-42.7-119.456-64.25-19.276-10.45-38.15-21.643-57.433-32.081-20.44-11.065-41.15-21.633-60.776-35.058m1808.723-242.62c17.328-11.239 34.646-22.493 51.992-33.705 3.356-2.17 6.709-4.387 10.255-6.21 8.204-4.215 16.384-1.978 20.694 5.421 3.61 6.197 1.928 14.652-4.542 19.61-4.201 3.22-9.12 5.484-13.575 8.396-16.155 10.559-32.341 21.076-48.308 31.915-4.37 2.967-8.248 6.775-11.938 10.597-7.086 7.34-9.189 15.79-5.434 25.687 3.257 8.586 7.337 10.8 15.05 6.202 17.736-10.574 35.224-21.563 52.842-32.336 4.546-2.78 9.046-5.702 13.836-7.996 8.174-3.915 15.71-1.34 20.47 6.503 3.469 5.716 2.254 12.323-4.129 17.722-4.55 3.849-9.731 6.98-14.77 10.216-19.058 12.244-38.226 24.316-57.232 36.64-5.767 3.74-10.178 8.769-10.19 16.211-.014 8.838 1.56 17.015 10.73 22.36 19.788-11.462 39.338-22.826 58.935-34.108 5.19-2.989 10.36-6.111 15.84-8.474 6.755-2.913 13.472-.443 17.429 5.62 4.269 6.542 3.338 14.805-2.948 19.686-4.159 3.23-9.127 5.399-13.644 8.186-20.396 12.582-40.805 25.145-61.103 37.883-4.556 2.859-8.95 6.447-8.44 12.623.706 8.578 2.029 17.073 9.61 24.261 4.884-2.164 9.79-3.95 14.324-6.417 16.966-9.232 33.797-18.712 50.712-28.04 4.078-2.248 8.116-4.727 12.462-6.295 7.412-2.673 14.33.67 18.236 8.136 3.179 6.076 1.64 12.986-4.223 17.81-2.038 1.678-4.444 2.928-6.743 4.267-21.866 12.737-43.797 25.363-65.577 38.247-4.406 2.606-8.251 6.161-12.28 9.222 3.016 16.503 8.274 30.77 14.927 44.584 19.408 40.305 51.615 61.517 96.106 64.249 7.31.448 14.656.342 21.986.448 4.665.067 9.332.045 13.998.073 6.8.04 11.284 3.421 13.652 9.665 1.416 3.73 2.608 7.545 3.944 11.307 14.261 40.151 28.648 80.259 42.739 120.47 5.49 15.664 14.104 28.567 28.876 36.862 2.242 1.259 4.092 3.215 5.496 4.345 1.888 6.741 3.599 12.48 5.102 18.272a7976820 7976820 0 0 1 223.318 860.287c6.355 24.489 12.43 49.05 18.885 73.513 3.522 13.347-.864 23.521-11.612 31.348-3.757 2.736-7.893 4.956-11.876 7.377-21.065 12.803-42.148 25.576-63.194 38.408-4.548 2.772-9.262 5.383-13.4 8.693-13.046 10.436-16.774 26.011-10.269 41.28 6.49 15.236 20.38 23.488 36.723 21.691 2.633-.29 5.206-1.096 7.815-1.627 103.089-20.963 206.183-41.9 309.26-62.925 7.806-1.592 15.745-3.112 23.17-5.881 13.953-5.205 22.245-18.103 22.084-32.591-.173-15.515-9.335-28.563-24.018-33.305-5.003-1.616-10.376-2.313-15.64-2.854-17.895-1.839-35.83-3.302-53.726-5.13-18.557-1.898-37.086-4.076-55.632-6.09-13.526-1.467-21.776-8.974-25.342-21.927-1.237-4.494-2.526-8.974-3.722-13.48-63.512-239.381-127.028-478.762-190.518-718.15-19.798-74.649-39.443-149.338-59.397-223.944-2.3-8.602-3.446-16.325.247-25.124 5.787-13.791 6.162-28.372 3.051-43.186-6.976-33.227-13.55-66.54-20.149-99.846-1.258-6.351-4.022-12.754-.765-19.952 6.047-2.223 12.357-4.278 18.459-6.833 22.701-9.506 45.62-18.564 67.9-28.98 17.532-8.196 33.507-19.235 47.739-32.53 23.036-21.518 33.897-48.013 28.645-79.226-3.41-20.261-9.758-40.05-15.202-59.937-2.446-8.935-9.232-12.46-18.288-12.223-13.326.35-26.655.584-39.985.782-5.994.09-12.004.211-17.983-.115-5.709-.311-10.117-3.014-12.443-8.523-3.651-8.65.94-18.375 10.446-19.838 9.833-1.513 19.895-1.577 29.864-2.153 9.31-.538 18.647-.714 27.94-1.455 4.344-.346 6.788-4.162 6.338-8.555-1.69-16.518-8.467-23.764-25.264-25.08-13.266-1.04-26.636-.683-39.95-1.224-5.958-.243-12.008-.636-17.8-1.926-5.818-1.297-10.22-7.836-10.189-13.365.03-5.487 4.467-12.218 10.05-13.574 5.115-1.243 10.52-1.688 15.805-1.754 12.661-.157 25.331.314 37.99.09 3.656-.064 7.286-1.627 10.612-2.427-.246-22.836-7.241-31.142-27.061-32.553-11.293-.805-22.66-.55-33.967-1.207-6.617-.385-13.306-1.111-19.742-2.626-6.369-1.499-10.163-7.109-10.267-13.156-.115-6.636 4.667-13.151 11.447-14.45 4.528-.868 9.274-.86 13.918-.815 12.663.122 25.324.648 37.985.62 3.61-.009 7.216-1.364 10.707-2.078-2.771-22.938-7.854-28.936-26.804-32.463-3.917-.729-7.923-1.117-11.905-1.328-9.984-.53-19.994-.646-29.96-1.386-4.57-.34-9.227-1.286-13.547-2.804-5.523-1.941-8.31-6.371-8.432-12.33-.127-6.22 3.364-12.23 9.166-14.092 3.703-1.188 7.845-1.637 11.747-1.46 11.977.542 23.924 1.71 35.9 2.29 5.079.247 10.656 2.25 15.653-3.179 1.818-7.861-1.34-14.957-6.543-21.32-4.85-5.932-11.412-9.168-18.965-10.03-12.577-1.435-25.183-2.61-37.776-3.894-4.63-.472-9.374-.459-13.861-1.529-7.485-1.784-11.661-7.246-11.759-14.176-.11-7.792 4.738-13.93 13.05-15.19 4.515-.685 9.27-.05 13.893.292 11.297.837 22.57 2.053 33.877 2.672 3.576.196 7.228-1.015 10.812-1.577-2.866-21.04-8.27-27.856-25.486-32.217-5.772-1.462-11.792-2.021-17.73-2.745-9.26-1.129-18.562-1.928-27.814-3.117-3.25-.418-6.58-1.17-9.564-2.477-5.65-2.477-8.598-8.563-7.606-14.855.902-5.721 3.863-10.117 9.634-11.495 3.809-.91 7.933-1.175 11.844-.853 11.947.986 23.845 2.552 35.79 3.557 4.342.365 8.763-.218 13.234-.371-3.138-31.614-19.648-66.63-37.816-79.558 1.052 4.229 1.75 7.37 2.62 10.463 2.52 8.971 5.373 17.859 7.586 26.904 1.774 7.252-.93 11.924-7.269 14.202-6.818 2.45-12.578-.506-15.366-8.333-1.559-4.373-2.406-8.995-3.686-13.473-4.783-16.731-10.787-32.95-21.064-47.204-12.434-17.246-28.149-30.153-49.055-35.791-4.858-1.31-9.889-2.587-16.563.47 6.018 5.737 11.126 10.76 16.397 15.606 21.251 19.537 29.612 45.268 34.924 72.468.251 1.284.127 2.66.055 3.987-.328 6.074-4.617 11.135-10.802 12.811-5.796 1.571-12.28-1.151-14.763-7.327-2.716-6.756-4.469-13.909-6.499-20.93-4.48-15.5-11.04-29.978-20.76-42.932-11.197-14.919-25.934-24.723-43.732-29.977-12.394-3.659-25.15-3.841-37.542-.475 3.635 2.76 6.721 5.032 9.732 7.401 9.093 7.156 16.412 15.947 20.252 26.789a641 641 0 0 1 14.802 47.617c2.502 9.307-1.805 15.735-10.464 18.725-8.303 2.867-15.694-.411-19.33-9.15-2.038-4.895-3.1-10.189-4.81-15.232-2.99-8.817-5.608-17.813-9.343-26.312-6.766-15.398-18.513-25.791-34.371-31.488-17.788-6.39-35.314-5.72-52.462 2.197-28.476 13.147-56.046 27.92-81.555 46.293-18.988 13.677-36.681 28.823-52.034 46.566-37.688 43.559-49.793 93.09-34.59 148.917.768 2.821 2.453 5.392 4.254 9.238 4.722-4.273 8.136-7.358 11.546-10.448 18.888-17.114 40.137-30.83 62.464-42.9 8.669-4.687 16.257-2.782 21.054 4.228 3.91 5.716 2.506 13.74-4.186 19.626-3.961 3.484-8.652 6.173-13.149 9.006-17.5 11.023-34.834 22.283-49.742 36.77-4.757 4.623-9.146 9.675-13.298 14.855-3.966 4.949-4.675 10.967-3.742 17.083.805 5.284 1.82 10.623 9.338 12.684 3.329-1.775 7.547-3.613 11.33-6.111 16.679-11.015 33.214-22.25 49.848-33.336 3.873-2.581 7.773-5.203 11.93-7.264 7.925-3.932 14.77-2.225 19.345 4.359 4.867 7.004 3.47 15.446-4.027 21.028-4.249 3.164-9.241 5.31-13.642 8.293-15.42 10.451-31.011 20.688-45.946 31.8-6.309 4.694-11.601 11.005-16.529 17.235-5.332 6.74-6.28 14.713-2.266 22.56 1.41 2.756 3.787 6.185 6.359 6.852 2.594.672 5.977-1.703 11.555-4.303M2326.451 2656.3c10.54-1.539 21.126-2.816 31.611-4.666 28.349-5 45.635-25.002 46.741-53.807.18-4.658.071-9.327.071-13.991.002-149.923.007-299.846-.013-449.768a515 515 0 0 0-.375-19.978c-.376-9.637-3.945-18.257-9.613-25.841-12.593-16.85-29.642-24.566-50.504-21.992-21.138 2.608-42.143 6.283-63.211 9.459-56.615 8.533-113.242 16.986-169.846 25.588-58.578 8.903-117.139 17.918-175.699 26.937-24.345 3.75-48.681 7.564-73 11.482-23.815 3.838-43.305 26.057-43.52 50.262-.047 5.329-.17 10.659-.17 15.988-.01 150.589-.012 301.178.006 451.767 0 5.994-.137 12.017.375 17.976 2.374 27.608 23.914 48.153 51.458 48.68 7.932.153 15.937-.97 23.834-2.05 13.848-1.894 27.636-4.228 41.455-6.342q72.06-11.02 144.122-22.015c48.041-7.33 96.09-14.615 144.125-21.985 32.902-5.048 65.786-10.21 102.153-15.704M834.003 2367.959l70.224-10.497c.237 8.795.598 15.989.6 23.182.035 129.276.025 258.552.025 387.828 0 64.638-.052 129.276.091 193.913.013 5.707-1.827 11.899 3.07 17.926 20.758-2.195 41.35-7.43 62.124-11.568 20.678-4.119 41.735-6.65 62.741-13.562v-18.664c0-213.905.002-427.81-.017-641.715 0-5.994.072-12.013-.418-17.978-2.647-32.23-28.386-56.803-60.673-57.68-7.284-.198-14.664.488-21.895 1.51-19.777 2.794-39.497 5.987-59.24 9.015-48.699 7.47-97.392 14.974-146.099 22.391-45.416 6.916-90.898 13.412-136.252 20.712-32.859 5.288-54.087 30.089-55.65 63.532-.124 2.66-.044 5.33-.044 7.996-.003 224.566-.01 449.133.037 673.7 0 5.211.62 10.423 1.05 17.174 21.96-3.749 42.852-7.14 63.675-10.92 20.782-3.771 41.956-5.708 63.25-12.053v-22.63c0-191.249-.018-382.497.062-573.746.004-7.784-1.288-15.787 1.973-24.66 49.316-7.616 98.594-15.226 151.366-23.206M2978.834 2190c0-45.322-.058-90.644.073-135.965.017-5.837-1.528-12.046 3.126-18.319 68.852-10.75 138.482-21.623 208.84-32.61 2.23-14.7.587-28.63.702-42.47.123-14.658.125-29.343-.62-43.975-.697-13.68 1.808-27.66-2.767-42.52-23.674 3.47-46.64 6.73-69.572 10.228-23.04 3.514-45.968 7.875-69.085 10.74-22.88 2.835-45.416 8.807-68.532 9.159-3.244-19.76-2.897-74.158.502-88.495 26.107-6.171 53.503-7.06 79.523-13.732.622-3.221 1.352-5.146 1.309-7.054-.828-36.64-1.704-73.28-2.726-109.915-.084-3.005-1.294-5.978-2.255-10.164-100.988 15.269-200.842 30.422-300.195 46.026-2.814 17.539-1.46 111.828 1.873 127.753 14.946-2.118 30.008-4.383 45.107-6.356 14.955-1.953 29.669-6.407 44.88-5.4 2.363 15.864 2.626 67.173.376 88.036-16.781 4.081-34.567 5.841-52.164 8.554-17.77 2.74-35.542 5.464-53.312 8.205s-35.59 5.188-53.289 8.33c-17.529 3.112-35.542 3.826-53.769 9.712 0 14.343-.043 28.23.013 42.116.058 14.66-.075 29.331.407 43.98.451 13.71-1.636 27.614 1.81 42.021 5.497-.456 10.072-.671 14.599-1.256 4.618-.596 9.18-1.614 13.783-2.34 4.605-.727 9.237-1.276 13.845-1.987 3.948-.609 7.87-1.387 11.818-1.999 4.606-.714 9.234-1.294 13.843-1.994 4.608-.7 9.201-1.485 13.804-2.214 4.604-.73 9.212-1.422 13.815-2.157 4.177-.667 8.432-2.441 14.003.447-4.46 5.775-7.937 10.512-11.652 15.055-34.177 41.781-68.423 83.507-102.55 125.33-2.763 3.385-4.799 7.364-7.034 10.853 20.606 19.562 83.531 70.415 97.988 79.096 4.115-4.677 8.566-9.447 12.698-14.48 33.83-41.204 67.565-82.487 101.46-123.638 2.623-3.184 4.255-8.566 11.4-7.172v19.834c.003 41.323-.049 82.646.086 123.968.015 4.385 1.124 8.765 1.864 14.155l122.86-14.392c1.41-2.737 2.52-3.892 2.529-5.057.262-34.645.415-69.29.586-107.937M1457.21 2296.59c-51.898-32.423-107.966-43.626-168.306-33.059-127.618 22.349-217.337 149.17-186.928 283.05 26.767 117.847 143.127 201.82 272.067 178.157 125.847-23.094 219.5-150.046 183.397-290.137-14.92-57.891-48.448-102.954-100.23-138.011m176.225-617.066 41.337-5.977c.983 2.69 2.225 4.512 2.231 6.338q.186 53.96.023 107.919c-.005 1.803-1.297 3.603-2.399 6.465-27.19 4.49-54.69 8.914-82.145 13.598-27.954 4.769-56.253 7.772-84.167 14.669-.974 40.57-1.946 79.808-2.754 119.05-.035 1.668 1.46 3.369 2.639 5.911 160.003-24.34 319.83-48.646 479.645-73.028 2.564-.39 4.986-1.714 7.312-2.544 2.399-17.457 1.59-113.78-1.292-128.914-20.867 3.182-41.825 6.247-62.735 9.603-20.373 3.271-40.629 7.356-61.065 10.135-20.96 2.85-41.63 8.097-63.29 9.333-3.067-13.637-1.202-26.286-1.523-38.806-.341-13.316-.243-26.65-.029-39.972.2-12.473-.97-25.045 1.01-38.699 39.393-6.75 78.347-10.659 116.34-17.707 4.263-26.574 6.419-108.21 3.322-124.816-4.475.208-9.094.046-13.598.693-31.628 4.543-63.223 9.312-94.855 13.827-3.586.512-7.333-.105-12.267-.23v-21.144c-.004-25.984.081-51.968-.117-77.95-.027-3.605-1.454-7.2-2.366-11.411-14.962 2.438-28.718 4.775-42.507 6.9-13.817 2.128-27.852 3.225-41.451 6.283-13.427 3.02-27.907 1.573-41.45 8.963v19.999c-.002 25.317.106 50.635-.114 75.95-.038 4.354-1.472 8.696-2.203 12.727-20.463 3.063-39.556 5.858-58.627 8.794-18.88 2.906-38.172 3.6-56.173 9.25-4.07 29.206-6.041 109.392-2.933 125.325 24.178-3.376 48.438-6.763 76.2-10.534m620.297-139.12c-9.011 32.506-11.638 65.22-6.392 98.854 19.25 123.392 140.291 212.426 269.99 183.153 121.087-27.33 190.713-144.036 171.552-255.747-21.634-126.12-147.163-211.998-273.792-179.512-80.358 20.616-133.47 71.72-161.358 153.252m-720.248-264.694c-5.931.86-11.88 1.615-17.789 2.607-6.378 1.071-12.718 2.363-18.618 3.473-3.48 27.03-5.18 112.736-2.647 128.887 1.802.251 3.77.989 5.584.712a484707 484707 0 0 0 477.972-73.059c1.836-.281 3.489-1.761 5.975-3.078.609-38.4 1.228-77.009 1.81-115.618.03-1.987-.09-4.013-.467-5.958-.242-1.25-1.084-2.385-2.121-4.531-28.61 4.124-57.54 8.243-86.452 12.477-29.527 4.324-59.038 8.762-89.251 13.253-4.363-13.563-1.728-26.2-2.199-38.568-.481-12.647-.394-25.336-.025-37.991.363-12.449-1.694-25.08 1.639-38.165 38.895-7.588 77.966-11.14 115.857-18.917 2.353-21.329.878-110.9-2.02-127.292-2.45 0-5.054-.329-7.551.05-28.316 4.293-56.589 8.877-84.937 12.938-6.993 1.002-14.225 3.576-22.028.199-2.119-17.265-.554-34.552-1.044-51.771-.508-17.825 1.14-35.74-1.165-55.03-22.119 3.464-43.037 6.43-63.835 10.085-20.694 3.636-42.026 4.257-62.885 11.612 0 18.202.256 35.492-.07 52.77-.338 17.85 1.479 35.792-1.26 54.247-31.908 7.625-64.613 8.46-95.476 16.543-2.578 24.144-2.984 114.31-.554 127.4 10.502.221 20.856-1.78 31.277-3.647 11.141-1.997 22.34-3.993 33.603-4.891 10.263-.819 20.326-5.365 30.668-3.536 3.058 23.725 2.446 98.734-.977 113.529-11.941 1.837-24.342 3.773-36.751 5.65-33.587 5.082-67.178 10.138-104.263 15.62m1415.15 1206.992c16.33-2.322 32.451-6.48 50.258-6.412.3 6.591.752 12.47.8 18.354.144 17.995-.39 36.013.294 53.985 1.319 34.61 31.446 60.99 62.713 60.04 6.65-.201 13.332-.606 19.913-1.53 11.868-1.664 23.653-3.909 35.512-5.64 2.844-.415 5.843.234 10.191.471-8.247 21.482-15.875 41.317-23.478 61.16-7.862 20.517-16.016 40.929-23.46 61.597-7.142 19.831-16.37 38.97-21.562 58.928 2.126 1.762 3.004 2.939 4.164 3.386 35.407 13.647 70.83 27.258 106.307 40.721 2.258.857 4.984.48 6.972.635 1.35-1.887 2.374-2.842 2.825-4.016 35.837-93.217 71.662-186.439 107.336-279.718 2.12-5.544 3.688-11.489 4.33-17.376 4.364-39.949-27.317-73.465-67.601-70.955-13.902.866-27.626 4.291-41.503 5.94-17.684 2.103-35.069 7.001-53.988 6.548-.351-5.84-.9-11.059-.935-16.281-.119-17.33-.238-34.664-.019-51.992.466-36.781-32.54-70.092-75.021-63.61-19.093 2.912-38.176 5.89-57.266 8.826-56.608 8.707-113.217 17.413-169.827 26.106-51.345 7.884-102.696 15.722-154.028 23.688-3.672.57-7.207 2.017-11.445 3.241 6.128 39.856 12.05 78.652 18.16 117.417.372 2.361 2.251 4.485 3.558 6.963 46.8-7.129 92.831-14.17 138.872-21.146 41.483-6.287 82.976-12.503 127.928-19.33M1739.37 2734.363l-16.338-30.57c-30.946 3.562-60.824 7.35-89.546 14.42-.728 2.75-1.565 4.132-1.307 5.264.878 3.838 1.679 7.804 3.331 11.337 14.112 30.16 29.034 59.841 49.11 86.671 28.582 38.201 62.294 71.257 102.084 97.315 38.556 25.25 80.299 44.324 125.367 55.402 34.919 8.583 70.028 15.475 106.269 14.23 9.317-.32 18.658-.148 27.984.029 31.995.604 63.637-1.959 95.093-8.275 49.774-9.995 97.8-25.24 143.593-47.018 44.003-20.926 85.117-46.523 122.626-77.93 33.31-27.893 63.226-58.757 89.86-93.114 25.493-32.885 45.46-68.849 62.548-106.49 13.211-29.103 22.958-59.532 30.91-90.49 1.284-4.996 2.9-10.431-1.826-15.504-16.079 2.328-32.45 4.453-48.73 7.134-12.417 2.045-24.68 5.015-37.086 7.134-5.887 1.006-9.745 3.811-11.844 9.288-.953 2.483-2.164 4.876-2.982 7.399-9.485 29.237-22.303 56.861-38.184 83.237-17.593 29.219-38.568 55.757-61.477 80.816-17.561 19.21-37.989 35.33-58.73 50.894-25.053 18.8-51.679 35.36-79.955 48.8-26.393 12.546-53.628 23.295-81.892 31.112-33.992 9.401-68.27 16.414-103.82 17.188-16.488.358-32.832 1.336-49.357-.152-14.525-1.307-29.025-1.35-43.573-4.068-42.811-7.996-83.761-20.695-121.224-43.32-22.25-13.437-43.49-28.208-61.885-46.837-18.34-18.573-33.583-39.474-49.019-63.902m545.046-1551.969-147.824 193.189c12.82 13.337 85.457 68.918 100.637 77.129 5.958-4.064 9.578-10.533 13.945-16.225 57.161-74.501 114.212-149.088 171.393-223.574 3.444-4.486 5.861-10.328 12.681-12.319l236.863 208.143c12.873-10.674 73.812-79.576 84.464-95.347-4.198-3.963-8.39-8.17-12.84-12.086-85-74.813-170.03-149.593-255.059-224.375-8.002-7.037-15.786-14.353-24.11-20.99-17.97-14.329-38.258-18.086-60.174-11.318-13.779 4.255-24.405 13.01-33.145 24.515-28.199 37.124-56.672 74.04-86.83 113.258M1549.264 2899.57c-16.256 1.191-32.109 6.591-50.116 5.566 0-25.441.16-50.007-.046-74.568-.205-24.495.948-49.033-.837-74.561-11.362-2.146-21.95-1.03-32.426-1.208-9.992-.17-19.989-.037-29.983-.037-10.661 0-21.327-.185-31.982.052-10.418.232-20.99-1.144-32.2 1.347-.208 6.274-.527 11.48-.53 16.687-.033 67.298-.024 134.596-.011 201.893 0 3.997-.057 8.006.224 11.987 2.278 32.209 27.804 57.166 60.089 58.276 7.937.273 16.007-.49 23.88-1.675 69.78-10.502 139.533-21.187 209.278-31.918 3.108-.478 6.069-1.92 8.863-2.836-1.411-30.463-14.493-110.507-20.624-125.038-33.16 5.156-66.633 10.361-103.58 16.033m-322.176 25.603c7.314-15.673 14.596-31.361 21.949-47.015 7.635-16.257 15.644-32.345 22.924-48.759 6.916-15.593 16.23-30.216 20.844-48.092-19.212-9.075-37.696-18.038-56.377-26.567-19.118-8.727-37.478-19.259-57.861-26.023-1.81 3.273-3.213 5.505-4.329 7.873-48.186 102.303-96.359 204.613-144.452 306.96-1.575 3.354-2.296 7.109-3.708 11.611l114.249 53.814c29.04-61.048 57.15-121.126 86.761-183.802m1594.915-241.019 41.798-98.129c-4.64-2.437-8.542-4.831-12.704-6.62a18651 18651 0 0 0-95.545-40.77c-2.785-1.178-5.934-1.496-9.563-2.37-14.064 32.8-27.72 64.56-41.304 96.354-13.606 31.844-27.24 63.676-40.674 95.592-13.345 31.707-27.735 62.997-40.5 96.428 14.03 6.013 26.784 11.485 39.543 16.945 12.855 5.502 25.62 11.229 38.6 16.42 12.76 5.103 24.784 12.362 39.815 14.926 26.588-62.405 52.917-124.2 80.534-188.776M2308.323 889.71c-8.906-6.994-17.735-14.092-26.766-20.922-2.962-2.24-6.452-3.781-10.357-6.019-60.253 76.998-119.755 153.02-179.183 229.1-1.142 1.463-1.406 3.612-2.038 5.33 25.206 23.235 86.929 70.434 99.584 76.187 20.039-22.172 173.162-218.979 181.912-234.137a56492 56492 0 0 1-63.151-49.539M2409.097 3250c-.133-38.655-.251-77.31-.464-115.964-.007-1.205-.987-2.405-1.968-4.646l-23.38 3.458c-6.077 8.9-12.101 17.646-18.045 26.446-6.34 9.387-12.596 18.832-18.906 28.24-5.939 8.854-11.79 17.77-17.884 26.516-6.337 9.097-11.52 19.1-20.224 28.298-26.829-28.485-48.952-59.24-75.09-86.959l-24.142 4.36c-.512 3.593-1.199 6.169-1.2 8.745-.025 75.99.007 151.98.117 227.97.003 1.885.992 3.77 1.504 5.593 20.947-.703 45.493-4.812 59.472-10.206v-63.269c0-5.333-.089-10.667.028-15.998.11-5.06-.51-10.254 1.089-16.84 9.393 5.109 13.322 13.011 19.118 18.923 6.415 6.545 11.3 14.594 19.675 21.117 2.879-3.82 5.282-6.77 7.425-9.896 7.911-11.541 15.696-23.17 23.627-34.698 1.74-2.53 3.207-6.122 8.032-3.62 0 15.084-.286 30.412.08 45.725.375 15.722-1.808 31.608 1.838 47.974 20.04-1.297 38.836-5.137 56.915-8.073 1.126-2.762 2.058-3.987 2.064-5.216.162-37.993.233-75.986.319-117.98m297.807-2274.862-168.115-128.103c-12.145 11.478-65.213 80.52-77.293 100.272 1.172 1.442 2.163 3.281 3.677 4.434 67.835 51.664 135.715 103.269 203.606 154.86.483.367 1.186.59 1.794.608.64.02 1.29-.29 3.374-.824 21.478-28.157 43.678-57.24 65.843-86.348 2.418-3.175 4.664-6.483 6.917-9.78.33-.482.334-1.24.344-1.873.01-.643-.159-1.29-.38-2.862-12.126-9.307-24.787-19.024-39.767-30.384m45.268 2134.78c-18.9-19.974-42.19-26.653-68.965-22.77-23.024 3.338-46.058 6.607-69.057 10.101-3.158.48-6.145 2.082-10.237 3.526 0 77.975-.014 155.75.063 233.525.003 2.536.934 5.071 1.692 8.929 28.674-4.577 56.82-8.776 84.844-13.668 13.952-2.437 26.349-9.03 37.696-17.458 18.124-13.46 30.686-31.25 39.247-51.867 11.467-27.614 14.912-56.54 11.44-86.071-2.674-22.74-9.565-44.17-26.723-64.246m-757.307 264.465c3.071 6.614 5.61 13.543 9.31 19.786 13.61 22.968 34.015 35.194 60.705 35.605 36.23.558 66.015-13.024 87.922-42.44 8.816-11.836 14.955-25.05 19.5-39.057 10.495-32.352 10.848-65.442 6.328-98.654-2.156-15.842-7.331-31.04-16.077-44.719-12.217-19.11-29.513-30.838-52.152-32.557-42.674-3.238-76.583 12.62-100.247 48.856-8.434 12.916-14.26 27.052-17.963 41.962-8.986 36.188-9.352 72.335 2.674 111.218m539.075-170.32c-9.128-.012-17.873 5.14-28.012 2.341-1.624-12.034-1.353-23.729-.178-36.259 22.588-5.46 45.244-6.02 67.742-12.291.135-12.547.372-24.461.343-36.375-.013-5.243-.566-10.485-.855-15.406-2.095-.712-3.415-1.654-4.569-1.481-38.809 5.811-77.606 11.7-116.387 17.698-2.482.384-4.816 1.722-8.272 3.007 0 78.022-.015 155.856.067 233.691.002 2.542.99 5.083 1.504 7.553 36.697-2.827 114.687-15.819 128.083-21.43.15-16.81 2.038-33.896-1.14-51.324-22.602.253-43.589 8.275-66.065 6.953-1.707-12.489-2.333-24.132.536-36.545l58.618-9.796c3.414-18.437 3.183-40.338-.642-54.722-9.015 1.325-18.162 2.668-30.773 4.386m-673.438 181.051c-13.46-30.842-11.368-62.235-2.853-93.685 1.348-4.977 4.495-9.675 7.602-13.924 6.187-8.464 14.76-13.146 25.302-14.219 10.607-1.08 19.801 1.155 26.596 10.122 1.146 1.512 3.071 2.435 4.538 3.555 24.36-10.715 43.87-22.13 53.02-31.053-12.851-29.168-35.656-44.516-67.116-44.726-33.616-.224-62.325 12.25-83.86 39.047-10.993 13.68-18.446 29.192-23.6 45.87-8.384 27.138-10.196 54.968-7.2 82.99 2.204 20.63 7.534 40.541 19.377 58.148 14.048 20.883 33.823 31.766 58.726 32.42 25.422.666 48.71-6.598 68.751-22.569 16.414-13.079 28.218-29.474 34.888-51.131-18.355-4.55-35.537-8.807-52.77-13.077-3.839 5.075-6.754 9.508-10.245 13.427-7.035 7.896-16.367 11.387-26.642 11.857-9.096.417-16.962-2.82-24.514-13.052m1196.96-1289.662c-3.402 4.084-7.164 7.924-10.15 12.292-20.79 30.404-19.685 69.589 2.603 98.89 22.002 28.924 60.265 40.696 94.75 28.783 34.913-12.06 63.318-47.548 55.76-94.807-6.705-41.927-45.008-69.722-80.804-69.657-23.162.042-43.061 6.923-62.159 24.499m-207.629 965.705c-16.535 3.968-33.987 3.485-51.256 9.545 1.992 6.016 3.418 11.048 5.304 15.9 12.779 32.876 25.557 65.752 38.561 98.538 3.733 9.41 5.742 18.84 5.557 29.082-.444 24.644-.199 49.302-.097 73.954.022 5.198.622 10.393.95 15.492 19.504.592 46.222-3.808 59.784-9.96v-15.335c0-23.986.276-47.977-.128-71.956-.172-10.194 1.61-19.75 4.99-29.26 13.595-38.248 27.041-76.549 40.484-114.851 1.737-4.95 3.13-10.02 5.123-16.46-20.963 1.377-40.3 4.671-59.847 8.687-8.677 24.323-11.037 49.756-21.268 75.923-2.597-8.551-4.45-14.15-5.994-19.833-4.01-14.772-7.905-29.574-11.796-44.378-.98-3.73-3.327-5.494-10.367-5.088m-1385.48-978.494c-10.262 20.889-20.71 41.689-30.733 62.691-9.93 20.806-21.362 40.938-30.214 63.603 19.36 9.564 37.683 18.792 56.162 27.695 19.02 9.163 37.394 19.763 58.135 27.483 7.742-15.614 15.106-30.452 22.457-45.298 7.672-15.494 15.67-30.84 22.898-46.54 6.838-14.85 16.019-28.723 20.779-45.625-37.231-18.215-73.61-36.032-110.043-53.736-.937-.455-2.472.323-4.289.617-1.151 1.952-2.487 4.215-5.152 9.11m-281.16 10.05c-18.103 8.417-36.309 16.621-54.28 25.313-17.76 8.59-36.42 15.459-54.536 26.456l63.204 136.035c15.99-3.85 101.466-43.44 115.66-53.526-1.845-4.451-3.666-9.32-5.845-14.024a56764 56764 0 0 0-49.664-106.812c-1.964-4.216-3.86-8.51-6.358-12.402-.802-1.25-3.442-1.318-8.18-1.04m496.356 1387.024c-.274-16.474 1.697-33.046-1.383-49.914-22.425 1.277-43.54 7.469-66.255 8.094-.245-7.547-.636-14.12-.643-20.692-.052-49.967.029-99.934-.12-149.901-.014-5.018 1.894-10.695-2.878-14.831-20.16.041-44.985 4.343-58.267 10.13-.286 1.835-.857 3.79-.859 5.745-.047 75.284-.066 150.568.042 225.851.004 2.97 1.284 5.939 1.85 8.39 2.745.39 4.088.895 5.328.71 28.308-4.228 56.632-8.357 84.89-12.9 12.434-2 24.728-4.872 38.295-10.682m-276.552-197.582c-7.251 1.03-14.524 1.932-21.75 3.11-30.817 5.026-31.703 5.608-48.189 32.03a172 172 0 0 0-7.815 13.93c-12.171 24.272-13.452 48.443.894 72.429 4.1 6.855 8.036 13.807 12.008 20.737 3.642 6.352 7.155 12.779 10.859 19.094 10.94 18.655 9.428 37.212-1.865 54.733-6.441 9.991-14.842 18.729-22.466 27.942-3.25 3.928-6.771 7.632-12.111 13.613 6.833-.654 10.651-.837 14.41-1.413 12.498-1.915 24.946-4.173 37.465-5.933 31.485-4.427 33.783-5.783 50.392-32.327a106 106 0 0 0 5.753-10.503c10.638-22.296 11.658-44.9 1.121-67.447-4.216-9.02-9.49-17.552-14.408-26.235-4.264-7.527-8.73-14.94-13.062-22.428-7.941-13.73-7.995-27.76-1.898-42.2 5.488-12.995 12.918-24.754 21.638-35.765 3.594-4.538 7.152-9.104 11.015-14.025-2.594-.868-3.813-1.68-4.96-1.59-4.642.368-9.262 1.013-17.03 2.248m-538.52-540.39c-1.723-5.709-2.826-11.7-5.268-17.083-15.833-34.89-56.576-51.398-92.231-37.641-28.447 10.975-46.858 37.644-46.871 67.893-.014 30.218 18.54 57.416 46.54 68.227 28.25 10.906 59.795 3.424 80.303-19.182 15.276-16.838 20.753-36.722 17.527-62.213m-128.661-143.978c3.732 3.786 7.158 7.947 11.25 11.293 19.527 15.97 42.044 19.73 65.834 13.534 33.392-8.697 54.755-40.683 52.62-75.556-1.915-31.285-26.053-61.236-61.386-66.595-34.612-5.25-67.888 14.411-79.505 46.685-8.737 24.271-5.298 47.126 11.187 70.639M1453.158 3370c.123 47.912.233 95.823.456 143.734.005 1.102 1.297 2.199 2.73 4.478 18.873-2.904 38.596-3.965 57.26-9.77 1.969-15.678 3.163-197.454 1.567-234.204-.11-2.52-1-5.005-1.814-8.873-20.008 3.554-39.79 4.282-58.075 9.92-.936 2.46-1.79 3.667-1.797 4.878-.164 28.612-.237 57.224-.327 89.837m251.319-118.522c.122 74.539.237 149.077.443 223.616.003 1.16 1.136 2.317 2.293 4.531 19.2-1.751 38.637-4.485 57.64-9.175.65-2.747 1.503-4.665 1.502-6.583-.036-77.2-.148-154.399-.291-231.599-.002-.59-.546-1.2-.901-1.76-.339-.534-.763-1.013-1.15-1.516-14.943-.486-43.266 3.922-58.794 9.266-.233 3.022-.485 6.295-.742 13.22"/><path fill="#050400" d="M2995.084 1167.543c-4.307 1.82-7.69 4.195-10.284 3.523-2.572-.667-4.949-4.096-6.359-6.852-4.014-7.847-3.066-15.82 2.266-22.56 4.928-6.23 10.22-12.541 16.529-17.235 14.935-11.112 30.526-21.349 45.946-31.8 4.401-2.983 9.393-5.129 13.642-8.293 7.497-5.582 8.894-14.024 4.027-21.028-4.575-6.584-11.42-8.29-19.345-4.36-4.157 2.062-8.057 4.684-11.93 7.265-16.634 11.087-33.169 22.32-49.849 33.336-3.782 2.498-8 4.336-11.329 6.11-7.517-2.06-8.533-7.4-9.338-12.683-.933-6.116-.224-12.134 3.742-17.083 4.152-5.18 8.54-10.232 13.298-14.855 14.908-14.487 32.243-25.747 49.742-36.77 4.497-2.833 9.188-5.522 13.149-9.006 6.692-5.886 8.096-13.91 4.186-19.626-4.797-7.01-12.385-8.915-21.054-4.228-22.327 12.07-43.576 25.786-62.464 42.9-3.41 3.09-6.824 6.175-11.546 10.448-1.801-3.846-3.486-6.417-4.254-9.238-15.203-55.827-3.098-105.358 34.59-148.917 15.353-17.743 33.046-32.89 52.034-46.566 25.51-18.373 53.08-33.146 81.555-46.293 17.148-7.916 34.674-8.587 52.462-2.197 15.858 5.697 27.605 16.09 34.371 31.488 3.735 8.499 6.353 17.495 9.343 26.312 1.71 5.043 2.772 10.337 4.81 15.233 3.636 8.738 11.027 12.016 19.33 9.15 8.66-2.99 12.966-9.419 10.464-18.726a641 641 0 0 0-14.802-47.617c-3.84-10.842-11.16-19.633-20.252-26.789-3.01-2.369-6.097-4.641-9.732-7.4 12.392-3.367 25.148-3.185 37.542.474 17.798 5.254 32.535 15.058 43.731 29.977 9.722 12.954 16.28 27.433 20.761 42.931 2.03 7.022 3.783 14.175 6.5 20.931 2.482 6.176 8.966 8.898 14.762 7.327 6.185-1.676 10.474-6.737 10.802-12.811.072-1.327.196-2.703-.055-3.987-5.312-27.2-13.673-52.931-34.924-72.468-5.27-4.846-10.379-9.869-16.397-15.607 6.674-3.056 11.705-1.78 16.563-.47 20.906 5.639 36.62 18.546 49.055 35.792 10.277 14.254 16.28 30.473 21.064 47.204 1.28 4.478 2.127 9.1 3.686 13.473 2.788 7.827 8.548 10.784 15.366 8.333 6.338-2.278 9.043-6.95 7.269-14.202-2.213-9.045-5.067-17.933-7.586-26.904-.87-3.093-1.568-6.234-2.62-10.463 18.168 12.928 34.678 47.944 37.816 79.558-4.47.153-8.892.736-13.234.37-11.945-1.004-23.843-2.57-35.79-3.556-3.91-.322-8.035-.056-11.844.853-5.771 1.378-8.732 5.774-9.634 11.495-.992 6.292 1.957 12.378 7.606 14.855 2.983 1.307 6.314 2.06 9.564 2.477 9.252 1.189 18.554 1.988 27.815 3.117 5.937.724 11.957 1.283 17.73 2.745 17.215 4.361 22.62 11.178 25.485 32.217-3.584.562-7.236 1.773-10.812 1.577-11.307-.619-22.58-1.835-33.877-2.672-4.623-.342-9.378-.977-13.893-.292-8.312 1.26-13.16 7.398-13.05 15.19.098 6.93 4.274 12.392 11.759 14.176 4.487 1.07 9.232 1.057 13.861 1.529 12.593 1.285 25.2 2.46 37.776 3.894 7.553.862 14.114 4.098 18.965 10.03 5.203 6.363 8.36 13.459 6.543 21.32-4.997 5.43-10.574 3.426-15.654 3.18-11.975-.581-23.922-1.75-35.899-2.291-3.902-.177-8.044.272-11.747 1.46-5.802 1.862-9.293 7.873-9.166 14.091.121 5.96 2.91 10.39 8.432 12.33 4.32 1.519 8.977 2.465 13.547 2.805 9.966.74 19.976.856 29.96 1.386 3.982.211 7.988.6 11.905 1.328 18.95 3.527 24.033 9.525 26.804 32.463-3.491.714-7.097 2.07-10.706 2.077-12.662.029-25.323-.497-37.986-.619-4.644-.045-9.39-.053-13.918.815-6.78 1.299-11.562 7.814-11.447 14.45.104 6.047 3.898 11.657 10.267 13.156 6.436 1.515 13.125 2.241 19.742 2.626 11.308.657 22.674.402 33.967 1.207 19.82 1.411 26.815 9.717 27.06 32.553-3.325.8-6.955 2.363-10.611 2.427-12.659.224-25.329-.247-37.99-.09-5.285.066-10.69.51-15.804 1.754-5.584 1.356-10.02 8.087-10.05 13.574-.032 5.53 4.37 12.068 10.187 13.365 5.793 1.29 11.843 1.683 17.802 1.926 13.313.54 26.683.183 39.95 1.223 16.796 1.317 23.574 8.563 25.263 25.081.45 4.393-1.994 8.21-6.338 8.555-9.293.74-18.63.917-27.94 1.455-9.969.576-20.031.64-29.864 2.153-9.506 1.463-14.097 11.189-10.446 19.838 2.326 5.509 6.734 8.212 12.443 8.523 5.979.326 11.99.204 17.983.115 13.33-.198 26.659-.432 39.985-.782 9.056-.237 15.842 3.288 18.288 12.223 5.444 19.888 11.792 39.676 15.202 59.937 5.252 31.213-5.61 57.708-28.645 79.227-14.232 13.294-30.207 24.333-47.739 32.53-22.28 10.415-45.199 19.473-67.9 28.979-6.102 2.555-12.412 4.61-18.46 6.833-3.256 7.198-.492 13.6.766 19.952 6.6 33.306 13.173 66.619 20.15 99.846 3.11 14.814 2.735 29.395-3.052 43.186-3.693 8.8-2.548 16.522-.247 25.124 19.954 74.606 39.6 149.295 59.397 223.944 63.49 239.388 127.006 478.769 190.518 718.15 1.196 4.506 2.485 8.986 3.722 13.48 3.566 12.953 11.816 20.46 25.342 21.928 18.546 2.013 37.075 4.191 55.632 6.088 17.897 1.829 35.83 3.292 53.726 5.131 5.264.54 10.637 1.238 15.64 2.854 14.683 4.742 23.845 17.79 24.018 33.305.16 14.488-8.131 27.386-22.084 32.59-7.425 2.77-15.364 4.29-23.17 5.882-103.077 21.025-206.171 41.962-309.26 62.925-2.609.53-5.182 1.338-7.815 1.627-16.342 1.797-30.233-6.455-36.723-21.69-6.505-15.27-2.777-30.845 10.27-41.28 4.137-3.31 8.851-5.922 13.399-8.694 21.046-12.832 42.13-25.605 63.194-38.408 3.983-2.42 8.12-4.64 11.876-7.377 10.748-7.827 15.134-18 11.612-31.348-6.455-24.462-12.53-49.024-18.885-73.513a7976820 7976820 0 0 0-223.318-860.287c-1.503-5.792-3.214-11.53-5.102-18.272-1.404-1.13-3.254-3.086-5.496-4.345-14.772-8.295-23.387-21.198-28.876-36.862-14.091-40.211-28.478-80.319-42.739-120.47-1.336-3.762-2.528-7.576-3.944-11.307-2.368-6.244-6.852-9.625-13.652-9.665-4.666-.028-9.333-.006-13.998-.073-7.33-.106-14.676 0-21.986-.448-44.49-2.732-76.698-23.944-96.106-64.249-6.653-13.814-11.911-28.081-14.927-44.584 4.029-3.061 7.874-6.616 12.28-9.222 21.78-12.884 43.711-25.51 65.577-38.247 2.3-1.34 4.705-2.59 6.743-4.266 5.863-4.825 7.402-11.735 4.223-17.811-3.906-7.466-10.824-10.809-18.236-8.136-4.346 1.568-8.384 4.047-12.462 6.296-16.915 9.327-33.746 18.807-50.712 28.04-4.535 2.466-9.44 4.252-14.323 6.416-7.582-7.188-8.905-15.683-9.612-24.261-.509-6.176 3.885-9.764 8.441-12.623 20.298-12.738 40.707-25.301 61.103-37.883 4.517-2.787 9.485-4.957 13.644-8.186 6.286-4.881 7.217-13.144 2.948-19.686-3.957-6.063-10.674-8.533-17.429-5.62-5.48 2.363-10.65 5.485-15.84 8.474-19.597 11.282-39.147 22.646-58.934 34.108-9.172-5.345-10.745-13.522-10.731-22.36.012-7.442 4.423-12.471 10.19-16.21 19.006-12.325 38.174-24.397 57.233-36.64 5.038-3.237 10.22-6.368 14.77-10.217 6.382-5.4 7.597-12.006 4.128-17.722-4.76-7.844-12.296-10.418-20.47-6.503-4.79 2.294-9.29 5.217-13.836 7.996-17.618 10.773-35.106 21.762-52.842 32.336-7.713 4.598-11.793 2.384-15.05-6.202-3.755-9.898-1.652-18.347 5.434-25.687 3.69-3.822 7.568-7.63 11.938-10.597 15.967-10.839 32.153-21.356 48.308-31.915 4.455-2.912 9.374-5.176 13.575-8.396 6.47-4.958 8.151-13.413 4.542-19.61-4.31-7.399-12.49-9.636-20.694-5.42-3.546 1.822-6.9 4.04-10.255 6.209-17.346 11.212-34.664 22.466-53.263 34.486m482.153 254.623c26.568-19.29 37.578-45.838 34.776-77.923-1.32-15.111-4.98-30.023-7.696-45.004-.346-1.909-1.221-3.78-2.143-5.514-2.614-4.918-8.004-7.146-13.537-5.637-5.01 1.367-8.152 4.789-8.341 9.878-.17 4.573.472 9.236 1.246 13.775 2.341 13.723 5.155 27.368 7.357 41.112 4.136 25.813-1.604 48.76-22.955 68.683l-22.887 17.766c13.985-1.973 17.011-3.532 34.18-17.136m-346.247-408.98c-1.704 1.041-3.713 1.787-5.06 3.175-6.398 6.598-7.783 13.488-4.23 19.63 4.074 7.046 11.594 9.279 20.847 5.738 5.58-2.135 10.995-4.733 16.375-7.348 34.4-16.72 70.248-28.177 108.621-31.306 17.226-1.404 34.358-3.99 51.511-6.206 3.917-.506 7.993-1.141 11.556-2.714 5.166-2.281 8.236-6.7 8.57-12.508.328-5.7-3.808-12.237-9.462-13.895-4.38-1.283-9.141-2.024-13.688-1.85-24.625.947-49.068 3.632-73.326 8.12-38.266 7.082-74.049 21.178-111.714 39.164m92.018-77.003c24.894-5.002 50.196-5.892 75.428-7.51 4.624-.297 9.343-.464 13.806-1.557 5.58-1.367 9.805-7.77 9.88-13.596.08-6.1-3.807-12.12-9.744-13.624a50.7 50.7 0 0 0-13.786-1.498c-9.974.297-19.923 1.526-29.896 1.769-52.958 1.285-102.117 16.573-149.071 40.083-4.151 2.079-8.36 4.218-12.067 6.967-6.24 4.629-7.874 11.37-4.916 17.582 3.526 7.407 10.23 10.776 17.982 8.547 3.8-1.093 7.34-3.07 11.037-4.545 29.012-11.575 57.367-24.956 91.347-32.618m-51.049 170.202c37.756-16.728 76.362-30.774 117.543-36.342 15.13-2.046 30.357-3.375 45.526-5.144 3.935-.46 7.987-.861 11.689-2.143 5.81-2.013 9.408-8.085 9.141-14.056-.28-6.268-3.93-11.79-10.18-13.22-5.06-1.159-10.484-1.288-15.712-1.063-62.01 2.678-120.107 20.446-176.126 46.067-3.598 1.645-7.203 3.508-10.334 5.888-5.26 4-6.812 10.169-4.658 15.93 2.747 7.35 7.776 11.177 15.142 10.08 5.149-.767 10.068-3.072 17.97-5.997m202.753 165.97c7.847-1.312 15.84-2.075 23.492-4.118 5.508-1.47 9.272-8.69 8.922-14.265-.407-6.505-5.928-13.316-12.299-13.821-5.922-.47-12.007-.232-17.9.573-10.542 1.441-21.024 3.38-31.476 5.398-46.572 8.995-91.242 24.22-135.255 41.56-3.092 1.217-6.258 2.346-9.153 3.946-7.5 4.143-10.389 11.094-7.916 18.336 2.42 7.086 9.433 11.37 17.556 9.672 5.803-1.212 11.39-3.585 16.975-5.701 46.742-17.713 94.11-33.223 147.054-41.58m-187.17-95.317c49.617-22.062 100.862-38.054 155.386-42.073 6.604-.487 13.241-1.782 19.633-3.54 7.092-1.95 10.57-7.98 9.948-15.35-.614-7.272-5.077-12.146-12.706-13.085-3.922-.483-7.965-.18-11.941.005-33.48 1.558-66.154 7.632-97.808 18.573-25.162 8.697-50.086 18.085-75.058 27.324-4.334 1.604-8.647 3.586-12.488 6.123-5.453 3.6-7.566 9.971-5.911 15.738 1.86 6.485 6.527 10.547 12.922 10.732 5.084.148 10.233-1.975 18.022-4.447m170.779-4.957c-59.476 6.502-115.504 25.227-170.352 48.108-2.442 1.019-4.862 2.227-7.039 3.718-5.701 3.903-7.679 10.926-5.22 17.68 2.178 5.988 9.535 10.77 15.827 9.535 4.523-.888 8.885-2.717 13.23-4.362 14.31-5.416 28.47-11.244 42.882-16.362 37.097-13.172 74.874-23.56 114.289-27.077 5.942-.53 11.93-1.593 17.636-3.29 2.894-.86 6.09-3.156 7.617-5.717 5.346-8.959-.9-21.315-11.327-22.607-4.574-.567-9.293.043-17.543.374m10.515 153.806c-1.896-4.162-3.158-8.803-5.847-12.366-3.408-4.514-8.603-6.245-14.281-4.172-5.335 1.949-9.319 5.557-9.757 11.463-.339 4.573-.043 9.285.665 13.827 1.842 11.814 4.099 23.563 6.133 35.348 5.354 31.023-5.467 54.832-32.319 71.104-9.075 5.5-18.759 9.984-28.051 15.137-4.616 2.56-9.296 5.186-13.37 8.493-5.292 4.297-3.409 12.856 3.39 13.819 7.03.996 14.969 1.655 21.434-.61 19.49-6.825 38.12-16.004 54.156-29.213 23.532-19.383 32.32-44.925 27.761-74.783-2.302-15.084-6.058-29.945-9.914-48.047m16.493 114.07c-5.558 3.542-11.246 6.906-16.567 10.774-1.106.804-1.594 3.775-1.018 5.205.579 1.438 2.76 2.914 4.38 3.09 2.545.278 5.372-.062 7.792-.937 20.81-7.515 40.224-17.565 55.782-33.646 19.284-19.93 26.964-43.651 21.692-71.2-2.12-11.08-4.056-22.194-6.304-33.247-1.055-5.191-2.236-10.43-4.104-15.365-2.323-6.14-9.905-9.146-16.692-7.298-6.1 1.66-9.948 6.89-9.425 13.466.261 3.275 1.38 6.474 1.941 9.736 2.475 14.385 5.685 28.7 7.153 43.189 2.748 27.119-6.44 49.595-28.739 66.041-4.265 3.146-8.834 5.88-15.891 10.192"/><path fill="#030200" d="M2324.714 2656.493c-34.63 5.303-67.514 10.464-100.416 15.512-48.035 7.37-96.084 14.654-144.125 21.985q-72.063 10.995-144.122 22.015c-13.819 2.114-27.607 4.448-41.455 6.342-7.897 1.08-15.902 2.203-23.834 2.05-27.544-.527-49.084-21.072-51.458-48.68-.512-5.96-.374-11.982-.375-17.976-.018-150.59-.016-301.178-.007-451.767 0-5.33.124-10.66.172-15.988.214-24.205 19.704-46.424 43.52-50.262 24.318-3.918 48.654-7.732 72.999-11.482 58.56-9.019 117.12-18.034 175.699-26.937 56.604-8.602 113.231-17.055 169.846-25.588 21.068-3.176 42.073-6.85 63.211-9.459 20.862-2.574 37.911 5.142 50.504 21.992 5.668 7.584 9.237 16.204 9.613 25.841.26 6.654.374 13.318.375 19.978.02 149.922.015 299.845.013 449.768 0 4.664.108 9.333-.07 13.991-1.107 28.805-18.393 48.807-46.742 53.807-10.485 1.85-21.071 3.127-33.348 4.858M1939.154 2518c.245 24.51-.538 49.048.551 75.509 39.066-4.932 76.29-11.226 113.597-16.939 36.86-5.644 73.786-10.876 110.613-16.73 37.291-5.928 74.82-10.514 112.264-17.828.38-5.795.906-10.371.941-14.951.112-14.662.043-29.325.043-43.987 0-85.975.045-171.949-.093-257.923-.01-6.28 2.086-13.177-2.655-18.68-45.202 4.523-315.388 46.66-333.57 51.987-.456 1.212-1.309 2.424-1.311 3.637-.17 83.968-.273 167.937-.38 255.905M832.256 2368.144c-51.025 7.795-100.303 15.405-149.619 23.02-3.261 8.874-1.97 16.877-1.973 24.661-.08 191.249-.063 382.497-.063 573.745v22.631c-21.293 6.345-42.467 8.282-63.249 12.054-20.823 3.78-41.716 7.17-63.675 10.919-.43-6.75-1.05-11.963-1.05-17.174-.047-224.567-.04-449.134-.037-673.7 0-2.666-.08-5.336.044-7.996 1.563-33.443 22.791-58.244 55.65-63.532 45.354-7.3 90.836-13.796 136.252-20.712 48.707-7.417 97.4-14.921 146.099-22.39 19.743-3.029 39.463-6.222 59.24-9.016 7.23-1.022 14.611-1.708 21.895-1.51 32.287.877 58.026 25.45 60.673 57.68.49 5.965.417 11.984.418 17.978.02 213.905.017 427.81.017 641.715v18.664c-21.006 6.913-42.063 9.443-62.74 13.562-20.775 4.138-41.367 9.373-62.126 11.568-4.896-6.027-3.056-12.22-3.069-17.926-.143-64.637-.09-129.275-.09-193.913 0-129.276.009-258.552-.026-387.828-.002-7.193-.363-14.387-.6-23.182-24.47 3.658-47.347 7.078-71.97 10.682M2978.834 2192c-.17 36.646-.324 71.292-.586 105.938-.01 1.164-1.12 2.32-2.529 5.056l-122.86 14.392c-.74-5.39-1.85-9.77-1.864-14.155-.135-41.322-.083-82.645-.086-123.968v-19.834c-7.145-1.394-8.777 3.988-11.4 7.172-33.895 41.151-67.63 82.434-101.46 123.639-4.132 5.032-8.583 9.802-12.698 14.48-14.457-8.682-77.382-59.535-97.988-79.097 2.235-3.49 4.27-7.468 7.033-10.853 34.128-41.823 68.374-83.549 102.55-125.33 3.716-4.543 7.194-9.28 11.653-15.055-5.571-2.888-9.826-1.114-14.003-.447-4.603.735-9.211 1.428-13.815 2.157s-9.196 1.514-13.804 2.214-9.237 1.28-13.843 1.994c-3.948.612-7.87 1.39-11.818 2-4.608.71-9.24 1.26-13.845 1.986-4.603.726-9.165 1.744-13.783 2.34-4.527.585-9.102.8-14.599 1.256-3.446-14.407-1.359-28.312-1.81-42.021-.482-14.649-.349-29.32-.407-43.98-.056-13.887-.013-27.773-.013-42.116 18.227-5.886 36.24-6.6 53.77-9.712 17.698-3.142 35.519-5.589 53.288-8.33 17.77-2.741 35.542-5.465 53.312-8.205 17.597-2.713 35.383-4.473 52.164-8.554 2.25-20.863 1.987-72.172-.376-88.036-15.211-1.007-29.925 3.447-44.88 5.4-15.1 1.973-30.16 4.238-45.107 6.356-3.334-15.925-4.687-110.214-1.873-127.753 99.353-15.604 199.207-30.757 300.195-46.026.961 4.186 2.17 7.16 2.255 10.164 1.022 36.635 1.898 73.275 2.726 109.915.043 1.908-.687 3.833-1.31 7.054-26.02 6.672-53.415 7.56-79.522 13.732-3.4 14.337-3.746 68.734-.502 88.495 23.116-.352 45.652-6.324 68.532-9.16 23.117-2.864 46.045-7.225 69.085-10.74 22.931-3.497 45.898-6.757 69.572-10.227 4.575 14.86 2.07 28.84 2.767 42.52.745 14.632.743 29.317.62 43.975-.115 13.84 1.529 27.77-.701 42.47l-208.84 32.61c-4.655 6.273-3.11 12.482-3.127 18.32-.131 45.32-.073 90.642-.073 137.964M1458.408 2297.403c50.584 34.243 84.113 79.306 99.032 137.197 36.103 140.09-57.55 267.043-183.397 290.137-128.94 23.663-245.3-60.31-272.067-178.157-30.409-133.88 59.31-260.701 186.928-283.05 60.34-10.567 116.408.636 169.504 33.873m-186.904 285.514c4.037 2.316 7.957 4.874 12.13 6.914 52.393 25.629 115.253 4.937 141.84-46.956 13.895-27.122 15.533-55.138 4.14-87.34-3.312 8.513-5.137 14.01-7.538 19.243-12.254 26.707-40.673 40.168-69.71 33.18-26.907-6.476-45.939-32.397-44.317-61.11 1.219-21.592 12.032-37.442 30.289-48.744 3.439-2.129 9.779-1.276 9.933-9.283-7.225-.338-14.315-1.08-21.387-.938-65.211 1.305-114.66 64.516-100.498 128.122 6.054 27.189 20.262 48.875 45.118 66.912M1631.683 1679.715a37171 37171 0 0 0-74.449 10.342c-3.108-15.933-1.136-96.119 2.933-125.324 18.001-5.652 37.294-6.345 56.173-9.251 19.071-2.936 38.164-5.73 58.627-8.794.731-4.031 2.165-8.373 2.203-12.726.22-25.316.112-50.634.115-75.951v-19.999c13.542-7.39 28.022-5.944 41.449-8.963 13.6-3.058 27.634-4.155 41.451-6.283 13.79-2.125 27.545-4.462 42.507-6.9.912 4.211 2.339 7.806 2.366 11.41.198 25.983.113 51.967.117 77.95v21.145c4.934.125 8.681.742 12.267.23 31.632-4.515 63.227-9.284 94.855-13.827 4.504-.647 9.123-.485 13.598-.693 3.097 16.605.941 98.242-3.322 124.816-37.993 7.048-76.947 10.956-116.34 17.707-1.98 13.654-.81 26.226-1.01 38.699-.214 13.322-.312 26.656.029 39.972.32 12.52-1.544 25.169 1.524 38.806 21.66-1.236 42.33-6.482 63.29-9.333 20.435-2.78 40.69-6.864 61.064-10.135 20.91-3.356 41.868-6.421 62.735-9.603 2.881 15.134 3.69 111.457 1.292 128.914-2.326.83-4.748 2.153-7.312 2.544-159.815 24.382-319.642 48.688-479.645 73.028-1.18-2.542-2.674-4.243-2.64-5.911.809-39.242 1.78-78.48 2.755-119.05 27.914-6.897 56.213-9.9 84.167-14.67 27.456-4.683 54.956-9.107 82.145-13.597 1.102-2.862 2.394-4.662 2.4-6.465q.163-53.96-.024-107.919c-.006-1.826-1.248-3.648-2.231-6.338-13.84 2.001-27.588 3.989-43.089 6.169M2254.31 1538.896c27.31-80.025 80.421-131.13 160.78-151.745 126.628-32.486 252.157 53.392 273.79 179.512 19.162 111.71-50.464 228.417-171.552 255.747-129.698 29.273-250.739-59.76-269.989-183.153-5.246-33.634-2.619-66.348 6.97-100.361m264.34-16.084c-5.355-2.636-10.562-5.638-16.085-7.853-62.803-25.188-133.451 23.71-129.96 95.071.15 3.061-.48 6.81 4.664 8.717 13.014-28.444 34.221-45.567 67.025-40.572 26.152 3.982 42.41 20.277 49.043 46.22 2.952 11.545 1.315 22.504-2.3 33.318-4.345 12.993-10.735 19.133-37.732 38.451.825.903 1.546 2.467 2.489 2.615 59.838 9.393 119.527-44.802 106.456-113.035-4.99-26.043-19.329-46.33-43.6-62.932M1535.23 1275.501c35.338-5.274 68.929-10.33 102.516-15.412 12.41-1.877 24.81-3.813 36.75-5.65 3.424-14.795 4.036-89.804.978-113.529-10.342-1.83-20.405 2.717-30.668 3.536-11.262.898-22.462 2.894-33.603 4.89-10.42 1.868-20.775 3.87-31.277 3.649-2.43-13.091-2.024-103.257.554-127.4 30.863-8.084 63.568-8.919 95.475-16.544 2.74-18.455.923-36.396 1.26-54.247.327-17.278.071-34.568.071-52.77 20.86-7.355 42.19-7.976 62.885-11.612 20.798-3.655 41.716-6.62 63.835-10.085 2.305 19.29.657 37.205 1.165 55.03.49 17.219-1.075 34.506 1.044 51.77 7.803 3.378 15.035.804 22.028-.198 28.348-4.061 56.621-8.645 84.937-12.938 2.497-.379 5.101-.05 7.55-.05 2.9 16.393 4.374 105.963 2.021 127.292-37.891 7.778-76.962 11.329-115.857 18.917-3.333 13.085-1.276 25.716-1.639 38.165-.369 12.655-.456 25.344.025 37.991.47 12.368-2.164 25.005 2.199 38.568 30.213-4.491 59.724-8.929 89.251-13.253 28.912-4.234 57.841-8.353 86.452-12.477 1.037 2.146 1.879 3.28 2.121 4.531.377 1.945.496 3.97.466 5.958-.581 38.61-1.2 77.218-1.809 115.618-2.486 1.317-4.139 2.797-5.975 3.078a484707 484707 0 0 1-477.972 73.06c-1.814.276-3.782-.462-5.584-.713-2.533-16.151-.834-101.858 2.647-128.887 5.9-1.11 12.24-2.402 18.618-3.473 5.91-.992 11.858-1.747 19.537-2.815M1060.073 1542.934c-5.398 4.857-11.092 9.426-16.145 14.618-32.062 32.944-64.001 66.008-95.927 99.084-4.617 4.784-8.943 9.85-12.343 13.613-2.708.229-3.365.367-4.007.316-.63-.05-1.32-.165-1.85-.48-1.14-.676-2.274-1.408-3.274-2.275-29.672-25.747-59.327-51.512-89.107-77.38 2.056-8.147 8.491-12.311 13.393-17.42 89.95-93.739 180.017-187.364 270.05-281.024 24.008-24.975 48.011-49.956 71.934-75.015 3.081-3.227 5.66-6.936 9.947-12.253l-219.146 24.087c-4.113-13.503-1.82-26.076-2.229-38.394-.42-12.646-.178-25.315-.198-37.974-.02-12.626-.004-25.252-.004-38.828 4.709-1.646 8.791-3.808 13.104-4.47 55.93-8.579 111.905-16.864 167.843-25.388 56.597-8.624 113.152-17.517 169.755-26.101 16.444-2.494 32.934-4.988 49.496-6.333 30.845-2.505 58.525 20.316 64.745 50.902 4.147 20.391-1.332 38.256-14.248 54.025-4.63 5.653-10.025 10.683-15.12 15.949-72.741 75.165-145.494 150.32-218.227 225.491-3.703 3.827-7.259 7.796-12.524 13.505-41.59 42.998-81.55 84.177-121.45 125.415-1.775 1.834-2.992 4.208-4.468 6.33M2946.902 2482.991c-43.22 6.537-84.714 12.753-126.197 19.04-46.04 6.976-92.072 14.017-138.872 21.146-1.307-2.478-3.186-4.602-3.558-6.963-6.11-38.765-12.032-77.56-18.16-117.417 4.238-1.224 7.773-2.671 11.445-3.241 51.332-7.966 102.683-15.804 154.028-23.688 56.61-8.693 113.219-17.4 169.827-26.106 19.09-2.935 38.173-5.914 57.266-8.827 42.48-6.481 75.487 26.83 75.021 63.611-.22 17.328-.1 34.662.019 51.992.035 5.222.584 10.441.935 16.28 18.92.454 36.304-4.444 53.988-6.546 13.877-1.65 27.6-5.075 41.503-5.94 40.284-2.511 71.965 31.005 67.602 70.954-.643 5.887-2.211 11.832-4.331 17.376-35.674 93.28-71.5 186.5-107.336 279.718-.45 1.174-1.474 2.129-2.825 4.016-1.988-.156-4.714.222-6.972-.635-35.478-13.463-70.9-27.074-106.307-40.721-1.16-.447-2.038-1.624-4.164-3.386 5.193-19.959 14.42-39.097 21.563-58.928 7.443-20.668 15.597-41.08 23.459-61.596 7.603-19.844 15.23-39.679 23.478-61.16-4.348-.238-7.347-.887-10.191-.472-11.86 1.731-23.644 3.976-35.512 5.64-6.581.924-13.263 1.329-19.913 1.53-31.267.95-61.394-25.43-62.713-60.04-.684-17.972-.15-35.99-.295-53.985-.047-5.883-.5-11.763-.8-18.354-17.806-.068-33.926 4.09-51.988 6.702"/><path fill="#ED7200" d="M1059.99 1544.887c1.56-4.075 2.776-6.449 4.55-8.283 39.9-41.238 79.862-82.417 120.97-124.095 21.749 10.298 42.458 20.866 62.898 31.93 19.283 10.439 38.157 21.631 57.433 32.082 39.747 21.55 79.665 42.782 119.456 64.25 8.186 4.416 16.056 9.416 24.194 13.926 21.015 11.647 28.282 31.793 29.392 53.423.694 13.526-3.462 27.92-14.658 38.004-13.322 11.997-26.538 24.187-40.612 35.26-39.66 31.205-79.786 61.818-119.637 92.78-48.24 37.484-96.411 75.058-144.566 112.652-21.555 16.827-45.267 18.603-69.398 7.94-22.193-9.805-32.462-29.394-33.593-52.657-1.26-25.9-.212-51.914-.165-77.878.022-11.983-.048-23.968.107-35.95.163-12.6-.736-25.215 2.616-37.697 1.343-4.998.59-10.587.607-15.908.132-42.609.22-85.217.405-129.779m124.568 159.235c7.117 2.147 11.08-3.732 15.365-7.015 31.636-24.239 62.921-48.936 94.19-73.651 2.296-1.816 3.592-4.898 5.932-8.21-6.457-3.66-11.577-6.588-16.722-9.473-9.857-5.527-19.687-11.105-29.602-16.526-17.507-9.57-34.997-19.175-52.657-28.456-4.456-2.341-8.985-6.403-16.94-1.571-.155 46.437-.422 94.216.434 144.902M1740.022 2735.673c14.783 23.118 30.026 44.019 48.366 62.592 18.395 18.629 39.636 33.4 61.885 46.837 37.463 22.625 78.413 35.324 121.224 43.32 14.548 2.717 29.048 2.76 43.573 4.068 16.525 1.488 32.869.51 49.357.152 35.55-.774 69.828-7.787 103.82-17.188 28.264-7.817 55.499-18.566 81.892-31.112 28.276-13.44 54.902-30 79.956-48.8 20.74-15.563 41.168-31.685 58.729-50.894 22.909-25.06 43.884-51.597 61.477-80.816 15.88-26.376 28.7-54 38.184-83.237.818-2.523 2.03-4.916 2.982-7.399 2.1-5.477 5.957-8.282 11.844-9.288 12.406-2.12 24.669-5.089 37.085-7.134 16.28-2.681 32.652-4.806 48.731-7.134 4.725 5.073 3.11 10.508 1.827 15.504-7.953 30.958-17.7 61.387-30.911 90.49-17.087 37.641-37.055 73.605-62.548 106.49-26.634 34.357-56.55 65.221-89.86 93.113-37.51 31.408-78.623 57.005-122.626 77.931-45.793 21.778-93.82 37.023-143.593 47.018-31.456 6.316-63.098 8.879-95.093 8.275-9.326-.177-18.667-.348-27.984-.028-36.24 1.244-71.35-5.648-106.269-14.231-45.068-11.078-86.811-30.152-125.367-55.402-39.79-26.058-73.502-59.114-102.085-97.315-20.075-26.83-34.997-56.51-49.109-86.671-1.652-3.533-2.453-7.499-3.33-11.337-.26-1.132.578-2.513 1.306-5.264 28.722-7.07 58.6-10.858 89.546-14.42 5.766 10.787 11.052 20.678 16.99 31.88"/><path fill="#030200" d="M2285.311 1181.283c29.263-38.107 57.736-75.023 85.935-112.147 8.74-11.506 19.366-20.26 33.145-24.515 21.916-6.768 42.204-3.011 60.174 11.318 8.324 6.637 16.108 13.953 24.11 20.99 85.029 74.782 170.058 149.562 255.059 224.375 4.45 3.916 8.642 8.123 12.84 12.086-10.652 15.771-71.59 84.673-84.464 95.347l-236.863-208.143c-6.82 1.991-9.237 7.833-12.68 12.32-57.182 74.485-114.233 149.072-171.394 223.573-4.367 5.692-7.987 12.16-13.945 16.225-15.18-8.21-87.817-63.792-100.637-77.13 49.19-64.286 98.508-128.737 148.72-194.299M1551 2899.337c35.21-5.439 68.685-10.644 101.844-15.8 6.13 14.531 19.213 94.575 20.624 125.038-2.794.916-5.755 2.358-8.863 2.836-69.745 10.731-139.498 21.416-209.277 31.918-7.874 1.186-15.944 1.948-23.881 1.675-32.285-1.11-57.81-26.067-60.089-58.276-.281-3.981-.224-7.99-.224-11.987-.013-67.297-.022-134.595.011-201.893.003-5.207.322-10.413.53-16.687 11.21-2.49 21.782-1.115 32.2-1.347 10.655-.237 21.32-.052 31.982-.052 9.994 0 19.991-.133 29.983.037 10.475.178 21.064-.938 32.426 1.208 1.785 25.528.632 50.066.837 74.56.206 24.562.046 49.128.046 74.57 18.007 1.024 33.86-4.376 51.851-5.8"/><path fill="#030300" d="M1226.38 2926.493c-28.903 61.356-57.013 121.434-86.053 182.482l-114.25-53.814c1.413-4.502 2.134-8.257 3.71-11.611 48.092-102.347 96.265-204.657 144.451-306.96 1.116-2.368 2.519-4.6 4.329-7.873 20.383 6.764 38.743 17.296 57.86 26.023 18.682 8.529 37.166 17.492 56.378 26.567-4.615 17.876-13.928 32.5-20.844 48.092-7.28 16.414-15.289 32.502-22.924 48.759-7.353 15.654-14.635 31.342-22.656 48.335"/><path fill="#040300" d="M2821.359 2685.545c-26.973 63.185-53.302 124.98-79.89 187.385-15.031-2.564-27.056-9.823-39.816-14.926-12.979-5.191-25.744-10.918-38.6-16.42-12.758-5.46-25.512-10.932-39.543-16.945 12.766-33.431 27.156-64.72 40.501-96.428 13.434-31.916 27.068-63.748 40.674-95.592 13.584-31.793 27.24-63.555 41.304-96.354 3.629.874 6.778 1.192 9.563 2.37a18651 18651 0 0 1 95.545 40.77c4.162 1.789 8.065 4.183 12.704 6.62-14.164 33.254-27.98 65.692-42.442 99.52M2309.44 890.61c21.483 16.86 41.847 32.818 62.035 48.639-8.75 15.158-161.873 211.965-181.912 234.137-12.655-5.753-74.378-52.952-99.584-76.187.632-1.718.896-3.867 2.038-5.33 59.428-76.08 118.93-152.102 179.183-229.1 3.905 2.238 7.395 3.78 10.357 6.02 9.031 6.829 17.86 13.927 27.884 21.822M2409.097 3252c-.086 39.994-.157 77.987-.32 115.98-.005 1.229-.937 2.454-2.063 5.216-18.08 2.936-36.874 6.776-56.915 8.073-3.646-16.366-1.463-32.252-1.838-47.974-.366-15.313-.08-30.64-.08-45.725-4.825-2.502-6.291 1.09-8.032 3.62-7.93 11.528-15.716 23.157-23.627 34.698-2.143 3.127-4.546 6.075-7.425 9.896-8.375-6.523-13.26-14.572-19.675-21.117-5.796-5.912-9.725-13.814-19.118-18.924-1.6 6.587-.98 11.78-1.09 16.841-.116 5.33-.027 10.665-.027 15.998v63.269c-13.979 5.394-38.525 9.503-59.472 10.206-.512-1.823-1.501-3.708-1.504-5.593-.11-75.99-.142-151.98-.117-227.97.001-2.576.688-5.152 1.2-8.746l24.142-4.359c26.138 27.72 48.261 58.474 75.09 86.96 8.703-9.2 13.887-19.202 20.224-28.299 6.093-8.747 11.945-17.662 17.884-26.517 6.31-9.407 12.565-18.852 18.906-28.239 5.944-8.8 11.968-17.546 18.046-26.446l23.379-3.458c.98 2.24 1.961 3.441 1.968 4.646.213 38.655.331 77.31.464 117.964M2708.063 975.96a15172 15172 0 0 1 38.609 29.562c.22 1.572.39 2.219.379 2.862-.01.633-.014 1.391-.344 1.874-2.253 3.296-4.5 6.604-6.917 9.779-22.165 29.108-44.365 58.19-65.843 86.348-2.085.535-2.735.844-3.374.824-.608-.018-1.31-.241-1.794-.609-67.891-51.59-135.771-103.195-203.606-154.86-1.514-1.152-2.505-2.991-3.677-4.433 12.08-19.752 65.148-88.794 77.293-100.272 55.922 42.612 112.018 85.357 169.274 128.924"/><path fill="#050300" d="M2753.154 3110.993c16.176 19.003 23.067 40.431 25.741 63.172 3.472 29.531.027 58.457-11.44 86.071-8.561 20.617-21.123 38.406-39.247 51.867-11.347 8.428-23.744 15.021-37.696 17.458-28.025 4.892-56.17 9.09-84.844 13.668-.758-3.858-1.69-6.393-1.692-8.929-.077-77.775-.063-155.55-.063-233.525 4.092-1.444 7.08-3.046 10.237-3.526 23-3.494 46.033-6.763 69.057-10.102 26.775-3.882 50.065 2.797 69.947 23.846m-86.861 160.052c9.844 3.955 18.179-.594 26.376-4.972 10.414-5.562 17.704-14.25 21.768-25.18 8.145-21.906 8.829-44.445 2.206-66.698-7.026-23.606-26.55-31.7-50.24-22.052-.45 1.22-1.29 2.44-1.292 3.662-.084 37.307-.085 74.615 1.182 115.24"/><path fill="#060400" d="M1994.243 3372.924c-11.404-37.423-11.038-73.57-2.052-109.758 3.702-14.91 9.529-29.046 17.963-41.962 23.664-36.236 57.573-52.094 100.247-48.856 22.639 1.719 39.935 13.447 52.152 32.557 8.746 13.68 13.921 28.877 16.077 44.72 4.52 33.21 4.167 66.301-6.329 98.653-4.544 14.007-10.683 27.221-19.499 39.058-21.907 29.415-51.692 42.997-87.922 42.44-26.69-.412-47.095-12.638-60.705-35.606-3.7-6.243-6.239-13.172-9.932-21.246m50.943-81.125c-.087 7.976-.988 16.049-.064 23.907 1.308 11.14 2.623 22.593 6.32 33.072 7.673 21.754 23.843 22.03 38.403 18.04 9.308-2.55 16.805-8.476 21.166-17.093 3.563-7.04 6.795-14.585 8.279-22.273 3.933-20.379 4.188-41.006.452-61.489-1.06-5.812-2.897-11.684-5.506-16.973-6.599-13.379-18.852-18.49-33.246-15.05-13.324 3.186-22.967 11.085-27.649 23.6-3.685 9.851-5.252 20.494-8.155 34.259"/><path fill="#050400" d="M2535.672 3203.877a4554 4554 0 0 0 29.041-4.199c3.825 14.384 4.056 36.285.642 54.722l-58.618 9.796c-2.869 12.413-2.243 24.056-.536 36.545 22.476 1.322 43.463-6.7 66.065-6.953 3.178 17.428 1.29 34.514 1.14 51.325-13.396 5.61-91.386 18.602-128.083 21.429-.514-2.47-1.502-5.011-1.504-7.553-.082-77.835-.067-155.67-.067-233.69 3.456-1.286 5.79-2.624 8.272-3.008a24555 24555 0 0 1 116.387-17.698c1.154-.173 2.474.77 4.569 1.481.289 4.92.842 10.163.855 15.406.029 11.914-.208 23.828-.343 36.375-22.498 6.27-45.154 6.832-67.742 12.291-1.175 12.53-1.446 24.225.178 36.26 10.139 2.799 18.885-2.354 29.744-2.529"/><path fill="#070600" d="M1861.45 3386.45c6.604 8.897 14.47 12.134 23.566 11.717 10.275-.47 19.607-3.96 26.642-11.857 3.491-3.92 6.406-8.352 10.244-13.427l52.771 13.077c-6.67 21.657-18.474 38.052-34.888 51.131-20.042 15.97-43.329 23.235-68.75 22.568-24.904-.653-44.68-11.536-58.727-32.42-11.843-17.606-17.173-37.516-19.378-58.147-2.995-28.022-1.183-55.852 7.201-82.99 5.154-16.678 12.607-32.19 23.6-45.87 21.535-26.796 50.244-39.271 83.86-39.047 31.46.21 54.265 15.558 67.116 44.726-9.15 8.923-28.66 20.338-53.02 31.053-1.467-1.12-3.392-2.043-4.538-3.555-6.795-8.967-15.99-11.201-26.596-10.122-10.542 1.073-19.115 5.755-25.302 14.219-3.107 4.249-6.254 8.947-7.602 13.924-8.515 31.45-10.608 62.843 3.8 95.02"/><path fill="#040300" d="M3058.501 2094.433c18.059-16.556 37.958-23.437 61.12-23.479 35.796-.065 74.1 27.73 80.805 69.657 7.557 47.259-20.848 82.747-55.76 94.807-34.486 11.913-72.75.14-94.751-28.783-22.288-29.301-23.393-68.486-2.604-98.89 2.987-4.368 6.749-8.208 11.19-13.312"/><path fill="#060500" d="M2851.458 3060.961c5.415-.209 7.762 1.555 8.742 5.285 3.89 14.804 7.786 29.606 11.796 44.378 1.543 5.683 3.397 11.282 5.994 19.833 10.231-26.167 12.59-51.6 21.268-75.923 19.547-4.016 38.884-7.31 59.847-8.687-1.993 6.44-3.386 11.51-5.123 16.46-13.443 38.302-26.889 76.603-40.484 114.851-3.38 9.51-5.162 19.066-4.99 29.26.404 23.979.128 47.97.128 71.956v15.336c-13.562 6.151-40.28 10.55-59.785 9.959-.327-5.099-.927-10.294-.949-15.492-.102-24.652-.347-49.31.097-73.954.185-10.243-1.824-19.672-5.557-29.082-13.005-32.786-25.782-65.662-38.561-98.537-1.886-4.853-3.312-9.885-5.304-15.901 17.269-6.06 34.721-5.577 52.881-9.742"/><path fill="#050400" d="M1465.018 2081.348c2-3.58 3.336-5.842 4.487-7.794 1.817-.294 3.352-1.072 4.289-.617 36.433 17.704 72.812 35.52 110.043 53.736-4.76 16.902-13.94 30.775-20.779 45.626-7.228 15.699-15.226 31.045-22.898 46.54-7.35 14.845-14.715 29.683-22.457 45.297-20.74-7.72-39.116-18.32-58.135-27.483-18.48-8.903-36.802-18.13-56.162-27.695 8.852-22.665 20.285-42.797 30.214-63.603 10.024-21.002 20.471-41.802 31.398-64.007"/><path fill="#050300" d="M1184.664 2092.27c3.268.166 5.908.235 6.71 1.484 2.498 3.891 4.394 8.186 6.358 12.402a56764 56764 0 0 1 49.664 106.812c2.18 4.703 4 9.573 5.845 14.024-14.194 10.087-99.67 49.677-115.66 53.526l-63.204-136.035c18.115-10.997 36.776-17.865 54.537-26.456 17.97-8.692 36.176-16.896 55.75-25.756"/><path fill="#0B0900" d="M1678.945 3481.405c-12.962 4.143-25.256 7.015-37.69 9.014-28.258 4.544-56.582 8.673-84.89 12.901-1.24.185-2.583-.32-5.327-.71-.567-2.451-1.847-5.42-1.851-8.39-.108-75.283-.09-150.567-.042-225.85.002-1.956.573-3.911.859-5.745 13.282-5.788 38.107-10.09 58.267-10.131 4.772 4.136 2.864 9.813 2.879 14.831.148 49.967.067 99.934.12 149.901.006 6.573.397 13.145.642 20.692 22.715-.625 43.83-6.817 66.255-8.094 3.08 16.868 1.11 33.44.778 51.581"/><path fill="#070500" d="M1404.569 3281.81c6.198-.889 10.818-1.534 15.46-1.901 1.147-.091 2.366.72 4.96 1.589-3.863 4.92-7.421 9.487-11.015 14.025-8.72 11.011-16.15 22.77-21.638 35.766-6.097 14.439-6.043 28.469 1.898 42.199 4.332 7.489 8.798 14.9 13.062 22.428 4.918 8.683 10.192 17.215 14.408 26.235 10.537 22.547 9.517 45.151-1.121 67.447a106 106 0 0 1-5.753 10.503c-16.609 26.544-18.907 27.9-50.392 32.327-12.519 1.76-24.967 4.018-37.465 5.933-3.759.576-7.577.76-14.41 1.413 5.34-5.98 8.86-9.685 12.11-13.613 7.625-9.213 16.026-17.951 22.467-27.942 11.293-17.52 12.806-36.078 1.865-54.733-3.704-6.315-7.217-12.742-10.859-19.094-3.972-6.93-7.908-13.882-12.008-20.737-14.346-23.986-13.065-48.157-.894-72.43 2.385-4.755 5-9.416 7.815-13.93 16.486-26.421 17.372-27.003 48.188-32.028 7.227-1.18 14.5-2.081 23.322-3.457"/><path fill="#040300" d="M864.687 2743.33c3.018 23.928-2.46 43.812-17.735 60.65-20.508 22.606-52.054 30.088-80.302 19.182-28.001-10.81-46.555-38.009-46.541-68.227.013-30.249 18.424-56.918 46.87-67.893 35.656-13.757 76.399 2.75 92.232 37.641 2.442 5.383 3.545 11.374 5.476 18.647M734.907 2596.628c-15.574-22.352-19.013-45.207-10.276-69.478 11.617-32.274 44.893-51.935 79.505-46.685 35.333 5.359 59.47 35.31 61.386 66.595 2.135 34.873-19.228 66.86-52.62 75.556-23.79 6.197-46.307 2.436-65.834-13.534-4.092-3.346-7.518-7.507-12.161-12.454"/><path fill="#0D0A00" d="M1453.158 3368c.09-30.613.163-59.225.327-87.837.007-1.211.861-2.418 1.797-4.879 18.285-5.637 38.067-6.365 58.075-9.919.815 3.868 1.704 6.354 1.814 8.873 1.596 36.75.402 218.526-1.567 234.204-18.664 5.805-38.387 6.866-57.26 9.77-1.433-2.28-2.725-3.376-2.73-4.478-.223-47.91-.333-95.822-.456-145.734M1704.48 3249.652c.254-5.099.506-8.372.739-11.394 15.528-5.344 43.85-9.752 58.795-9.266.386.503.81.982 1.149 1.515.355.56.9 1.172.9 1.761.144 77.2.256 154.4.292 231.6 0 1.917-.851 3.835-1.501 6.582-19.004 4.69-38.44 7.424-57.641 9.175-1.157-2.214-2.29-3.37-2.293-4.531-.206-74.539-.32-149.077-.44-225.442"/><path fill="#F1CA00" d="M3132.385 1012.572c36.27-17.371 72.053-31.468 110.32-38.55 24.257-4.488 48.7-7.173 73.325-8.12 4.547-.174 9.308.567 13.688 1.85 5.654 1.658 9.79 8.195 9.462 13.895-.334 5.807-3.404 10.227-8.57 12.508-3.563 1.573-7.639 2.208-11.556 2.714-17.153 2.217-34.285 4.802-51.51 6.206-38.374 3.13-74.222 14.585-108.622 31.306-5.38 2.615-10.796 5.213-16.375 7.348-9.253 3.541-16.773 1.308-20.847-5.737-3.553-6.143-2.168-13.033 4.23-19.631 1.347-1.388 3.356-2.134 6.455-3.79"/><path fill="#F2CB00" d="M3221.336 936.456c-32.308 7.39-60.663 20.77-89.675 32.345-3.698 1.475-7.237 3.452-11.037 4.545-7.751 2.23-14.456-1.14-17.982-8.547-2.958-6.212-1.325-12.953 4.916-17.582 3.708-2.75 7.916-4.888 12.067-6.967 46.954-23.51 96.113-38.798 149.07-40.083 9.974-.243 19.923-1.472 29.897-1.769a50.7 50.7 0 0 1 13.786 1.498c5.937 1.505 9.824 7.525 9.744 13.624-.075 5.825-4.3 12.229-9.88 13.596-4.463 1.093-9.182 1.26-13.806 1.557-25.232 1.618-50.534 2.508-77.1 7.783"/><path fill="#F3CC00" d="M3170.52 1107.038c-6.462 2.272-11.381 4.577-16.53 5.344-7.366 1.097-12.395-2.73-15.142-10.08-2.154-5.761-.601-11.93 4.658-15.93 3.131-2.38 6.736-4.243 10.334-5.888 56.019-25.621 114.116-43.39 176.126-46.067 5.228-.225 10.652-.096 15.712 1.062 6.25 1.431 9.9 6.953 10.18 13.22.267 5.972-3.331 12.044-9.141 14.057-3.702 1.282-7.754 1.684-11.689 2.143-15.17 1.769-30.395 3.098-45.526 5.144-41.181 5.568-79.787 19.614-118.982 36.995"/><path fill="#F1CA00" d="M3373.007 1272.543c-51.237 8.169-98.606 23.68-145.348 41.392-5.585 2.116-11.172 4.49-16.975 5.701-8.123 1.697-15.136-2.586-17.556-9.672-2.473-7.242.416-14.193 7.916-18.336 2.895-1.6 6.061-2.729 9.153-3.947 44.013-17.34 88.683-32.564 135.255-41.56 10.452-2.018 20.934-3.956 31.475-5.397 5.894-.805 11.979-1.043 17.901-.573 6.371.505 11.892 7.316 12.3 13.821.349 5.575-3.415 12.795-8.923 14.265-7.652 2.043-15.645 2.806-25.198 4.306M3186.208 1177.717c-6.455 1.793-11.604 3.916-16.688 3.768-6.395-.185-11.062-4.247-12.922-10.732-1.655-5.767.458-12.139 5.91-15.738 3.842-2.537 8.155-4.52 12.49-6.123 24.97-9.24 49.895-18.627 75.057-27.324 31.654-10.94 64.329-17.015 97.808-18.573 3.976-.185 8.019-.488 11.94-.005 7.63.939 12.093 5.813 12.707 13.085.623 7.37-2.856 13.4-9.948 15.35-6.392 1.758-13.03 3.053-19.633 3.54-54.524 4.02-105.769 20.011-156.721 42.752"/><path fill="#F2CB00" d="M3360.12 1171.954c6.45-.204 11.17-.814 15.744-.247 10.427 1.292 16.673 13.648 11.327 22.607-1.527 2.56-4.723 4.856-7.617 5.717-5.705 1.697-11.694 2.76-17.636 3.29-39.415 3.516-77.192 13.905-114.289 27.077-14.413 5.118-28.573 10.946-42.881 16.362-4.346 1.645-8.708 3.474-13.231 4.362-6.292 1.236-13.649-3.547-15.828-9.535-2.458-6.754-.48-13.777 5.221-17.68 2.177-1.49 4.597-2.699 7.04-3.718 54.847-22.881 110.875-41.606 172.15-48.235"/><path fill="#F1CA00" d="M3369.214 1327.457c3.478 16.532 7.234 31.393 9.536 46.477 4.56 29.858-4.229 55.4-27.761 74.783-16.037 13.209-34.666 22.388-54.156 29.214-6.465 2.264-14.405 1.605-21.433.609-6.8-.963-8.683-9.522-3.39-13.819 4.073-3.307 8.753-5.934 13.369-8.493 9.292-5.153 18.976-9.638 28.051-15.137 26.852-16.272 37.673-40.081 32.319-71.104-2.034-11.785-4.29-23.534-6.133-35.348-.708-4.542-1.004-9.254-.665-13.827.438-5.906 4.422-9.514 9.757-11.463 5.678-2.073 10.873-.342 14.28 4.172 2.69 3.563 3.952 8.204 6.226 13.936"/><path fill="#EEC700" d="M3386.643 1439.262c5.743-3.618 10.312-6.35 14.577-9.497 22.299-16.446 31.487-38.922 28.74-66.041-1.469-14.49-4.679-28.804-7.154-43.19-.561-3.261-1.68-6.46-1.94-9.735-.524-6.577 3.324-11.805 9.424-13.466 6.787-1.848 14.369 1.159 16.692 7.298 1.868 4.935 3.049 10.174 4.104 15.365 2.248 11.053 4.184 22.168 6.304 33.246 5.272 27.55-2.408 51.27-21.692 71.201-15.558 16.08-34.973 26.131-55.782 33.646-2.42.875-5.247 1.215-7.791.938-1.62-.177-3.802-1.653-4.381-3.091-.576-1.43-.088-4.401 1.018-5.205 5.321-3.868 11.009-7.232 17.88-11.469"/><path fill="#EAC300" d="M3468.366 1420.49c18.929-18.876 24.669-41.824 20.533-67.637-2.202-13.744-5.016-27.389-7.357-41.112-.774-4.54-1.417-9.202-1.246-13.775.19-5.09 3.331-8.511 8.34-9.878 5.534-1.509 10.924.719 13.538 5.637.922 1.733 1.797 3.605 2.143 5.514 2.715 14.981 6.377 29.893 7.696 45.004 2.802 32.085-8.208 58.634-36.89 78.545-3.661-.351-5.21-1.324-6.757-2.298"/><path fill="#917F00" d="M3467.155 1421.013c2.759.45 4.307 1.424 6.841 2.547-13.928 12.21-16.954 13.769-30.94 15.742 8.65-6.713 15.769-12.24 24.099-18.289"/><path fill="#FDD300" d="M1939.153 2515.999c.108-85.968.21-169.937.38-253.905.003-1.213.856-2.425 1.313-3.637 18.181-5.327 288.367-47.464 333.569-51.986 4.74 5.502 2.644 12.4 2.655 18.679.138 85.974.093 171.948.093 257.923 0 14.662.07 29.325-.043 43.987-.035 4.58-.56 9.156-.941 14.95-37.445 7.315-74.973 11.901-112.264 17.829-36.827 5.854-73.752 11.086-110.613 16.73-37.306 5.713-74.531 12.007-113.597 16.939-1.09-26.461-.306-50.999-.552-77.51"/><path fill="#F8D000" d="M1270.33 2582.057c-23.682-17.177-37.89-38.863-43.944-66.052-14.162-63.606 35.287-126.817 100.498-128.122 7.072-.142 14.162.6 21.387.938-.154 8.007-6.494 7.154-9.933 9.283-18.257 11.302-29.07 27.152-30.29 48.744-1.62 28.713 17.411 54.634 44.318 61.11 29.037 6.988 57.456-6.473 69.71-33.18 2.4-5.233 4.226-10.73 7.538-19.242 11.393 32.201 9.755 60.217-4.14 87.34-26.587 51.892-89.447 72.584-141.84 46.955-4.173-2.04-8.093-4.598-13.304-7.774"/><path fill="#F7CF00" d="M2519.912 1523.57c23.008 15.845 37.348 36.13 42.337 62.174 13.07 68.233-46.618 122.428-106.456 113.035-.943-.148-1.664-1.712-2.487-2.616 26.995-19.317 33.385-25.457 37.73-38.45 3.615-10.814 5.252-21.773 2.3-33.318-6.633-25.943-22.89-42.238-49.043-46.22-32.804-4.995-54.01 12.128-67.025 40.572-5.144-1.908-4.514-5.656-4.664-8.717-3.491-71.36 67.157-120.26 129.96-95.07 5.523 2.214 10.73 5.216 17.348 8.61"/><path fill="#FED200" d="M1184.179 1702.672c-.478-49.236-.21-97.015-.056-143.452 7.955-4.832 12.484-.77 16.94 1.571 17.66 9.28 35.15 18.886 52.657 28.456 9.915 5.421 19.745 10.999 29.602 16.526 5.145 2.885 10.265 5.813 16.722 9.472-2.34 3.313-3.636 6.395-5.932 8.21-31.269 24.716-62.554 49.413-94.19 73.652-4.286 3.283-8.248 9.162-15.743 5.565"/><path fill="#F2CB00" d="M2665.652 3269.386c-.626-38.966-.625-76.274-.541-113.581.002-1.222.842-2.441 1.293-3.661 23.69-9.649 43.213-1.555 50.239 22.051 6.623 22.253 5.94 44.792-2.206 66.698-4.064 10.93-11.354 19.618-21.768 25.18-8.197 4.378-16.532 8.927-27.017 3.313"/><path fill="#F7CE00" d="M2045.384 3290.062c2.705-12.028 4.272-22.67 7.957-32.522 4.682-12.515 14.325-20.414 27.649-23.6 14.394-3.44 26.647 1.671 33.246 15.05 2.609 5.289 4.446 11.16 5.506 16.973 3.736 20.483 3.48 41.11-.452 61.49-1.484 7.687-4.716 15.233-8.279 22.272-4.36 8.617-11.858 14.544-21.166 17.094-14.56 3.989-30.73 3.713-38.404-18.04-3.696-10.48-5.01-21.933-6.32-33.073-.923-7.858-.022-15.93.263-25.644"/></svg>
