<?xml version="1.0" standalone="no"?>
<!DOCTYPE svg PUBLIC "-//W3C//DTD SVG 20010904//EN"
 "http://www.w3.org/TR/2001/REC-SVG-20010904/DTD/svg10.dtd">
<svg version="1.0" xmlns="http://www.w3.org/2000/svg"
 width="3472.000000pt" height="1279.000000pt" viewBox="0 0 3472.000000 1279.000000"
 preserveAspectRatio="xMidYMid meet">

<g transform="translate(0.000000,1279.000000) scale(0.100000,-0.100000)"
fill="#000000" stroke="none">
<path d="M30105 11285 c-606 -56 -1198 -276 -1715 -640 -295 -207 -607 -514
-825 -813 -379 -521 -616 -1156 -666 -1786 -17 -210 -6 -635 21 -811 103 -683
368 -1272 809 -1800 175 -209 455 -463 691 -626 756 -524 1694 -735 2610 -587
754 121 1447 484 1985 1039 331 341 580 728 758 1179 235 594 304 1264 196
1895 -181 1052 -816 1961 -1744 2495 -632 364 -1373 523 -2120 455z m995 -930
c772 -96 1479 -545 1927 -1225 207 -314 346 -642 428 -1012 120 -546 92 -1104
-83 -1634 -248 -750 -759 -1349 -1437 -1684 -384 -190 -743 -274 -1170 -273
-292 0 -532 39 -810 130 -979 320 -1719 1210 -1894 2279 -36 215 -44 344 -38
593 11 447 93 810 275 1206 145 317 330 583 582 836 296 298 581 485 965 634
245 95 463 141 795 169 77 7 340 -5 460 -19z"/>
<path d="M17030 11151 c-324 -52 -520 -112 -749 -228 -523 -265 -876 -719
-959 -1233 -65 -397 -18 -758 138 -1058 169 -327 463 -591 913 -822 147 -76
272 -133 677 -309 198 -87 341 -152 479 -218 84 -40 155 -73 156 -73 10 0 329
-157 416 -205 155 -85 345 -214 426 -289 402 -372 474 -976 172 -1435 -261
-396 -826 -650 -1339 -602 -535 51 -1043 291 -1387 655 -230 244 -383 499
-499 829 l-48 137 -41 0 -42 0 -11 -87 c-7 -51 -13 -319 -16 -626 -5 -619 -7
-607 73 -687 144 -144 975 -418 1620 -535 504 -91 854 -77 1278 51 401 121
722 316 996 604 225 237 409 534 501 810 156 471 91 945 -187 1355 -112 165
-361 394 -607 560 -229 153 -420 250 -902 456 -194 83 -427 188 -518 233 -532
267 -1009 614 -1161 846 -158 240 -187 573 -74 851 83 204 300 425 537 545
252 128 580 166 928 108 531 -88 999 -371 1313 -792 157 -210 254 -401 342
-672 34 -103 40 -112 79 -108 54 5 60 59 57 508 -2 383 -2 385 -26 437 -37 83
-81 139 -205 267 -203 210 -352 323 -575 434 -246 123 -419 182 -716 246 -202
44 -346 58 -644 62 -237 3 -298 1 -395 -15z"/>
<path d="M22965 11164 c-185 -29 -291 -47 -345 -60 -716 -173 -1269 -669
-1424 -1277 -40 -155 -51 -259 -51 -477 0 -176 3 -221 24 -320 97 -470 366
-820 861 -1117 91 -54 354 -188 485 -246 44 -19 181 -79 305 -132 124 -54 326
-145 450 -203 124 -57 254 -118 290 -134 121 -55 415 -205 495 -252 126 -75
269 -181 342 -254 349 -346 434 -864 212 -1298 -137 -271 -379 -479 -705 -608
-170 -67 -401 -115 -554 -116 -98 0 -322 28 -440 56 -434 102 -756 279 -1061
583 -245 245 -397 489 -523 839 l-53 147 -39 3 -40 3 -14 -58 c-11 -46 -15
-181 -18 -635 -3 -573 -3 -577 19 -627 25 -59 87 -119 156 -154 180 -90 547
-221 868 -310 521 -145 892 -208 1234 -209 361 -2 730 88 1085 264 431 213
771 557 1001 1013 125 246 173 427 182 681 7 189 -6 311 -47 459 -97 343 -294
619 -630 879 -317 245 -525 357 -1175 631 -302 128 -493 220 -700 340 -396
227 -730 480 -859 648 -66 87 -128 214 -157 322 -31 115 -31 345 0 460 27 101
95 242 155 322 139 183 374 347 606 421 160 51 277 65 474 59 205 -6 361 -31
545 -87 647 -196 1137 -681 1366 -1350 l52 -155 36 -3 c27 -2 37 1 41 15 19
64 26 191 26 505 0 410 0 408 -93 534 -61 82 -281 303 -383 384 -308 245 -797
432 -1294 496 -111 15 -640 28 -705 18z"/>
<path d="M1120 11061 l-205 -6 -72 -40 c-40 -22 -73 -42 -73 -45 0 -5 107 -78
138 -95 8 -4 56 -18 107 -30 114 -28 222 -83 271 -137 45 -50 89 -142 111
-234 16 -64 18 -263 21 -2724 2 -1797 0 -2691 -8 -2766 -14 -153 -40 -226
-104 -289 -60 -59 -119 -89 -315 -161 -154 -57 -201 -88 -221 -149 -14 -42 -1
-74 48 -123 28 -28 53 -42 88 -50 31 -7 365 -13 929 -18 484 -3 900 -8 924 -9
24 -2 377 -6 785 -10 407 -3 760 -8 783 -11 121 -13 835 25 1148 62 301 35
828 130 893 161 54 26 108 96 141 186 141 385 189 517 299 827 l125 355 6 113
c5 87 3 111 -6 108 -7 -3 -46 -30 -86 -61 -59 -44 -89 -77 -148 -163 -459
-669 -797 -949 -1270 -1051 -333 -71 -914 -112 -1554 -109 -865 4 -1039 14
-1144 67 -84 43 -133 137 -152 290 -16 128 -25 5287 -10 5433 28 268 140 394
410 462 57 14 111 32 120 38 9 7 38 30 64 52 55 44 57 40 -50 96 l-62 33 -863
1 c-475 1 -955 0 -1068 -3z"/>
<path d="M7480 10881 l-165 -6 -72 -37 c-39 -21 -74 -42 -77 -47 -3 -5 25 -30
63 -56 55 -37 92 -54 178 -76 196 -53 293 -120 353 -244 79 -162 82 -237 75
-1700 -7 -1313 3 -2126 29 -2308 71 -496 286 -989 594 -1357 154 -184 338
-349 542 -484 605 -404 1455 -563 2240 -420 115 21 347 85 467 129 127 47 393
178 506 249 228 144 515 398 673 596 290 364 476 781 556 1250 24 141 32 456
36 1400 1 278 4 515 6 525 2 11 7 387 10 835 7 810 15 1083 36 1174 39 174
145 260 422 342 111 32 133 43 178 82 l51 45 -33 34 c-18 19 -47 43 -65 54
-31 19 -53 20 -828 20 l-797 0 -41 -25 c-23 -14 -55 -36 -70 -49 l-28 -24 54
-49 c50 -46 63 -52 186 -86 165 -47 252 -88 312 -148 95 -95 117 -179 129
-500 23 -599 44 -1803 44 -2565 1 -743 -1 -845 -17 -975 -44 -348 -102 -554
-237 -835 -225 -467 -545 -816 -915 -998 -264 -130 -484 -184 -795 -194 -352
-11 -657 55 -966 212 -511 259 -895 751 -1028 1317 -64 269 -60 144 -61 2128
0 2022 2 2131 35 2235 59 184 171 272 425 336 73 18 98 30 149 71 33 27 62 52
63 56 3 8 -87 61 -137 80 -29 12 -206 15 -975 17 -517 1 -1014 0 -1105 -4z"/>
<path d="M25883 2783 l-40 -48 -224 -8 c-221 -8 -719 -2 -812 10 -37 4 -55 13
-80 39 -17 19 -39 34 -48 34 -33 0 -56 -45 -63 -122 -4 -40 -16 -117 -27 -172
-22 -106 -20 -146 10 -146 24 0 31 9 79 105 71 141 115 165 306 165 66 0 138
-5 159 -11 33 -9 37 -14 37 -42 0 -18 0 -286 0 -596 0 -631 1 -615 -70 -651
-20 -10 -65 -22 -101 -26 -70 -7 -89 -17 -89 -45 0 -27 26 -30 200 -21 85 4
234 4 329 -1 151 -6 177 -5 190 8 27 27 2 49 -65 58 -144 20 -172 42 -183 144
-5 37 -8 309 -7 603 1 416 4 540 14 558 12 21 18 22 142 22 131 0 213 -11 262
-36 35 -18 49 -64 46 -155 -3 -73 -3 -74 23 -77 40 -5 51 26 75 223 9 66 18
140 21 164 5 36 2 47 -12 58 -26 19 -27 18 -72 -34z"/>
<path d="M9155 2783 c-83 -10 -179 -40 -265 -82 -80 -39 -109 -60 -185 -136
-70 -69 -101 -109 -133 -172 -96 -187 -124 -380 -83 -578 36 -174 103 -297
227 -414 133 -127 298 -191 499 -194 242 -4 419 67 591 238 141 141 214 288
237 481 41 355 -157 677 -498 807 -115 44 -274 65 -390 50z m186 -87 c212 -64
364 -247 436 -524 34 -133 43 -333 19 -452 -57 -285 -249 -440 -531 -428 -109
5 -179 30 -265 95 -119 89 -216 257 -267 459 -24 97 -27 128 -28 279 0 152 2
177 23 240 58 173 169 282 334 325 87 23 215 25 279 6z"/>
<path d="M17836 2758 c-8 -18 -71 -172 -140 -343 -70 -170 -145 -353 -166
-405 -22 -52 -86 -211 -143 -352 -58 -142 -112 -269 -121 -283 -11 -16 -36
-30 -78 -43 -58 -17 -63 -20 -63 -47 l0 -29 242 -2 c257 -2 272 1 259 44 -5
15 -25 23 -92 35 -47 9 -92 21 -100 28 -24 20 -15 79 35 229 79 237 111 311
138 321 32 12 375 12 407 -1 14 -5 32 -23 41 -41 34 -64 195 -475 195 -495 0
-33 -23 -45 -101 -53 -77 -6 -105 -25 -81 -54 10 -12 60 -14 305 -12 160 1
296 3 300 4 19 3 1 46 -23 53 -151 44 -143 39 -177 103 -81 150 -356 799 -535
1260 -36 93 -50 115 -70 115 -12 0 -24 -12 -32 -32z m89 -509 c41 -118 75
-219 75 -226 0 -10 -30 -13 -122 -14 -134 -1 -241 -1 -246 0 -1 1 5 18 14 39
9 20 46 111 84 202 108 261 101 246 111 228 5 -9 43 -112 84 -229z"/>
<path d="M19501 2778 c-323 -34 -554 -225 -643 -534 -20 -69 -23 -101 -23
-259 0 -202 10 -256 70 -380 61 -126 157 -220 287 -280 114 -52 217 -70 398
-69 246 1 414 36 491 102 l39 34 0 262 c0 167 4 275 11 295 13 37 53 61 103
61 70 0 113 36 69 58 -10 5 -143 8 -295 8 -249 -2 -280 -4 -295 -19 -32 -32
-6 -51 79 -58 135 -11 143 -27 143 -294 0 -262 -18 -305 -150 -350 -77 -27
-260 -32 -342 -10 -235 64 -364 303 -365 675 0 187 24 310 83 428 105 207 315
302 548 247 128 -31 251 -122 266 -198 17 -84 37 -128 63 -138 51 -20 53 -8
56 326 1 110 -14 122 -66 51 -18 -25 -39 -45 -46 -46 -7 0 -35 11 -63 26 -106
53 -269 78 -418 62z"/>
<path d="M23550 2443 c-79 -192 -171 -418 -206 -503 -34 -85 -98 -244 -142
-353 -44 -109 -88 -207 -98 -218 -10 -11 -44 -27 -76 -36 -59 -16 -82 -43 -59
-66 6 -6 98 -11 251 -13 l240 -2 6 23 c9 36 0 42 -73 54 -90 15 -122 29 -129
56 -9 37 39 197 125 417 51 129 30 121 289 116 184 -3 184 -3 206 -29 32 -37
208 -482 204 -516 -4 -35 -38 -53 -100 -53 -25 0 -53 -3 -62 -6 -19 -7 -21
-38 -3 -51 7 -7 123 -10 300 -9 258 1 289 3 298 18 14 24 -12 44 -67 53 -89
13 -111 30 -156 125 -112 234 -184 402 -373 869 -80 199 -156 386 -170 416
-44 99 -45 97 -205 -292z m219 -197 c45 -126 80 -230 79 -232 -3 -2 -340 -7
-366 -5 -10 1 -10 7 1 29 8 15 54 123 102 240 49 117 91 209 96 205 4 -4 44
-111 88 -237z"/>
<path d="M27535 2780 c-390 -62 -654 -379 -655 -787 0 -185 45 -340 140 -477
63 -91 129 -153 220 -206 378 -221 880 -86 1102 297 78 133 108 246 108 400 0
125 -15 210 -55 303 -118 282 -382 460 -704 475 -53 2 -123 0 -156 -5z m216
-86 c250 -73 425 -338 459 -692 15 -150 3 -276 -36 -384 -82 -226 -255 -337
-507 -326 -85 3 -103 8 -173 42 -210 103 -348 352 -385 692 -24 228 22 409
137 533 29 32 75 69 103 84 111 61 291 84 402 51z"/>
<path d="M4815 2759 c-55 -4 -169 -7 -253 -8 -84 0 -162 -6 -173 -11 -46 -25
-9 -51 94 -66 26 -3 58 -15 72 -26 l25 -19 0 -597 c0 -391 -4 -610 -11 -635
-12 -45 -40 -60 -139 -76 -73 -12 -90 -23 -74 -49 10 -16 45 -17 400 -20 325
-2 402 0 469 13 163 33 278 116 339 244 29 61 31 74 31 176 0 98 -3 116 -26
165 -14 31 -41 73 -60 95 -45 51 -138 110 -205 130 -30 8 -54 19 -54 23 0 5
18 16 40 26 156 69 228 219 181 379 -17 58 -91 144 -156 180 -89 50 -267 89
-375 83 -14 0 -70 -4 -125 -7z m274 -83 c60 -17 118 -53 149 -95 34 -46 55
-136 48 -204 -12 -117 -68 -197 -168 -242 -53 -24 -79 -29 -178 -33 -80 -3
-124 -1 -139 7 l-22 12 3 253 c3 276 3 276 63 302 40 18 177 17 244 0z m-49
-656 c217 -25 341 -153 341 -350 0 -106 -28 -179 -95 -245 -70 -70 -133 -90
-281 -90 -121 0 -157 12 -199 68 -20 27 -21 42 -24 318 l-3 289 23 9 c31 13
133 13 238 1z"/>
<path d="M12205 2759 c-60 -5 -123 -12 -139 -17 -34 -9 -52 -32 -43 -56 5 -13
22 -16 87 -16 72 0 84 -3 104 -24 35 -34 38 -111 34 -706 -4 -585 -3 -574 -77
-603 -23 -10 -52 -17 -64 -17 -31 0 -67 -27 -67 -50 0 -18 13 -19 283 -20 431
-3 464 -2 556 16 254 50 455 183 567 374 59 100 84 184 91 305 19 345 -156
623 -471 749 -155 62 -199 69 -486 72 -146 1 -314 -2 -375 -7z m560 -75 c219
-54 382 -176 465 -349 55 -114 71 -185 71 -324 0 -141 -17 -223 -70 -335 -51
-108 -120 -189 -212 -252 -108 -73 -211 -106 -342 -108 -91 -1 -106 2 -140 23
-21 12 -48 42 -60 65 -22 41 -22 44 -25 621 -2 319 0 590 3 602 7 29 42 61 80
73 38 12 150 4 230 -16z"/>
<path d="M5755 2749 c-59 -10 -70 -53 -17 -63 15 -3 52 -10 83 -16 35 -7 64
-19 78 -34 21 -22 21 -26 23 -612 3 -477 0 -595 -11 -621 -13 -33 -65 -65
-126 -78 -79 -17 -96 -26 -93 -48 l3 -22 592 -3 592 -2 14 22 c8 13 22 59 32
103 10 44 24 102 31 129 20 71 18 86 -10 86 -19 0 -35 -19 -87 -106 -40 -67
-75 -112 -95 -125 -52 -32 -220 -45 -408 -32 -179 12 -199 20 -217 85 -6 25
-12 144 -12 300 -2 226 0 259 14 274 14 13 43 16 170 17 138 2 159 0 201 -20
52 -24 68 -49 87 -135 14 -66 36 -92 56 -65 16 23 13 463 -4 480 -17 17 -41
-11 -52 -62 -24 -107 -58 -123 -280 -129 -148 -4 -167 -2 -183 13 -16 16 -17
40 -14 259 3 216 5 244 22 273 11 17 30 36 43 42 32 15 298 14 382 0 82 -15
108 -39 145 -136 33 -86 52 -106 72 -78 20 27 20 278 0 294 -11 9 -145 13
-504 14 -269 1 -506 -1 -527 -4z"/>
<path d="M6962 2732 c-7 -21 9 -31 83 -52 37 -11 77 -27 88 -37 10 -10 51 -63
90 -118 39 -55 120 -170 182 -255 62 -85 137 -192 167 -237 l56 -81 7 -108 c9
-122 -1 -390 -16 -447 -12 -45 -40 -65 -105 -73 -102 -12 -136 -33 -111 -68
11 -14 27 -15 157 -4 110 8 185 8 312 0 91 -7 173 -9 182 -6 20 8 30 42 17 58
-6 8 -43 16 -87 19 -150 11 -156 26 -152 360 4 315 -16 267 233 577 50 62 135
169 190 238 114 143 135 161 200 173 26 5 54 14 61 20 17 14 18 45 2 51 -7 3
-121 4 -253 3 -219 -1 -240 -3 -243 -19 -6 -29 16 -43 80 -50 76 -9 98 -20 98
-50 0 -44 -364 -556 -396 -556 -18 0 -199 241 -341 454 -50 75 -66 127 -44
140 5 3 41 9 80 12 77 7 103 23 84 52 -9 15 -41 17 -313 17 -242 0 -303 -2
-308 -13z"/>
<path d="M10138 2740 c-27 -16 -22 -46 10 -58 15 -6 53 -13 85 -16 71 -6 116
-31 140 -76 18 -33 18 -65 12 -590 -3 -305 -10 -571 -15 -591 -16 -59 -48 -80
-133 -89 -41 -4 -79 -10 -86 -14 -14 -9 -14 -43 1 -52 20 -13 578 -8 591 5 22
22 -24 51 -98 62 -98 14 -112 18 -128 42 -25 39 -27 68 -32 387 -3 173 -7 406
-10 516 -3 111 -2 216 1 233 6 31 7 31 27 14 11 -10 47 -52 81 -93 33 -41 214
-253 401 -470 187 -217 372 -433 410 -480 133 -163 237 -280 250 -280 7 0 17
6 23 12 7 9 12 240 15 673 6 801 3 779 118 791 82 9 119 23 119 44 0 10 -6 22
-12 27 -7 4 -131 8 -275 9 -276 2 -289 -1 -281 -43 4 -20 39 -30 115 -32 29 0
63 -6 76 -12 51 -23 52 -28 55 -559 2 -272 0 -505 -3 -518 -3 -13 -12 -22 -19
-20 -8 2 -65 64 -127 138 -108 130 -578 680 -589 690 -3 3 -51 59 -107 125
-56 66 -124 145 -151 175 l-50 55 -198 3 c-126 1 -205 -2 -216 -8z"/>
<path d="M14335 2742 c-9 -10 -5 -30 10 -45 8 -8 42 -18 76 -22 82 -10 105
-32 114 -111 10 -76 -5 -1151 -16 -1180 -10 -29 -54 -52 -121 -64 -59 -12 -82
-28 -72 -53 9 -26 68 -31 194 -18 85 8 146 9 235 1 139 -12 191 -7 198 20 7
26 -10 38 -63 45 -82 11 -127 33 -141 68 -18 42 -16 1195 1 1238 14 34 48 49
110 49 73 0 102 14 98 48 l-3 27 -307 1 c-169 1 -310 -1 -313 -4z"/>
<path d="M15147 2738 c-25 -15 9 -43 69 -57 94 -21 145 -44 168 -74 20 -27 21
-40 20 -215 -2 -202 -14 -401 -44 -722 -29 -297 -38 -320 -139 -340 -109 -22
-116 -25 -119 -48 -2 -16 3 -24 20 -30 13 -4 144 -7 291 -6 276 1 294 4 280
40 -6 16 -57 34 -97 34 -43 1 -112 34 -126 61 -10 17 -11 124 -5 457 4 239 9
442 10 451 2 9 4 46 4 84 1 37 5 67 10 67 25 0 331 -714 452 -1053 45 -128 45
-127 69 -127 27 0 49 42 133 250 72 178 103 247 237 540 34 74 84 187 111 250
54 125 65 142 78 122 4 -7 11 -104 14 -215 4 -111 12 -330 18 -487 9 -241 9
-291 -3 -325 -17 -46 -62 -75 -118 -75 -40 0 -80 -23 -80 -46 0 -29 48 -35
184 -23 102 9 163 9 277 -1 152 -13 189 -8 189 26 0 17 -27 28 -118 50 -74 16
-92 27 -111 63 -20 37 -61 839 -56 1086 3 152 19 172 145 184 88 9 100 14 100
41 0 34 -33 40 -219 40 -150 0 -182 -3 -195 -16 -26 -25 -148 -287 -281 -603
-82 -194 -206 -464 -222 -481 -11 -12 -15 -12 -27 0 -8 8 -51 103 -95 210 -44
107 -123 294 -176 415 -53 121 -110 256 -126 300 -35 94 -78 174 -93 177 -40
5 -420 2 -429 -4z"/>
<path d="M20449 2736 c-5 -44 6 -52 84 -61 78 -9 103 -33 112 -106 3 -30 5
-305 3 -611 -3 -546 -3 -557 -24 -585 -20 -27 -52 -41 -139 -59 -34 -8 -40
-13 -40 -34 0 -39 36 -46 182 -32 93 9 158 10 238 2 123 -11 191 -6 199 17 10
25 -12 42 -62 48 -74 10 -110 24 -132 52 -20 26 -20 36 -18 641 l3 614 28 24
c22 19 39 24 82 24 78 0 107 13 103 48 l-3 27 -307 1 c-218 1 -308 -2 -309
-10z"/>
<path d="M21198 2739 c-20 -11 -24 -44 -7 -55 6 -3 45 -10 86 -15 44 -5 87
-16 107 -28 63 -39 61 -26 58 -550 -2 -534 -7 -660 -27 -707 -17 -42 -61 -64
-125 -64 -28 0 -60 -5 -71 -10 -21 -12 -26 -45 -8 -56 9 -5 530 -9 582 -5 13
2 8 38 -8 51 -8 6 -49 16 -92 21 -87 11 -118 27 -135 67 -14 34 -33 1121 -19
1135 5 5 25 -12 49 -40 23 -26 83 -98 134 -159 51 -61 226 -266 389 -455 320
-373 487 -570 534 -630 33 -43 61 -57 79 -40 8 9 13 197 17 679 4 434 10 681
17 706 16 60 38 75 122 85 79 10 108 29 90 60 -7 14 -41 16 -267 18 -142 0
-266 -1 -275 -4 -20 -5 -25 -48 -8 -58 6 -4 49 -10 96 -15 142 -12 129 44 129
-577 0 -371 -3 -527 -11 -530 -6 -2 -53 47 -105 109 -125 151 -794 932 -841
983 -21 22 -38 43 -38 48 0 4 -15 16 -32 27 -30 18 -51 20 -218 20 -107 0
-192 -5 -202 -11z"/>
<path d="M26085 2742 c-11 -12 -4 -42 13 -50 9 -6 42 -13 72 -17 77 -10 96
-25 109 -85 12 -56 13 -588 3 -978 l-7 -234 -27 -23 c-16 -14 -51 -27 -89 -34
-68 -12 -93 -28 -83 -54 9 -26 69 -31 194 -18 87 9 143 9 229 1 128 -12 197
-6 206 18 9 25 -15 40 -82 51 -74 12 -97 23 -121 58 -15 25 -17 64 -18 443 0
228 2 502 5 608 l6 194 28 24 c21 18 41 24 80 25 83 2 102 10 102 44 l0 30
-307 1 c-169 1 -310 -1 -313 -4z"/>
<path d="M28539 2731 c-22 -18 -22 -21 -9 -35 9 -9 46 -20 85 -25 81 -10 112
-21 142 -50 44 -42 46 -71 35 -652 -8 -487 -11 -550 -27 -583 -23 -47 -60 -66
-130 -66 -43 0 -60 -5 -76 -21 -19 -19 -20 -23 -6 -36 13 -13 57 -16 294 -15
153 0 284 1 291 1 6 1 12 10 12 22 0 25 -44 44 -125 53 -73 8 -106 30 -121 82
-13 47 -28 1110 -15 1118 10 6 38 -23 125 -132 36 -45 79 -97 95 -115 15 -18
102 -118 192 -223 90 -105 216 -251 280 -325 63 -74 189 -222 278 -329 90
-107 172 -199 182 -204 44 -21 44 -20 49 692 5 623 7 680 24 719 20 47 51 63
120 63 42 0 87 17 93 35 1 6 -2 17 -7 25 -7 12 -53 15 -280 16 -248 1 -271 0
-280 -16 -19 -35 9 -51 104 -59 144 -13 131 44 131 -578 0 -376 -3 -527 -11
-530 -6 -2 -67 63 -135 144 -208 249 -773 904 -840 976 l-64 67 -191 0 c-175
0 -194 -2 -215 -19z"/>
</g>
</svg>
